{
.appVersion = "3151";
.formatVersion = 3;
customParameters = (
{
name = glyphOrder;
value = (
.notdef,
.null,
CR,
space,
numbersign,
percent,
ampersand,
quotesingle,
parenleft,
parenright,
asterisk,
plus,
comma,
hyphen,
period,
slash,
zero,
one,
two,
three,
four,
five,
six,
seven,
eight,
nine,
colon,
semicolon,
less,
equal,
greater,
question,
at,
A,
B,
C,
D,
E,
F,
G,
H,
I,
J,
K,
L,
M,
N,
O,
P,
Q,
R,
S,
T,
U,
V,
W,
X,
Y,
Z,
bracketleft,
backslash,
bracketright,
asciicircum,
underscore,
grave,
a,
b,
c,
d,
e,
f,
g,
h,
i,
j,
k,
l,
m,
n,
o,
p,
q,
r,
s,
t,
u,
v,
w,
x,
y,
z,
braceleft,
bar,
braceright,
asciitilde,
exclamdown,
cent,
sterling,
currency,
yen,
brokenbar,
section,
dieresis,
copyright,
ordfeminine,
guillemotleft,
logicalnot,
uni00AD,
registered,
macron,
degree,
plusminus,
twosuperior,
threesuperior,
acute,
mu,
paragraph,
periodcentered,
cedilla,
onesuperior,
ordmasculine,
guillemotright,
onequarter,
onehalf,
threequarters,
questiondown,
Agrave,
Aacute,
Acircumflex,
Atilde,
Adieresis,
Aring,
AE,
Ccedilla,
Egrave,
Eacute,
Ecircumflex,
Edieresis,
Igrave,
Iacute,
Icircumflex,
Idieresis,
Eth,
Ntilde,
Ograve,
Oacute,
Ocircumflex,
Otilde,
Odieresis,
multiply,
Oslash,
Ugrave,
Uacute,
Ucircumflex,
Udieresis,
Yacute,
Thorn,
germandbls,
agrave,
aacute,
acircumflex,
atilde,
adieresis,
aring,
ae,
ccedilla,
egrave,
eacute,
ecircumflex,
edieresis,
igrave,
iacute,
icircumflex,
idieresis,
eth,
ntilde,
ograve,
oacute,
ocircumflex,
otilde,
odieresis,
divide,
oslash,
ugrave,
uacute,
ucircumflex,
udieresis,
yacute,
thorn,
ydieresis,
Amacron,
amacron,
Abreve,
abreve,
Aogonek,
aogonek,
Cacute,
cacute,
Ccircumflex,
ccircumflex,
Cdotaccent,
cdotaccent,
Ccaron,
ccaron,
Dcaron,
dcaron,
Dcroat,
dcroat,
Emacron,
emacron,
Ebreve,
ebreve,
Edotaccent,
edotaccent,
Eogonek,
eogonek,
Ecaron,
ecaron,
Gcircumflex,
gcircumflex,
Gbreve,
gbreve,
Gdotaccent,
gdotaccent,
Gcommaaccent,
gcommaaccent,
Hcircumflex,
hcircumflex,
Hbar,
hbar,
Itilde,
itilde,
Imacron,
imacron,
Ibreve,
ibreve,
Iogonek,

glyphs = (
{
glyphname = .notdef;
layers = (
{
layerId = master01;
shapes = (
{
closed = 1;
nodes = (
(1106,1896,l,{
name = ah02;
}),
(1106,-632,l),
(0,-632,l,{
name = ab01;
}),
(0,1896,l,{
name = ah01;
})
);
},
{
closed = 1;
nodes = (
(948,-474,l),
(948,1738,l,{
name = sh01;
}),
(158,1738,l,{
name = sh02;
}),
(158,-474,l,{
name = sv01;
})
);
}
);
userData = {
com.fontlab.ttcommands = (
{
align = round;
code = alignv;
point = ah01;
},
{
code = alignb;
point = ab01;
zone = "b: 1";
},
{
align = double;
code = singlev;
point1 = ab01;
point2 = sv01;
stem = "158";
},
{
align = round;
code = singlev;
point1 = ah01;
point2 = sh02;
stem = "158";
},
{
align = round;
code = alignh;
point = ah01;
},
{
align = round;
code = alignh;
point = ah02;
},
{
align = round;
code = singleh;
point1 = ah02;
point2 = sh01;
stem = "158";
},
{
align = round;
code = singleh;
point1 = ah01;
point2 = sh02;
stem = "158";
}
);
};
width = 1103;
}
);
},
{
glyphname = numbersign;
layers = (
{
background = {
shapes = (
{
closed = 1;
nodes = (
(474,632,l),
(632,632,l),
(632,790,l),
(474,790,l)
);
},
{
closed = 1;
nodes = (
(158,948,l),
(316,948,l),
(316,1264,l),
(474,1264,l),
(474,948,l),
(632,948,l),
(632,1264,l),
(790,1264,l),
(790,948,l),
(948,948,l),
(948,790,l),
(790,790,l),
(790,632,l),
(948,632,l),
(948,474,l),
(790,474,l),
(790,158,l),
(632,158,l),
(632,474,l),
(474,474,l),
(474,158,l),
(316,158,l),
(316,474,l),
(158,474,l),
(158,632,l),
(316,632,l),
(316,790,l),
(158,790,l)
);
}
);
};
layerId = master01;
shapes = (
{
closed = 1;
nodes = (
(474,632,l,{
name = sv02;
}),
(632,632,l,{
name = dh02;
}),
(632,790,l),
(474,790,l,{
name = dh01;
})
);
},
{
closed = 1;
nodes = (
(158,948,l),
(316,948,l,{
name = sh03;
}),
(316,1264,l,{
name = sv03;
}),
(474,1264,l),
(474,948,l,{
name = sh04;
}),
(632,948,l),
(632,1264,l,{
name = sv04;
}),
(790,1264,l),
(790,948,l,{
name = sh06;
}),
(948,948,l),
(948,790,l,{
name = sh08;
}),
(790,790,l,{
name = sv05;
}),
(790,632,l,{
name = sh05;
}),
(948,632,l,{
name = sh07;
}),
(948,474,l),
(790,474,l,{
name = sh09;
}),
(790,158,l),
(632,158,l,{
name = sv07;
}),
(632,474,l),
(474,474,l,{
name = sh10;
}),
(474,158,l),
(316,158,l,{
name = sv06;
}),
(316,474,l,{
name = sh11;
}),
(158,474,l),
(158,632,l,{
name = sh12;
}),
(316,632,l,{
name = sv01;
}),
(316,790,l,{
name = sh01;
}),
(158,790,l,{
name = sh02;
})
);
}
);
userData = {
com.fontlab.ttcommands = (
{
code = alignt;
point = sh01;
zone = "t: 1";
},
{
align = round;
code = singlev;
point1 = sh01;
point2 = dh01;
},
{
align = round;
code = singlev;
point1 = sh01;
point2 = sv01;
stem = "158";
},
{
align = left;
code = singlev;
point1 = sv01;
point2 = sv02;
},
{
align = round;
code = singlev;
point1 = sh01;
point2 = sh03;
stem = "158";
},
{
align = round;
code = singlev;
point1 = sh03;
point2 = sv03;
round = true;
},
{
align = round;
code = singlev;
point1 = sh03;
point2 = sh04;
},
{
align = round;
code = singlev;
point1 = sv03;
point2 = sv04;
},
{
align = round;
code = singlev;
point1 = sh03;
point2 = sh06;
},
{
align = round;
code = singlev;
point1 = sh01;
point2 = sv05;
},
{
align = round;
code = singlev;
point1 = sv01;
point2 = sh05;
},
{
align = round;
code = singlev;
point1 = sv01;
point2 = sh11;
stem = "158";
},
{
align = round;
code = singlev;
point1 = sh11;
point2 = sh09;
},
{
align = round;
code = singlev;
point1 = sh11;
point2 = sv06;
round = true;
},
{
align = round;
code = singlev;
point1 = sv06;
point2 = sv07;
},
{
align = round;
code = singlev;
point1 = sh11;
point2 = sh10;
},
{
code = doubleh;
point1 = dh01;
point2 = dh02;
stem = "158";
},
{
align = round;
code = singleh;
point1 = dh01;
point2 = sh01;
stem = "158";
},
{
align = double;
code = singleh;
point1 = sh01;
point2 = sh02;
stem = "158";
},
{
align = round;
code = singleh;
point1 = sh01;
point2 = sh03;
},
{
align = round;
code = singleh;
point1 = dh01;
point2 = sh04;
},
{
align = round;
code = singleh;
point1 = dh02;
point2 = sh05;
stem = "158";
},
{
align = round;
code = singleh;
point1 = sh05;
point2 = sh06;
},
{
align = round;
code = singleh;
point1 = sh05;
point2 = sh07;
stem = "158";
},
{
align = round;
code = singleh;
point1 = sh07;
point2 = sh08;
},
{
align = round;
code = singleh;
point1 = sh05;
point2 = sh09;
},
{
align = round;
code = singleh;
point1 = dh01;
point2 = sh10;
},
{
align = round;
code = singleh;
point1 = sh01;
point2 = sh11;
},
{
align = round;
code = singleh;
point1 = sh02;
point2 = sh12;
}
);
};
width = 1103;
}
);
unicode = 35;
},
{
glyphname = percent;
layers = (
{
background = {
shapes = (
{
closed = 1;
nodes = (
(0,158,l),
(790,1264,l),
(948,1264,l),
(158,158,l)
);
},
{
closed = 1;
nodes = (
(474,526,o),
(580,632,o),
(711,632,cs),
(842,632,o),
(948,526,o),
(948,395,cs),
(948,264,o),
(842,158,o),
(711,158,cs),
(580,158,o),
(474,264,o),
(474,395,cs)
);
},
{
closed = 1;
nodes = (
(0,1158,o),
(106,1264,o),
(237,1264,cs),
(368,1264,o),
(474,1158,o),
(474,1027,cs),
(474,896,o),
(368,790,o),
(237,790,cs),
(106,790,o),
(0,896,o),
(0,1027,cs)
);
},
{
closed = 1;
nodes = (
(158,983,o),
(193,948,o),
(237,948,cs),
(281,948,o),
(316,983,o),
(316,1027,cs),
(316,1071,o),
(281,1106,o),
(237,1106,cs),
(193,1106,o),
(158,1071,o),
(158,1027,cs)
);
},
{
closed = 1;
nodes = (
(632,351,o),
(667,316,o),
(711,316,cs),
(755,316,o),
(790,351,o),
(790,395,cs),
(790,439,o),
(755,474,o),
(711,474,cs),
(667,474,o),
(632,439,o),
(632,395,cs)
);
}
);
};
layerId = master01;
shapes = (
{
closed = 1;
nodes = (
(0,158,l),
(790,1264,l),
(948,1264,l),
(158,158,l)
);
},
{
closed = 1;
nodes = (
(474,444,o),
(511,530,o),
(576,595,o),
(662,632,o),
(711,632,q),
(760,632,o),
(846,595,o),
(911,530,o),
(948,444,o),
(948,395,q,{
name = sh05;
}),
(948,346,o),
(911,260,o),
(846,195,o),
(760,158,o),
(711,158,q),
(662,158,o),
(576,195,o),
(511,260,o),
(474,346,o),
(474,395,q,{
name = sh02;
})
);
},
{
closed = 1;
nodes = (
(0,1076,o),
(37,1162,o),
(102,1227,o),
(188,1264,o),
(237,1264,q),
(286,1264,o),
(372,1227,o),
(437,1162,o),
(474,1076,o),
(474,1027,q,{
name = sh01;
}),
(474,978,o),
(437,892,o),
(372,827,o),
(286,790,o),
(237,790,q),
(188,790,o),
(102,827,o),
(37,892,o),
(0,978,o),
(0,1027,q,{
name = sh06;
})
);
},
{
closed = 1;
nodes = (
(158,994,o),
(204,948,o),
(237,948,q),
(270,948,o),
(316,994,o),
(316,1027,q,{
name = dh02;
}),
(316,1060,o),
(270,1106,o),
(237,1106,q),
(204,1106,o),
(158,1060,o),
(158,1027,q,{
name = dh01;
})
);
},
{
closed = 1;
nodes = (
(632,362,o),
(678,316,o),
(711,316,q),
(744,316,o),
(790,362,o),
(790,395,q,{
name = sh04;
}),
(790,428,o),
(744,474,o),
(711,474,q),
(678,474,o),
(632,428,o),
(632,395,q,{
name = sh03;
})
);
}
);
userData = {
com.fontlab.ttcommands = (
{
code = doubleh;
point1 = dh01;
point2 = dh02;
stem = "158";
},
{
align = round;
code = singleh;
point1 = dh02;
point2 = sh01;
stem = "158";
},
{
align = double;
code = singleh;
point1 = sh01;
point2 = sh02;
},
{
align = round;
code = singleh;
point1 = sh02;
point2 = sh03;
stem = "158";
},
{
align = round;
code = singleh;
point1 = sh03;
point2 = sh04;
stem = "158";
},
{
align = round;
code = singleh;
point1 = sh04;
point2 = sh05;
stem = "158";
},
{
align = round;
code = singleh;
point1 = dh01;
point2 = sh06;
stem = "158";
}
);
};
width = 1103;
}
);
unicode = 37;
},
{
glyphname = ampersand;
layers = (
{
background = {
shapes = (
{
closed = 1;
nodes = (
(611,39,o),
(511,0,o),
(395,0,cs),
(134,0,o),
(0,212,o),
(0,474,cs),
(0,653,o),
(98,809,o),
(245,889,c),
(194,949,o),
(158,1022,o),
(158,1106,cs),
(158,1279,o),
(301,1422,o),
(474,1422,cs),
(646,1422,o),
(790,1303,o),
(790,1132,cs),
(790,1127,l),
(786,952,o),
(551,861,o),
(479,833,c),
(728,385,l),
(752,447,o),
(787,562,o),
(790,632,c),
(948,632,l),
(914,396,o),
(865,305,o),
(827,237,c),
(948,0,l),
(766,0,l),
(695,107,l)
);
},
{
closed = 1;
nodes = (
(476,158,o),
(547,187,o),
(627,251,c),
(339,759,l),
(238,711,o),
(158,600,o),
(158,474,cs),
(158,301,o),
(221,158,o),
(395,158,cs)
);
},
{
closed = 1;
nodes = (
(316,1066,o),
(335,1027,o),
(390,948,c),
(477,959,o),
(637,1061,o),
(637,1129,cs),
(637,1219,o),
(552,1264,o),
(474,1264,cs),
(387,1264,o),
(316,1193,o),
(316,1106,cs)
);
}
);
};
layerId = master01;
shapes = (
{
closed = 1;
nodes = (
(632,56,o),
(483,0,o),
(395,0,q,{
name = ab01;
}),
(297,0,o),
(149,74,o),
(50,203,o),
(0,376,o),
(0,474,q,{
name = ah01;
}),
(0,541,o),
(35,665,o),
(100,772,o),
(190,859,o),
(245,889,q),
(207,934,o),
(158,1043,o),
(158,1106,q,{
name = dh01;
}),
(158,1171,o),
(208,1286,o),
(294,1372,o),
(409,1422,o),
(474,1422,q,{
name = at01;
}),
(538,1422,o),
(653,1379,o),
(740,1303,o),
(790,1196,o),
(790,1132,q,{
name = dh04;
}),
(790,1127,l),
(789,1083,o),
(752,1010,o),
(695,949,o),
(625,901,o),
(557,865,o),
(497,840,o),
(479,833,q),
(728,385,l),
(737,408,o),
(758,472,o),
(776,539,o),
(789,606,o,{
name = ah03;
}),
(790,632,q,{
name = ah02;
}),
(948,632,l,{
name = sh01;
}),
(935,543,o),
(904,417,o),
(873,326,o),
(841,262,o),
(827,237,q),
(948,0,l,{
name = sh02;
}),
(766,0,l,{
name = sh03;
}),
(695,107,l)
);
},
{
closed = 1;
nodes = (
(456,158,o),
(567,203,o),
(627,251,q),
(339,759,l),
(301,741,o),
(235,683,o),
(186,609,o),
(158,521,o),
(158,474,q,{
name = sh04;
}),
(158,409,o),
(183,294,o),
(239,208,o),
(330,158,o),
(395,158,q,{
name = sv01;
})
);
},
{
closed = 1;
nodes = (
(316,1091,o),
(324,1060,o),
(341,1023,o),
(369,978,o),
(390,948,q),
(423,952,o),
(508,991,o),
(584,1044,o),
(637,1104,o),
(637,1129,q,{
name = dh03;
}),
(637,1163,o),
(608,1213,o),
(561,1247,o),
(503,1264,o),
(474,1264,q,{
name = sv02;
}),
(441,1264,o),
(384,1239,o),
(341,1196,o),
(316,1139,o),
(316,1106,q,{
name = dh02;
})
);
}
);
userData = {
com.fontlab.ttcommands = (
{
code = alignt;
point = at01;
zone = "t: 3";
},
{
code = alignb;
point = ab01;
zone = "b: 0";
},
{
align = round;
code = singlev;
point1 = ab01;
point2 = sh03;
},
{
align = round;
code = singlev;
point1 = ab01;
point2 = sv01;
stem = "158";
},
{
align = round;
code = singlev;
point1 = at01;
point2 = sv02;
stem = "158";
},
{
align = round;
code = alignh;
point = ah01;
},
{
align = round;
code = alignh;
point = ah02;
},
{
align = round;
code = alignh;
point = ah03;
},
{
code = doubleh;
point1 = dh01;
point2 = dh02;
stem = "158";
},
{
code = doubleh;
point1 = dh03;
point2 = dh04;
stem = "158";
},
{
align = round;
code = singleh;
point1 = ah02;
point2 = sh01;
stem = "158";
},
{
align = round;
code = singleh;
point1 = sh01;
point2 = sh02;
},
{
align = round;
code = singleh;
point1 = ah03;
point2 = sh03;
round = true;
},
{
align = round;
code = singleh;
point1 = ah01;
point2 = sh04;
stem = "158";
}
);
};
width = 1103;
}
);
unicode = 38;
},
{
glyphname = quotesingle;
layers = (
{
background = {
shapes = (
{
closed = 1;
nodes = (
(632,1422,l),
(632,948,l),
(474,948,l),
(474,1422,l)
);
}
);
};
layerId = master01;
shapes = (
{
closed = 1;
nodes = (
(632,1422,l),
(632,948,l),
(474,948,l),
(474,1422,l)
);
}
);
width = 1103;
}
);
unicode = 39;
},
{
glyphname = parenleft;
layers = (
{
background = {
shapes = (
{
closed = 1;
nodes = (
(552,-316,o),
(316,237,o),
(316,632,cs),
(316,1027,o),
(552,1580,o),
(790,1580,c),
(790,1422,l),
(632,1343,o),
(474,949,o),
(474,632,cs),
(474,315,o),
(632,-79,o),
(790,-158,c),
(790,-316,l)
);
}
);
};
layerId = master01;
shapes = (
{
closed = 1;
nodes = (
(394,498,o),
(441,257,o),
(525,59,o),
(641,-86,o),
(710,-123,q,{
name = ah01;
}),
(710,-305,l,{
name = dv02;
}),
(641,-290,o),
(517,-208,o),
(412,-82,o),
(327,84,o),
(268,282,o),
(236,509,o),
(236,632,q,{
name = dh01;
}),
(236,817,o),
(307,1139,o),
(433,1387,o),
(607,1546,o),
(710,1569,q,{
name = dv01;
}),
(710,1387,l,{
name = sh01;
}),
(641,1350,o),
(525,1204,o),
(441,1006,o),
(394,765,o),
(394,632,q,{
name = dh02;
})
);
}
);
userData = {
com.fontlab.ttcommands = (
{
code = doublev;
point1 = sh01;
point2 = dv01;
stem = "158";
},
{
code = doublev;
point1 = ah01;
point2 = dv02;
stem = "158";
},
{
align = round;
code = alignh;
point = ah01;
},
{
code = doubleh;
point1 = dh01;
point2 = dh02;
stem = "158";
},
{
align = round;
code = singleh;
point1 = ah01;
point2 = sh01;
}
);
};
width = 1103;
}
);
unicode = 40;
},
{
glyphname = parenright;
layers = (
{
background = {
shapes = (
{
closed = 1;
nodes = (
(474,-79,o),
(632,315,o),
(632,632,cs),
(632,949,o),
(474,1343,o),
(316,1422,c),
(316,1580,l),
(554,1580,o),
(790,1027,o),
(790,632,cs),
(790,237,o),
(554,-316,o),
(316,-316,c),
(316,-158,l)
);
}
);
};
layerId = master01;
shapes = (
{
closed = 1;
nodes = (
(632,765,o,{
name = dh01;
}),
(585,1006,o),
(501,1204,o),
(385,1350,o),
(316,1387,q,{
name = sh01;
}),
(316,1569,l,{
name = dv01;
}),
(419,1546,o),
(593,1387,o),
(719,1139,o),
(790,817,o),
(790,632,q,{
name = dh02;
}),
(790,509,o),
(758,282,o),
(699,84,o),
(614,-82,o),
(509,-208,o),
(385,-290,o),
(316,-305,q,{
name = dv02;
}),
(316,-123,l,{
name = ah01;
}),
(385,-86,o),
(501,59,o),
(585,257,o),
(632,498,o),
(632,632,q)
);
}
);
userData = {
com.fontlab.ttcommands = (
{
code = doublev;
point1 = dv01;
point2 = sh01;
stem = "158";
},
{
code = doublev;
point1 = ah01;
point2 = dv02;
stem = "158";
},
{
align = round;
code = alignh;
point = ah01;
},
{
code = doubleh;
point1 = dh01;
point2 = dh02;
stem = "158";
},
{
align = round;
code = singleh;
point1 = ah01;
point2 = sh01;
}
);
};
width = 1103;
}
);
unicode = 41;
},
{
glyphname = asterisk;
layers = (
{
background = {
shapes = (
{
closed = 1;
nodes = (
(632,785,l),
(918,852,l),
(948,711,l),
(672,632,l),
(831,410,l),
(711,316,l),
(553,550,l),
(395,316,l),
(275,395,l),
(434,632,l),
(158,711,l),
(188,852,l),
(474,785,l),
(474,1106,l),
(632,1106,l)
);
}
);
};
layerId = master01;
shapes = (
{
closed = 1;
nodes = (
(632,785,l),
(918,852,l),
(948,711,l),
(672,632,l),
(831,410,l),
(711,316,l),
(553,550,l),
(395,316,l),
(275,395,l),
(434,632,l),
(158,711,l),
(188,852,l),
(474,785,l),
(474,1106,l),
(632,1106,l)
);
}
);
width = 1103;
}
);
unicode = 42;
},
{
glyphname = plus;
layers = (
{
background = {
shapes = (
{
closed = 1;
nodes = (
(158,632,l),
(158,790,l),
(474,790,l),
(474,1106,l),
(632,1106,l),
(632,790,l),
(948,790,l),
(948,632,l),
(632,632,l),
(632,316,l),
(474,316,l),
(474,632,l)
);
}
);
};
layerId = master01;
shapes = (
{
closed = 1;
nodes = (
(158,632,l,{
name = sv01;
}),
(158,790,l,{
name = sh02;
}),
(474,790,l),
(474,1106,l,{
name = dh01;
}),
(632,1106,l,{
name = dh02;
}),
(632,790,l,{
name = sv02;
}),
(948,790,l,{
name = sh03;
}),
(948,632,l),
(632,632,l,{
name = sh04;
}),
(632,316,l),
(474,316,l,{
name = sv03;
}),
(474,632,l,{
name = sh01;
})
);
}
);
userData = {
com.fontlab.ttcommands = (
{
code = alignt;
point = sh02;
zone = "t: 1";
},
{
align = left;
code = singlev;
point1 = sh02;
point2 = sv01;
stem = "158";
},
{
align = double;
code = singlev;
point1 = sh02;
point2 = dh01;
},
{
align = round;
code = singlev;
point1 = sh02;
point2 = sv02;
},
{
align = round;
code = singlev;
point1 = sv01;
point2 = sh04;
},
{
align = round;
code = singlev;
point1 = sv01;
point2 = sv03;
},
{
code = doubleh;
point1 = dh01;
point2 = dh02;
stem = "158";
},
{
align = round;
code = singleh;
point1 = dh01;
point2 = sh01;
},
{
align = right;
code = singleh;
point1 = dh01;
point2 = sh02;
},
{
align = round;
code = singleh;
point1 = dh02;
point2 = sh03;
},
{
align = round;
code = singleh;
point1 = dh02;
point2 = sh04;
}
);
};
width = 1103;
}
);
unicode = 43;
},
{
glyphname = comma;
layers = (
{
background = {
shapes = (
{
closed = 1;
nodes = (
(351,-316,o),
(316,-281,o),
(316,-237,cs),
(316,-193,o),
(351,-158,o),
(395,-158,cs),
(473,-158,o),
(474,-103,o),
(474,-7,c),
(474,0,l),
(387,0,o),
(316,71,o),
(316,158,cs),
(316,245,o),
(387,316,o),
(474,316,cs),
(561,316,o),
(632,245,o),
(632,158,cs),
(632,0,ls),
(632,-158,o),
(552,-316,o),
(395,-316,cs)
);
}
);
};
layerId = master01;
shapes = (
{
closed = 1;
nodes = (
(362,-316,o),
(316,-270,o),
(316,-237,q,{
name = sh02;
}),
(316,-204,o),
(362,-158,o),
(395,-158,q,{
name = sv01;
}),
(424,-158,o),
(456,-138,o),
(471,-99,o),
(474,-43,o),
(474,-7,q,{
name = dh01;
}),
(474,0,l),
(441,0,o),
(384,25,o),
(341,68,o),
(316,125,o),
(316,158,q,{
name = sh01;
}),
(316,191,o),
(341,248,o),
(384,291,o),
(441,316,o),
(474,316,q,{
name = sv03;
}),
(507,316,o),
(564,291,o),
(607,248,o),
(632,191,o),
(632,158,q),
(632,0,l,{
name = dh02;
}),
(632,-59,o),
(602,-173,o),
(543,-262,o),
(454,-316,o),
(395,-316,q,{
name = sv02;
})
);
}
);
userData = {
com.fontlab.ttcommands = (
{
code = alignb;
point = dh01;
zone = "b: 0";
},
{
align = round;
code = singlev;
point1 = dh01;
point2 = sv01;
},
{
align = round;
code = singlev;
point1 = sv01;
point2 = sv02;
stem = "158";
},
{
align = round;
code = singlev;
point1 = dh01;
point2 = sv03;
round = true;
},
{
code = doubleh;
point1 = dh01;
point2 = dh02;
stem = "158";
},
{
align = round;
code = singleh;
point1 = dh01;
point2 = sh01;
stem = "158";
},
{
align = center;
code = singleh;
point1 = sh01;
point2 = sh02;
}
);
};
width = 1103;
}
);
unicode = 44;
},
{
glyphname = hyphen;
layers = (
{
background = {
shapes = (
{
closed = 1;
nodes = (
(948,790,l),
(948,632,l),
(158,632,l),
(158,790,l)
);
}
);
};
layerId = master01;
shapes = (
{
closed = 1;
nodes = (
(948,790,l),
(948,632,l,{
name = ah02;
}),
(158,632,l,{
name = ah01;
}),
(158,790,l,{
name = at01;
})
);
}
);
userData = {
com.fontlab.ttcommands = (
{
code = alignt;
point = at01;
zone = "t: 1";
},
{
align = center;
code = singlev;
point1 = at01;
point2 = ah01;
stem = "158";
},
{
align = round;
code = alignh;
point = ah01;
},
{
align = left;
code = alignh;
point = ah02;
}
);
};
width = 1103;
}
);
unicode = 45;
},
{
glyphname = period;
layers = (
{
background = {
shapes = (
{
closed = 1;
nodes = (
(316,245,o),
(387,316,o),
(474,316,cs),
(561,316,o),
(632,245,o),
(632,158,cs),
(632,71,o),
(561,0,o),
(474,0,cs),
(387,0,o),
(316,71,o),
(316,158,cs)
);
}
);
};
layerId = master01;
shapes = (
{
closed = 1;
nodes = (
(316,191,o),
(341,248,o),
(384,291,o),
(441,316,o),
(474,316,q,{
name = sv01;
}),
(507,316,o),
(564,291,o),
(607,248,o),
(632,191,o),
(632,158,q,{
name = dh02;
}),
(632,125,o),
(607,68,o),
(564,25,o),
(507,0,o),
(474,0,q,{
name = ab01;
}),
(441,0,o),
(384,25,o),
(341,68,o),
(316,125,o),
(316,158,q,{
name = dh01;
})
);
}
);
userData = {
com.fontlab.ttcommands = (
{
code = alignb;
point = ab01;
zone = "b: 0";
},
{
align = round;
code = singlev;
point1 = ab01;
point2 = sv01;
round = true;
},
{
code = doubleh;
point1 = dh01;
point2 = dh02;
}
);
};
width = 1103;
}
);
unicode = 46;
},
{
glyphname = slash;
layers = (
{
background = {
shapes = (
{
closed = 1;
nodes = (
(790,1422,l),
(948,1422,l),
(885,1264,l),
(379,-1,l),
(316,-158,l),
(158,-158,l),
(222,2,l),
(727,1264,l)
);
}
);
};
guides = (
{
pos = (0,2044);
}
);
layerId = master01;
shapes = (
{
closed = 1;
nodes = (
(790,1422,l),
(948,1422,l),
(885,1264,l,{
name = mh01;
}),
(379,-1,l),
(316,-158,l),
(158,-158,l),
(222,2,l,{
name = mh02;
}),
(727,1264,l)
);
}
);
userData = {
com.fontlab.ttcommands = (
{
code = mdeltah;
delta = 3;
point = mh01;
ppm1 = 13;
ppm2 = 13;
},
{
code = mdeltah;
delta = -3;
point = mh02;
ppm1 = 13;
ppm2 = 13;
}
);
};
width = 1103;
}
);
unicode = 47;
},
{
glyphname = zero;
layers = (
{
background = {
shapes = (
{
closed = 1;
nodes = (
(158,1246,o),
(334,1422,o),
(553,1422,cs),
(772,1422,o),
(948,1246,o),
(948,1027,cs),
(948,395,ls),
(948,176,o),
(772,0,o),
(553,0,cs),
(334,0,o),
(158,176,o),
(158,395,cs),
(158,1027,ls)
);
},
{
closed = 1;
nodes = (
(684,158,o),
(790,264,o),
(790,395,cs),
(790,810,l),
(316,435,l),
(316,395,ls),
(316,264,o),
(422,158,o),
(553,158,cs)
);
},
{
closed = 1;
nodes = (
(422,1264,o),
(316,1158,o),
(316,1027,cs),
(316,637,l),
(790,1012,l),
(790,1097,o),
(764,1151,o),
(720,1195,c),
(677,1238,o),
(618,1264,o),
(553,1264,cs)
);
}
);
};
layerId = master01;
shapes = (
{
closed = 1;
nodes = (
(158,1109,o),
(220,1253,o),
(327,1360,o),
(471,1422,o),
(553,1422,q,{
name = at01;
}),
(635,1422,o),
(779,1360,o),
(886,1253,o),
(948,1109,o),
(948,1027,q,{
name = dh01;
}),
(948,395,l),
(948,313,o),
(886,169,o),
(779,62,o),
(635,0,o),
(553,0,q,{
name = ab01;
}),
(471,0,o),
(327,62,o),
(220,169,o),
(158,313,o),
(158,395,q),
(158,1027,l,{
name = dh03;
})
);
},
{
closed = 1;
nodes = (
(602,158,o),
(688,195,o),
(753,260,o),
(790,346,o),
(790,395,q,{
name = sh01;
}),
(790,810,l,{
name = dv03;
}),
(316,435,l,{
name = dv01;
}),
(316,395,l,{
name = sh02;
}),
(316,346,o),
(353,260,o),
(418,195,o,{
name = fv01;
}),
(504,158,o),
(553,158,q,{
name = sv01;
})
);
},
{
closed = 1;
nodes = (
(504,1264,o),
(418,1227,o),
(353,1162,o),
(316,1076,o),
(316,1027,q,{
name = dh04;
}),
(316,637,l,{
name = dv02;
}),
(790,1012,l,{
name = dh02;
}),
(790,1076,o),
(753,1162,o),
(720,1195,q,{
name = fv02;
}),
(688,1227,o),
(602,1264,o),
(553,1264,q,{
name = sv02;
})
);
}
);
userData = {
com.fontlab.ttcommands = (
{
code = alignt;
point = at01;
zone = "t: 3";
},
{
code = alignb;
point = ab01;
zone = "b: 0";
},
{
code = doublev;
point1 = dv01;
point2 = dv02;
stem = "158";
},
{
code = doublev;
point1 = dh02;
point2 = dv03;
stem = "158";
},
{
align = round;
code = singlev;
point1 = ab01;
point2 = sv01;
stem = "158";
},
{
code = mdeltav;
delta = 3;
point = dv03;
ppm1 = 11;
ppm2 = 11;
},
{
code = mdeltav;
delta = 5;
point = dv01;
ppm1 = 15;
ppm2 = 15;
},
{
align = round;
code = singlev;
point1 = at01;
point2 = sv02;
stem = "158";
},
{
code = mdeltav;
delta = 4;
point = dh02;
ppm1 = 15;
ppm2 = 15;
},
{
code = mdeltav;
delta = -3;
point = dh02;
ppm1 = 14;
ppm2 = 14;
},
{
code = mdeltav;
delta = -3;
point = dh02;
ppm1 = 9;
ppm2 = 10;
},
{
code = doubleh;
point1 = dh01;
point2 = dh02;
stem = "158";
},
{
code = doubleh;
point1 = dh03;
point2 = dh04;
stem = "158";
},
{
align = round;
code = singleh;
point1 = dh02;
point2 = sh01;
},
{
align = round;
code = singleh;
point1 = dh04;
point2 = sh02;
},
{
code = fdeltav;
delta = -3;
point = fv01;
ppm1 = 15;
ppm2 = 15;
},
{
code = fdeltav;
delta = 4;
point = fv02;
ppm1 = 14;
ppm2 = 14;
}
);
};
width = 1103;
}
);
unicode = 48;
},
{
glyphname = one;
layers = (
{
background = {
shapes = (
{
closed = 1;
nodes = (
(355,1264,ls),
(421,1264,o),
(474,1315,o),
(474,1382,cs),
(474,1422,l),
(632,1422,l),
(632,158,l),
(790,158,l),
(790,0,l),
(316,0,l),
(316,158,l),
(474,158,l),
(474,1106,l),
(316,1106,l),
(316,1264,l)
);
}
);
};
layerId = master01;
shapes = (
{
closed = 1;
nodes = (
(355,1264,l),
(380,1264,o),
(423,1282,o),
(455,1314,o),
(474,1357,o),
(474,1382,q),
(474,1422,l,{
name = sh01;
}),
(632,1422,l),
(632,158,l,{
name = dh02;
}),
(790,158,l,{
name = sh02;
}),
(790,0,l),
(316,0,l,{
name = ab01;
}),
(316,158,l,{
name = sh03;
}),
(474,158,l,{
name = dh01;
}),
(474,1106,l),
(316,1106,l,{
name = sh04;
}),
(316,1264,l,{
name = sv01;
})
);
}
);
userData = {
com.fontlab.ttcommands = (
{
code = alignt;
point = sh01;
zone = "t: 3";
},
{
code = alignb;
point = ab01;
zone = "b: 0";
},
{
align = round;
code = singlev;
point1 = sh01;
point2 = sv01;
stem = "158";
},
{
align = round;
code = singlev;
point1 = ab01;
point2 = sh03;
stem = "158";
},
{
align = round;
code = singlev;
point1 = sh03;
point2 = dh02;
},
{
align = round;
code = singlev;
point1 = sv01;
point2 = sh04;
stem = "158";
},
{
code = doubleh;
point1 = dh01;
point2 = dh02;
stem = "158";
},
{
align = round;
code = singleh;
point1 = dh01;
point2 = sh01;
},
{
align = round;
code = singleh;
point1 = dh02;
point2 = sh02;
stem = "158";
},
{
align = round;
code = singleh;
point1 = dh01;
point2 = sh03;
stem = "158";
},
{
align = round;
code = singleh;
point1 = sh03;
point2 = sh04;
}
);
};
width = 1103;
}
);
unicode = 49;
},
{
glyphname = two;
layers = (
{
background = {
shapes = (
{
closed = 1;
nodes = (
(805,1422,o),
(948,1279,o),
(948,1106,cs),
(948,948,ls),
(948,829,o),
(790,692,o),
(632,553,cs),
(474,414,o),
(316,277,o),
(316,158,c),
(948,158,l),
(948,0,l),
(158,0,l),
(158,237,ls),
(158,314,o),
(305,451,o),
(457,593,c),
(643,765,o),
(790,902,o),
(790,979,cs),
(790,1106,ls),
(790,1193,o),
(719,1264,o),
(632,1264,cs),
(474,1264,ls),
(387,1264,o),
(316,1193,o),
(316,1106,c),
(158,1106,l),
(158,1279,o),
(301,1422,o),
(474,1422,cs),
(632,1422,ls)
);
}
);
};
layerId = master01;
shapes = (
{
closed = 1;
nodes = (
(697,1422,o,{
name = mv01;
}),
(812,1372,o,{
name = fv01;
}),
(898,1286,o),
(948,1171,o),
(948,1106,q,{
name = dh01;
}),
(948,948,l,{
name = mv02;
}),
(948,903,o),
(894,808,o),
(805,708,o),
(691,605,o),
(632,553,q),
(573,501,o),
(459,398,o),
(370,298,o),
(316,203,o,{
name = mh01;
}),
(316,158,q,{
name = dh04;
}),
(948,158,l,{
name = sh01;
}),
(948,0,l,{
name = ab01;
}),
(158,0,l),
(158,237,l,{
name = dh03;
}),
(158,266,o),
(209,344,o),
(292,437,o),
(400,540,o),
(457,593,q),
(527,657,o),
(648,773,o),
(738,871,o),
(790,950,o),
(790,979,q),
(790,1106,l,{
name = dh02;
}),
(790,1139,o),
(765,1196,o),
(722,1239,o),
(665,1264,o),
(632,1264,q),
(474,1264,l,{
name = sv01;
}),
(441,1264,o),
(384,1239,o),
(341,1196,o),
(316,1139,o),
(316,1106,q,{
name = sh03;
}),
(158,1106,l,{
name = sh02;
}),
(158,1171,o),
(208,1286,o),
(294,1372,o),
(409,1422,o),
(474,1422,q,{
name = at01;
}),
(632,1422,l)
);
}
);
userData = {
com.fontlab.ttcommands = (
{
code = alignt;
point = at01;
zone = "t: 3";
},
{
code = alignb;
point = ab01;
zone = "b: 0";
},
{
code = mdeltav;
delta = -2;
point = mv01;
ppm1 = 10;
ppm2 = 10;
},
{
code = mdeltav;
delta = -2;
point = dh01;
ppm1 = 12;
ppm2 = 12;
},
{
code = mdeltav;
delta = 2;
point = mv02;
ppm1 = 12;
ppm2 = 12;
},
{
code = mdeltav;
delta = 5;
point = mh01;
ppm1 = 11;
ppm2 = 11;
},
{
code = mdeltav;
delta = 4;
point = mh01;
ppm1 = 14;
ppm2 = 14;
},
{
align = round;
code = singlev;
point1 = ab01;
point2 = sh01;
stem = "158";
},
{
code = mdeltav;
delta = 4;
point = dh03;
ppm1 = 11;
ppm2 = 11;
},
{
code = mdeltav;
delta = -2;
point = dh03;
ppm1 = 15;
ppm2 = 15;
},
{
align = round;
code = singlev;
point1 = at01;
point2 = sv01;
stem = "158";
},
{
code = doubleh;
point1 = dh01;
point2 = dh02;
stem = "158";
},
{
code = doubleh;
point1 = dh03;
point2 = dh04;
stem = "158";
},
{
code = mdeltah;
delta = -1;
point = mh01;
ppm1 = 11;
ppm2 = 11;
},
{
align = round;
code = singleh;
point1 = dh01;
point2 = sh01;
},
{
code = mdeltah;
delta = 1;
point = dh03;
ppm1 = 15;
ppm2 = 15;
},
{
align = round;
code = singleh;
point1 = dh03;
point2 = sh02;
},
{
align = round;
code = singleh;
point1 = sh02;
point2 = sh03;
stem = "158";
},
{
code = fdeltav;
delta = -2;
point = fv01;
ppm1 = 11;
ppm2 = 11;
}
);
};
width = 1103;
}
);
unicode = 50;
},
{
glyphname = three;
layers = (
{
background = {
shapes = (
{
closed = 1;
nodes = (
(553,158,ls),
(684,158,o),
(790,264,o),
(790,395,cs),
(790,526,o),
(684,632,o),
(553,632,cs),
(316,632,l),
(316,790,l),
(553,790,ls),
(684,790,o),
(790,896,o),
(790,1027,cs),
(790,1158,o),
(684,1264,o),
(553,1264,cs),
(158,1264,l),
(158,1422,l),
(553,1422,ls),
(772,1422,o),
(948,1246,o),
(948,1027,cs),
(948,896,o),
(885,783,o),
(789,711,c),
(885,639,o),
(948,524,o),
(948,395,cs),
(948,176,o),
(772,0,o),
(553,0,cs),
(158,0,l),
(158,158,l)
);
}
);
};
layerId = master01;
shapes = (
{
closed = 1;
nodes = (
(553,158,l,{
name = sv01;
}),
(602,158,o),
(688,195,o),
(753,260,o),
(790,346,o),
(790,395,q,{
name = sh03;
}),
(790,444,o),
(753,530,o),
(688,595,o),
(602,632,o),
(553,632,q),
(316,632,l,{
name = sv02;
}),
(316,790,l,{
name = ah02;
}),
(553,790,l),
(602,790,o),
(688,827,o),
(753,892,o),
(790,978,o),
(790,1027,q,{
name = sh02;
}),
(790,1076,o),
(753,1162,o),
(688,1227,o,{
name = fv01;
}),
(602,1264,o),
(553,1264,q,{
name = sv03;
}),
(158,1264,l,{
name = ah01;
}),
(158,1422,l),
(553,1422,l,{
name = at01;
}),
(635,1422,o),
(779,1360,o),
(886,1253,o),
(948,1109,o),
(948,1027,q,{
name = ah03;
}),
(948,928,o),
(861,765,o,{
name = fh01;
}),
(789,711,q,{
name = mh01;
}),
(861,657,o),
(948,492,o,{
name = fv02;
}),
(948,395,q,{
name = sh04;
}),
(948,313,o),
(886,169,o),
(779,62,o),
(635,0,o),
(553,0,q,{
name = ab01;
}),
(158,0,l),
(158,158,l,{
name = sh01;
})
);
}
);
userData = {
com.fontlab.ttcommands = (
{
code = alignt;
point = at01;
zone = "t: 3";
},
{
code = alignt;
point = ah02;
zone = "t: 1";
},
{
code = alignb;
point = ab01;
zone = "b: 0";
},
{
align = left;
code = singlev;
point1 = ab01;
point2 = sv01;
stem = "158";
},
{
code = mdeltav;
delta = 5;
point = ah02;
ppm1 = 14;
ppm2 = 14;
},
{
align = round;
code = singlev;
point1 = ah02;
point2 = sv02;
stem = "158";
},
{
align = round;
code = singlev;
point1 = at01;
point2 = sv03;
stem = "158";
},
{
align = round;
code = alignh;
point = ah01;
},
{
align = round;
code = alignh;
point = ah02;
},
{
align = round;
code = alignh;
point = ah03;
},
{
align = round;
code = singleh;
point1 = ah01;
point2 = sh01;
},
{
align = round;
code = singleh;
point1 = ah03;
point2 = sh02;
stem = "158";
},
{
align = round;
code = singleh;
point1 = sh02;
point2 = sh03;
},
{
code = mdeltah;
delta = -3;
point = mh01;
ppm1 = 11;
ppm2 = 12;
},
{
align = round;
code = singleh;
point1 = ah03;
point2 = sh04;
},
{
code = fdeltav;
delta = 3;
point = fv01;
ppm1 = 14;
ppm2 = 14;
},
{
code = fdeltav;
delta = 2;
point = fh01;
ppm1 = 9;
ppm2 = 9;
},
{
code = fdeltav;
delta = 6;
point = fv02;
ppm1 = 12;
ppm2 = 12;
},
{
code = fdeltah;
delta = -3;
point = fh01;
ppm1 = 9;
ppm2 = 9;
}
);
};
width = 1103;
}
);
unicode = 51;
},
{
glyphname = four;
layers = (
{
background = {
shapes = (
{
closed = 1;
nodes = (
(790,1422,l),
(790,474,l),
(948,474,l),
(948,316,l),
(790,316,l),
(790,0,l),
(632,0,l),
(632,316,l),
(158,316,l),
(158,474,l),
(632,1422,l)
);
},
{
closed = 1;
nodes = (
(632,1106,l),
(316,474,l),
(632,474,l)
);
}
);
};
layerId = master01;
shapes = (
{
closed = 1;
nodes = (
(790,1422,l,{
name = at01;
}),
(790,474,l,{
name = sh01;
}),
(948,474,l,{
name = sh02;
}),
(948,316,l,{
name = sv01;
}),
(790,316,l),
(790,0,l,{
name = dh01;
}),
(632,0,l,{
name = dh02;
}),
(632,316,l,{
name = sv02;
}),
(158,316,l),
(158,474,l,{
name = ah01;
}),
(553,1422,l)
);
},
{
closed = 1;
nodes = (
(632,1264,l),
(316,474,l,{
name = sh04;
}),
(632,474,l,{
name = sh03;
})
);
}
);
userData = {
com.fontlab.ttcommands = (
{
code = alignt;
point = at01;
zone = "t: 3";
},
{
code = alignt;
point = sh02;
zone = "t: 0";
},
{
code = alignb;
point = dh01;
zone = "b: 0";
},
{
align = double;
code = singlev;
point1 = sh02;
point2 = sv01;
stem = "158";
},
{
align = round;
code = singlev;
point1 = sv01;
point2 = sv02;
},
{
align = round;
code = singlev;
point1 = sh02;
point2 = sh03;
},
{
align = round;
code = alignh;
point = ah01;
},
{
code = doubleh;
point1 = dh01;
point2 = dh02;
stem = "158";
},
{
align = right;
code = singleh;
point1 = dh01;
point2 = sh01;
},
{
align = center;
code = singleh;
point1 = sh01;
point2 = sh02;
stem = "158";
},
{
align = round;
code = singleh;
point1 = dh02;
point2 = sh03;
},
{
align = round;
code = singleh;
point1 = ah01;
point2 = sh04;
stem = "158";
}
);
};
width = 1103;
}
);
unicode = 52;
},
{
glyphname = five;
layers = (
{
background = {
shapes = (
{
closed = 1;
nodes = (
(553,158,ls),
(684,158,o),
(790,264,o),
(790,395,cs),
(790,526,o),
(684,632,o),
(553,632,cs),
(158,632,l),
(158,1422,l),
(948,1422,l),
(948,1264,l),
(316,1264,l),
(316,790,l),
(553,790,ls),
(772,790,o),
(948,614,o),
(948,395,cs),
(948,176,o),
(772,0,o),
(553,0,cs),
(158,0,l),
(158,158,l)
);
}
);
};
layerId = master01;
shapes = (
{
closed = 1;
nodes = (
(553,158,l),
(602,158,o),
(688,195,o),
(753,260,o),
(790,346,o),
(790,395,q,{
name = dh03;
}),
(790,444,o),
(753,530,o),
(688,595,o),
(602,632,o),
(553,632,q),
(158,632,l,{
name = dh01;
}),
(158,1422,l),
(948,1422,l,{
name = at01;
}),
(948,1264,l,{
name = sh02;
}),
(316,1264,l),
(316,790,l,{
name = dh02;
}),
(553,790,l),
(635,790,o),
(779,728,o,{
name = fv01;
}),
(886,621,o),
(948,477,o),
(948,395,q,{
name = dh04;
}),
(948,313,o),
(886,169,o),
(779,62,o),
(635,0,o),
(553,0,q),
(158,0,l,{
name = ab01;
}),
(158,158,l,{
name = sh01;
})
);
}
);
userData = {
com.fontlab.ttcommands = (
{
code = alignt;
point = at01;
zone = "t: 3";
},
{
code = alignt;
point = dh02;
zone = "t: 1";
},
{
code = alignb;
point = ab01;
zone = "b: 0";
},
{
align = round;
code = singlev;
point1 = ab01;
point2 = sh01;
stem = "158";
},
{
code = mdeltav;
delta = 5;
point = dh02;
ppm1 = 14;
ppm2 = 14;
},
{
align = round;
code = singlev;
point1 = dh02;
point2 = dh01;
stem = "158";
},
{
align = round;
code = singlev;
point1 = at01;
point2 = sh02;
stem = "158";
},
{
code = doubleh;
point1 = dh01;
point2 = dh02;
stem = "158";
},
{
code = doubleh;
point1 = dh03;
point2 = dh04;
stem = "158";
},
{
align = round;
code = singleh;
point1 = dh01;
point2 = sh01;
},
{
align = round;
code = singleh;
point1 = dh04;
point2 = sh02;
},
{
code = fdeltav;
delta = -2;
point = fv01;
ppm1 = 9;
ppm2 = 9;
}
);
};
width = 1103;
}
);
unicode = 53;
},
{
glyphname = six;
layers = (
{
background = {
shapes = (
{
closed = 1;
nodes = (
(158,1106,o),
(394,1422,o),
(790,1422,c),
(790,1264,l),
(473,1264,o),
(317,949,o),
(313,697,c),
(381,748,o),
(464,790,o),
(553,790,cs),
(772,790,o),
(948,614,o),
(948,395,cs),
(948,176,o),
(772,0,o),
(553,0,cs),
(334,0,o),
(158,158,o),
(158,474,cs),
(158,553,ls)
);
},
{
closed = 1;
nodes = (
(316,264,o),
(422,158,o),
(553,158,cs),
(684,158,o),
(790,264,o),
(790,395,cs),
(790,526,o),
(684,632,o),
(553,632,c),
(425,627,o),
(321,541,o),
(316,395,c)
);
}
);
};
layerId = master01;
shapes = (
{
closed = 1;
nodes = (
(158,760,o),
(244,1084,o),
(407,1306,o),
(641,1422,o,{
name = mh01;
}),
(790,1422,q,{
name = at01;
}),
(790,1264,l,{
name = sh01;
}),
(711,1264,o),
(579,1215,o),
(474,1131,o),
(395,1019,o,{
name = mv01;
}),
(341,893,o),
(314,760,o),
(313,697,q),
(364,735,o),
(486,790,o),
(553,790,q,{
name = mh02;
}),
(635,790,o),
(779,728,o),
(886,621,o),
(948,477,o),
(948,395,q,{
name = dh03;
}),
(948,313,o),
(886,169,o),
(779,62,o),
(635,0,o),
(553,0,q,{
name = ab01;
}),
(471,0,o),
(327,59,o),
(220,178,o),
(158,355,o),
(158,474,q),
(158,553,l,{
name = dh02;
})
);
},
{
closed = 1;
nodes = (
(316,346,o),
(353,260,o),
(418,195,o),
(504,158,o),
(553,158,q,{
name = sv01;
}),
(602,158,o),
(688,195,o),
(753,260,o),
(790,346,o),
(790,395,q,{
name = dh04;
}),
(790,444,o),
(753,530,o),
(688,595,o),
(602,632,o),
(553,632,q,{
name = sv02;
}),
(505,630,o),
(420,597,o),
(356,536,o),
(318,450,o),
(316,395,q,{
name = dh01;
})
);
}
);
userData = {
com.fontlab.ttcommands = (
{
code = alignt;
point = mh02;
zone = "t: 1";
},
{
code = alignt;
point = at01;
zone = "t: 3";
},
{
code = alignb;
point = ab01;
zone = "b: 0";
},
{
align = round;
code = singlev;
point1 = at01;
point2 = sh01;
stem = "158";
},
{
code = mdeltav;
delta = 4;
point = mv01;
ppm1 = 13;
ppm2 = 13;
},
{
code = mdeltav;
delta = 4;
point = mh02;
ppm1 = 11;
ppm2 = 11;
},
{
align = round;
code = singlev;
point1 = ab01;
point2 = sv01;
stem = "158";
},
{
align = round;
code = singlev;
point1 = mh02;
point2 = sv02;
stem = "158";
},
{
code = doubleh;
point1 = dh01;
point2 = dh02;
stem = "158";
},
{
code = doubleh;
point1 = dh03;
point2 = dh04;
stem = "158";
},
{
code = mdeltah;
delta = 2;
point = mh01;
ppm1 = 11;
ppm2 = 11;
},
{
align = round;
code = singleh;
point1 = dh04;
point2 = sh01;
},
{
code = mdeltah;
delta = 4;
point = mh02;
ppm1 = 11;
ppm2 = 11;
}
);
};
width = 1103;
}
);
unicode = 54;
},
{
glyphname = seven;
layers = (
{
background = {
shapes = (
{
closed = 1;
nodes = (
(474,0,l),
(316,0,l),
(786,1264,l),
(158,1264,l),
(158,1422,l),
(948,1422,l),
(948,1264,l)
);
}
);
};
layerId = master01;
shapes = (
{
closed = 1;
nodes = (
(474,0,l,{
name = dh03;
}),
(316,0,l,{
name = dh04;
}),
(786,1264,l,{
name = dh02;
}),
(158,1264,l,{
name = ah01;
}),
(158,1422,l,{
name = at01;
}),
(948,1422,l),
(948,1264,l,{
name = dh01;
})
);
}
);
userData = {
com.fontlab.ttcommands = (
{
code = alignt;
point = at01;
zone = "t: 3";
},
{
code = alignb;
point = dh04;
zone = "b: 0";
},
{
align = double;
code = singlev;
point1 = at01;
point2 = ah01;
stem = "158";
},
{
align = round;
code = alignh;
point = ah01;
},
{
code = doubleh;
point1 = dh01;
point2 = dh02;
stem = "158";
},
{
code = doubleh;
point1 = dh03;
point2 = dh04;
stem = "158";
}
);
};
width = 1103;
}
);
unicode = 55;
},
{
glyphname = eight;
layers = (
{
background = {
shapes = (
{
closed = 1;
nodes = (
(158,524,o),
(229,639,o),
(326,711,c),
(229,784,o),
(158,896,o),
(158,1027,cs),
(158,1246,o),
(334,1422,o),
(553,1422,cs),
(772,1422,o),
(948,1246,o),
(948,1027,cs),
(948,896,o),
(875,783,o),
(779,711,c),
(875,639,o),
(948,524,o),
(948,395,cs),
(948,176,o),
(772,0,o),
(553,0,cs),
(334,0,o),
(158,176,o),
(158,395,cs)
);
},
{
closed = 1;
nodes = (
(316,264,o),
(422,158,o),
(553,158,cs),
(684,158,o),
(790,264,o),
(790,395,cs),
(790,526,o),
(710,632,o),
(553,632,cs),
(396,632,o),
(316,526,o),
(316,395,cs)
);
},
{
closed = 1;
nodes = (
(316,896,o),
(396,790,o),
(553,790,cs),
(710,790,o),
(790,896,o),
(790,1027,cs),
(790,1158,o),
(684,1264,o),
(553,1264,cs),
(422,1264,o),
(316,1158,o),
(316,1027,cs)
);
}
);
};
layerId = master01;
shapes = (
{
closed = 1;
nodes = (
(158,443,o),
(183,534,o),
(228,615,o),
(290,684,o),
(326,711,q,{
name = mh01;
}),
(290,738,o),
(228,807,o),
(183,887,o),
(158,978,o),
(158,1027,q,{
name = dh01;
}),
(158,1109,o),
(220,1253,o),
(327,1360,o),
(471,1422,o),
(553,1422,q,{
name = at01;
}),
(635,1422,o),
(779,1360,o),
(886,1253,o),
(948,1109,o),
(948,1027,q,{
name = dh04;
}),
(948,978,o),
(922,887,o),
(877,807,o),
(815,738,o),
(779,711,q,{
name = mh02;
}),
(815,684,o),
(877,615,o),
(922,534,o),
(948,443,o),
(948,395,q,{
name = sh02;
}),
(948,313,o),
(886,169,o),
(779,62,o),
(635,0,o),
(553,0,q,{
name = ab01;
}),
(471,0,o),
(327,62,o),
(220,169,o),
(158,313,o),
(158,395,q,{
name = sh01;
})
);
},
{
closed = 1;
nodes = (
(316,346,o),
(353,260,o),
(418,195,o),
(504,158,o),
(553,158,q,{
name = sv01;
}),
(602,158,o),
(688,195,o),
(753,260,o),
(790,346,o),
(790,395,q,{
name = sh04;
}),
(790,444,o),
(760,530,o),
(701,595,o),
(612,632,o),
(553,632,q,{
name = sv02;
}),
(494,632,o),
(405,595,o),
(346,530,o),
(316,444,o),
(316,395,q,{
name = sh03;
})
);
},
{
closed = 1;
nodes = (
(316,978,o),
(346,892,o),
(405,827,o),
(494,790,o),
(553,790,q,{
name = at02;
}),
(612,790,o),
(701,827,o),
(760,892,o),
(790,978,o),
(790,1027,q,{
name = dh03;
}),
(790,1076,o),
(753,1162,o),
(688,1227,o),
(602,1264,o),
(553,1264,q,{
name = sv03;
}),
(504,1264,o),
(418,1227,o),
(353,1162,o),
(316,1076,o),
(316,1027,q,{
name = dh02;
})
);
}
);
userData = {
com.fontlab.ttcommands = (
{
code = alignt;
point = at01;
zone = "t: 3";
},
{
code = alignt;
point = at02;
zone = "t: 1";
},
{
code = alignb;
point = ab01;
zone = "b: 0";
},
{
code = mdeltav;
delta = 3;
point = mh01;
ppm1 = 12;
ppm2 = 12;
},
{
code = mdeltav;
delta = 3;
point = mh02;
ppm1 = 12;
ppm2 = 12;
},
{
align = round;
code = singlev;
point1 = ab01;
point2 = sv01;
stem = "158";
},
{
code = mdeltav;
delta = 5;
point = at02;
ppm1 = 14;
ppm2 = 14;
},
{
align = round;
code = singlev;
point1 = at02;
point2 = sv02;
stem = "158";
},
{
code = mdeltav;
delta = 4;
point = sv02;
ppm1 = 11;
ppm2 = 11;
},
{
align = round;
code = singlev;
point1 = at01;
point2 = sv03;
stem = "158";
},
{
code = doubleh;
point1 = dh01;
point2 = dh02;
stem = "158";
},
{
code = doubleh;
point1 = dh03;
point2 = dh04;
stem = "158";
},
{
align = round;
code = singleh;
point1 = dh01;
point2 = sh01;
},
{
code = mdeltah;
delta = 3;
point = mh01;
ppm1 = 11;
ppm2 = 11;
},
{
code = mdeltah;
delta = -3;
point = mh02;
ppm1 = 11;
ppm2 = 11;
},
{
align = round;
code = singleh;
point1 = dh04;
point2 = sh02;
},
{
align = round;
code = singleh;
point1 = dh02;
point2 = sh03;
},
{
align = round;
code = singleh;
point1 = dh03;
point2 = sh04;
}
);
};
width = 1103;
}
);
unicode = 56;
},
{
glyphname = nine;
layers = (
{
background = {
shapes = (
{
closed = 1;
nodes = (
(948,316,o),
(712,0,o),
(316,0,c),
(316,158,l),
(633,158,o),
(789,473,o),
(793,725,c),
(725,674,o),
(642,632,o),
(553,632,cs),
(334,632,o),
(158,808,o),
(158,1027,cs),
(158,1246,o),
(334,1422,o),
(553,1422,cs),
(772,1422,o),
(948,1264,o),
(948,948,cs),
(948,869,ls)
);
},
{
closed = 1;
nodes = (
(790,1158,o),
(684,1264,o),
(553,1264,cs),
(422,1264,o),
(316,1158,o),
(316,1027,cs),
(316,896,o),
(422,790,o),
(553,790,c),
(681,795,o),
(785,881,o),
(790,1027,c)
);
}
);
};
layerId = master01;
shapes = (
{
closed = 1;
nodes = (
(948,662,o),
(862,338,o,{
name = mh01;
}),
(699,116,o,{
name = mh02;
}),
(464,0,o,{
name = mh03;
}),
(316,0,q,{
name = ab01;
}),
(316,158,l,{
name = sh01;
}),
(395,158,o),
(527,207,o),
(632,291,o),
(711,403,o,{
name = mv01;
}),
(765,529,o),
(792,662,o),
(793,725,q),
(742,687,o),
(620,632,o),
(553,632,q,{
name = sv01;
}),
(471,632,o),
(327,694,o),
(220,801,o,{
name = mh04;
}),
(158,945,o),
(158,1027,q,{
name = dh01;
}),
(158,1109,o),
(220,1253,o),
(327,1360,o),
(471,1422,o),
(553,1422,q,{
name = at01;
}),
(635,1422,o),
(779,1363,o),
(886,1244,o),
(948,1066,o),
(948,948,q),
(948,869,l,{
name = dh04;
})
);
},
{
closed = 1;
nodes = (
(790,1076,o),
(753,1162,o,{
name = mv02;
}),
(688,1227,o),
(602,1264,o),
(553,1264,q,{
name = sv02;
}),
(504,1264,o),
(418,1227,o),
(353,1162,o,{
name = mv03;
}),
(316,1076,o),
(316,1027,q,{
name = dh02;
}),
(316,978,o),
(353,892,o,{
name = mv04;
}),
(418,827,o),
(504,790,o),
(553,790,q,{
name = at02;
}),
(601,792,o),
(686,825,o),
(750,886,o,{
name = mv05;
}),
(788,972,o),
(790,1027,q,{
name = dh03;
})
);
}
);
userData = {
com.fontlab.ttcommands = (
{
code = alignt;
point = at01;
zone = "t: 3";
},
{
code = alignt;
point = at02;
zone = "t: 1";
},
{
code = alignb;
point = ab01;
zone = "b: 0";
},
{
align = round;
code = singlev;
point1 = ab01;
point2 = sh01;
stem = "158";
},
{
code = mdeltav;
delta = -2;
point = mv01;
ppm1 = 13;
ppm2 = 13;
},
{
align = round;
code = singlev;
point1 = at02;
point2 = sv01;
stem = "158";
},
{
code = mdeltav;
delta = 3;
point = mh04;
ppm1 = 11;
ppm2 = 11;
},
{
code = mdeltav;
delta = 4;
point = mv02;
ppm1 = 14;
ppm2 = 14;
},
{
align = round;
code = singlev;
point1 = at01;
point2 = sv02;
stem = "158";
},
{
code = mdeltav;
delta = 4;
point = mv03;
ppm1 = 14;
ppm2 = 14;
},
{
code = mdeltav;
delta = -4;
point = mv04;
ppm1 = 14;
ppm2 = 14;
},
{
code = mdeltav;
delta = -5;
point = mv05;
ppm1 = 14;
ppm2 = 14;
},
{
code = doubleh;
point1 = dh01;
point2 = dh02;
stem = "158";
},
{
code = doubleh;
point1 = dh03;
point2 = dh04;
stem = "158";
},
{
code = mdeltah;
delta = -2;
point = mh01;
ppm1 = 12;
ppm2 = 12;
},
{
code = mdeltah;
delta = -5;
point = mh02;
ppm1 = 12;
ppm2 = 12;
},
{
code = mdeltah;
delta = -1;
point = mh03;
ppm1 = 11;
ppm2 = 11;
},
{
align = round;
code = singleh;
point1 = dh02;
point2 = sh01;
},
{
code = mdeltah;
delta = 3;
point = mh04;
ppm1 = 11;
ppm2 = 11;
}
);
};
width = 1103;
}
);
unicode = 57;
},
{
glyphname = colon;
layers = (
{
background = {
shapes = (
{
closed = 1;
nodes = (
(316,877,o),
(387,948,o),
(474,948,cs),
(561,948,o),
(632,877,o),
(632,790,cs),
(632,703,o),
(561,632,o),
(474,632,cs),
(387,632,o),
(316,703,o),
(316,790,cs)
);
},
{
closed = 1;
nodes = (
(316,245,o),
(387,316,o),
(474,316,cs),
(561,316,o),
(632,245,o),
(632,158,cs),
(632,71,o),
(561,0,o),
(474,0,cs),
(387,0,o),
(316,71,o),
(316,158,cs)
);
}
);
};
layerId = master01;
shapes = (
{
closed = 1;
nodes = (
(316,823,o),
(341,880,o),
(384,923,o),
(441,948,o),
(474,948,q,{
name = dv02;
}),
(507,948,o),
(564,923,o),
(607,880,o),
(632,823,o),
(632,790,q,{
name = dh02;
}),
(632,757,o),
(607,700,o),
(564,657,o),
(507,632,o),
(474,632,q,{
name = dv01;
}),
(441,632,o),
(384,657,o),
(341,700,o),
(316,757,o),
(316,790,q,{
name = dh01;
})
);
},
{
closed = 1;
nodes = (
(316,191,o),
(341,248,o),
(384,291,o),
(441,316,o),
(474,316,q,{
name = sv01;
}),
(507,316,o),
(564,291,o),
(607,248,o),
(632,191,o),
(632,158,q,{
name = sh02;
}),
(632,125,o),
(607,68,o),
(564,25,o),
(507,0,o),
(474,0,q,{
name = ab01;
}),
(441,0,o),
(384,25,o),
(341,68,o),
(316,125,o),
(316,158,q,{
name = sh01;
})
);
}
);
userData = {
com.fontlab.ttcommands = (
{
code = alignb;
point = ab01;
zone = "b: 0";
},
{
code = doublev;
point1 = dv01;
point2 = dv02;
round = true;
},
{
align = round;
code = singlev;
point1 = ab01;
point2 = sv01;
},
{
code = doubleh;
point1 = dh01;
point2 = dh02;
round = true;
},
{
align = round;
code = singleh;
point1 = dh01;
point2 = sh01;
},
{
align = round;
code = singleh;
point1 = dh02;
point2 = sh02;
}
);
};
width = 1103;
}
);
unicode = 58;
},
{
glyphname = semicolon;
layers = (
{
background = {
shapes = (
{
closed = 1;
nodes = (
(316,877,o),
(387,948,o),
(474,948,cs),
(561,948,o),
(632,877,o),
(632,790,cs),
(632,703,o),
(561,632,o),
(474,632,cs),
(387,632,o),
(316,703,o),
(316,790,cs)
);
},
{
closed = 1;
nodes = (
(351,-316,o),
(316,-281,o),
(316,-237,cs),
(316,-193,o),
(351,-158,o),
(395,-158,cs),
(473,-158,o),
(474,-103,o),
(474,-7,c),
(474,0,l),
(387,0,o),
(316,71,o),
(316,158,cs),
(316,245,o),
(387,316,o),
(474,316,cs),
(561,316,o),
(632,245,o),
(632,158,cs),
(632,0,ls),
(632,-158,o),
(552,-316,o),
(395,-316,cs)
);
}
);
};
layerId = master01;
shapes = (
{
closed = 1;
nodes = (
(316,823,o),
(341,880,o),
(384,923,o),
(441,948,o),
(474,948,q,{
name = dv01;
}),
(507,948,o),
(564,923,o),
(607,880,o),
(632,823,o),
(632,790,q,{
name = dh02;
}),
(632,757,o),
(607,700,o),
(564,657,o),
(507,632,o),
(474,632,q,{
name = dv02;
}),
(441,632,o),
(384,657,o),
(341,700,o),
(316,757,o),
(316,790,q,{
name = dh01;
})
);
},
{
closed = 1;
nodes = (
(362,-316,o),
(316,-270,o),
(316,-237,q,{
name = sh02;
}),
(316,-204,o),
(362,-158,o),
(395,-158,q,{
name = sv01;
}),
(424,-158,o),
(456,-138,o),
(471,-99,o),
(474,-43,o),
(474,-7,q,{
name = ab01;
}),
(474,0,l),
(441,0,o),
(384,25,o),
(341,68,o),
(316,125,o),
(316,158,q,{
name = sh01;
}),
(316,191,o),
(341,248,o),
(384,291,o),
(441,316,o),
(474,316,q,{
name = sv03;
}),
(507,316,o),
(564,291,o),
(607,248,o),
(632,191,o),
(632,158,q,{
name = sh03;
}),
(632,0,l),
(632,-59,o),
(602,-173,o),
(543,-262,o),
(454,-316,o),
(395,-316,q,{
name = sv02;
})
);
}
);
userData = {
com.fontlab.ttcommands = (
{
code = alignb;
point = ab01;
zone = "b: 0";
},
{
code = doublev;
point1 = dv01;
point2 = dv02;
round = true;
},
{
align = round;
code = singlev;
point1 = ab01;
point2 = sv01;
},
{
align = round;
code = singlev;
point1 = sv01;
point2 = sv02;
stem = "158";
},
{
align = round;
code = singlev;
point1 = ab01;
point2 = sv03;
},
{
code = doubleh;
point1 = dh01;
point2 = dh02;
},
{
align = round;
code = singleh;
point1 = dh01;
point2 = sh01;
},
{
align = round;
code = singleh;
point1 = sh01;
point2 = sh02;
},
{
align = round;
code = singleh;
point1 = dh02;
point2 = sh03;
}
);
};
width = 1103;
}
);
unicode = 59;
},
{
glyphname = less;
layers = (
{
layerId = master01;
shapes = (
{
closed = 1;
nodes = (
(147,654,l),
(107,710,l),
(147,768,l),
(643,1264,l),
(757,1150,l),
(318,711,l),
(757,272,l),
(643,158,l)
);
}
);
width = 1103;
}
);
unicode = 60;
},
{
glyphname = equal;
layers = (
{
background = {
shapes = (
{
closed = 1;
nodes = (
(0,632,l),
(948,632,l),
(948,474,l),
(0,474,l)
);
},
{
closed = 1;
nodes = (
(0,948,l),
(948,948,l),
(948,790,l),
(0,790,l)
);
}
);
};
layerId = master01;
shapes = (
{
closed = 1;
nodes = (
(0,632,l,{
name = sh01;
}),
(948,632,l,{
name = sh02;
}),
(948,474,l),
(0,474,l,{
name = sv01;
})
);
},
{
closed = 1;
nodes = (
(0,948,l,{
name = sv02;
}),
(948,948,l),
(948,790,l,{
name = ah02;
}),
(0,790,l,{
name = ah01;
})
);
}
);
userData = {
com.fontlab.ttcommands = (
{
code = doublev;
point1 = ah01;
point2 = sh01;
round = true;
},
{
align = round;
code = singlev;
point1 = sh01;
point2 = sv01;
stem = "158";
},
{
align = round;
code = singlev;
point1 = ah01;
point2 = sv02;
stem = "158";
},
{
align = round;
code = alignh;
point = ah01;
},
{
align = round;
code = alignh;
point = ah02;
},
{
align = left;
code = singleh;
point1 = ah01;
point2 = sh01;
},
{
align = right;
code = singleh;
point1 = ah02;
point2 = sh02;
}
);
};
width = 1103;
}
);
unicode = 61;
},
{
glyphname = greater;
layers = (
{
layerId = master01;
shapes = (
{
closed = 1;
nodes = (
(599,711,l),
(160,1150,l),
(274,1264,l),
(770,768,l),
(810,710,l),
(770,654,l),
(274,158,l),
(160,272,l)
);
}
);
width = 1103;
}
);
unicode = 62;
},
{
glyphname = question;
layers = (
{
background = {
shapes = (
{
closed = 1;
nodes = (
(158,1246,o),
(316,1422,o),
(553,1422,cs),
(790,1422,o),
(948,1264,o),
(948,1027,cs),
(948,869,o),
(869,811,o),
(790,751,cs),
(711,692,o),
(632,632,o),
(632,474,c),
(474,474,l),
(474,672,o),
(553,750,o),
(632,810,cs),
(711,870,o),
(790,909,o),
(790,1027,cs),
(790,1185,o),
(711,1264,o),
(553,1264,cs),
(395,1264,o),
(316,1185,o),
(316,1027,cs),
(316,948,l),
(158,948,l),
(158,1027,ls)
);
},
{
closed = 1;
nodes = (
(632,316,l),
(632,0,l),
(474,0,l),
(474,316,l)
);
}
);
};
layerId = master01;
shapes = (
{
closed = 1;
nodes = (
(158,1109,o),
(215,1253,o),
(318,1360,o),
(464,1422,o),
(553,1422,q,{
name = at01;
}),
(642,1422,o),
(788,1365,o),
(891,1262,o),
(948,1116,o),
(948,1027,q,{
name = dh03;
}),
(948,968,o),
(921,884,o),
(876,821,o),
(820,773,o),
(790,751,q),
(760,729,o),
(704,681,o),
(659,618,o),
(632,533,o),
(632,474,q,{
name = sh01;
}),
(474,474,l,{
name = sh02;
}),
(474,548,o),
(501,655,o),
(546,733,o),
(602,787,o),
(632,810,q,{
name = mv01;
}),
(662,832,o),
(718,873,o),
(763,921,o),
(790,983,o),
(790,1027,q,{
name = dh04;
}),
(790,1264,o),
(553,1264,q,{
name = sv01;
}),
(316,1264,o),
(316,1027,q),
(316,948,l,{
name = dh05;
}),
(158,948,l,{
name = dh06;
}),
(158,1027,l)
);
},
{
closed = 1;
nodes = (
(632,316,l,{
name = dh02;
}),
(632,0,l),
(474,0,l,{
name = ab01;
}),
(474,316,l,{
name = dh01;
})
);
}
);
userData = {
com.fontlab.ttcommands = (
{
code = alignt;
point = at01;
zone = "t: 3";
},
{
code = alignt;
point = sh02;
zone = "t: 0";
},
{
code = alignb;
point = ab01;
zone = "b: 0";
},
{
code = mdeltav;
delta = -3;
point = mv01;
ppm1 = 13;
ppm2 = 13;
},
{
align = round;
code = singlev;
point1 = at01;
point2 = sv01;
stem = "158";
},
{
align = round;
code = singlev;
point1 = sv01;
point2 = dh05;
stem = "158";
},
{
align = round;
code = singlev;
point1 = sh02;
point2 = dh01;
},
{
code = doubleh;
point1 = dh01;
point2 = dh02;
stem = "158";
},
{
code = doubleh;
point1 = dh03;
point2 = dh04;
stem = "158";
},
{
code = doubleh;
point1 = dh05;
point2 = dh06;
stem = "158";
},
{
align = round;
code = singleh;
point1 = dh02;
point2 = sh01;
},
{
align = round;
code = singleh;
point1 = dh01;
point2 = sh02;
}
);
};
width = 1103;
}
);
unicode = 63;
},
{
glyphname = at;
layers = (
{
background = {
shapes = (
{
closed = 1;
nodes = (
(237,-316,o),
(0,-79,o),
(0,158,cs),
(0,948,ls),
(0,1185,o),
(237,1422,o),
(474,1422,cs),
(711,1422,o),
(948,1185,o),
(948,948,cs),
(948,158,l),
(632,158,ls),
(409,158,o),
(316,364,o),
(316,553,cs),
(316,755,o),
(419,948,o),
(632,948,cs),
(790,948,l),
(790,1106,o),
(632,1264,o),
(474,1264,cs),
(316,1264,o),
(158,1106,o),
(158,948,cs),
(158,158,ls),
(158,0,o),
(316,-158,o),
(474,-158,cs),
(790,-158,l),
(790,-316,l),
(474,-316,ls)
);
},
{
closed = 1;
nodes = (
(790,790,l),
(632,790,ls),
(553,790,o),
(474,710,o),
(474,553,cs),
(474,396,o),
(553,316,o),
(632,316,cs),
(790,316,l)
);
}
);
};
layerId = master01;
shapes = (
{
closed = 1;
nodes = (
(385,-158,o),
(215,-77,o),
(81,57,o),
(0,227,o),
(0,316,q),
(0,1106,l,{
name = ah01;
}),
(0,1195,o),
(81,1365,o),
(215,1499,o),
(385,1580,o),
(474,1580,q,{
name = sv02;
}),
(563,1580,o),
(733,1499,o),
(867,1365,o),
(948,1195,o),
(948,1106,q,{
name = dh02;
}),
(948,316,l),
(632,316,l,{
name = sv03;
}),
(548,316,o),
(429,386,o),
(352,499,o),
(316,640,o),
(316,711,q,{
name = dh03;
}),
(316,787,o),
(355,929,o),
(433,1039,o),
(552,1106,o),
(632,1106,q,{
name = at02;
}),
(790,1106,l,{
name = dh01;
}),
(790,1165,o),
(736,1279,o,{
name = mv01;
}),
(647,1368,o),
(533,1422,o),
(474,1422,q,{
name = at01;
}),
(415,1422,o),
(301,1368,o),
(212,1279,o,{
name = mv02;
}),
(158,1165,o),
(158,1106,q,{
name = sh01;
}),
(158,316,l),
(158,257,o),
(212,143,o,{
name = mv03;
}),
(301,54,o),
(415,0,o),
(474,0,q,{
name = ab01;
}),
(790,0,l,{
name = sh02;
}),
(790,-158,l),
(474,-158,l,{
name = sv01;
})
);
},
{
closed = 1;
nodes = (
(790,948,l,{
name = sh03;
}),
(632,948,l,{
name = sv04;
}),
(602,948,o),
(546,918,o),
(501,859,o),
(474,770,o),
(474,711,q,{
name = dh04;
}),
(474,652,o),
(501,563,o),
(546,504,o),
(602,474,o),
(632,474,q,{
name = at03;
}),
(790,474,l)
);
}
);
userData = {
com.fontlab.ttcommands = (
{
code = alignt;
point = at01;
zone = "t: 3";
},
{
code = alignt;
point = at02;
zone = "t: 2";
},
{
code = alignt;
point = at03;
zone = "t: 0";
},
{
code = alignb;
point = ab01;
zone = "b: 0";
},
{
align = round;
code = singlev;
point1 = ab01;
point2 = sv01;
stem = "158";
},
{
align = round;
code = singlev;
point1 = at01;
point2 = sv02;
stem = "158";
},
{
align = round;
code = singlev;
point1 = at03;
point2 = sv03;
stem = "158";
},
{
code = mdeltav;
delta = 4;
point = mv01;
ppm1 = 13;
ppm2 = 13;
},
{
code = mdeltav;
delta = 4;
point = mv02;
ppm1 = 13;
ppm2 = 13;
},
{
code = mdeltav;
delta = -4;
point = mv03;
ppm1 = 13;
ppm2 = 13;
},
{
align = round;
code = singlev;
point1 = at02;
point2 = sv04;
stem = "158";
},
{
align = round;
code = alignh;
point = ah01;
},
{
code = doubleh;
point1 = dh01;
point2 = dh02;
stem = "158";
},
{
code = doubleh;
point1 = dh03;
point2 = dh04;
stem = "158";
},
{
align = round;
code = singleh;
point1 = ah01;
point2 = sh01;
stem = "158";
},
{
align = round;
code = singleh;
point1 = dh01;
point2 = sh02;
},
{
align = round;
code = singleh;
point1 = dh01;
point2 = sh03;
}
);
};
width = 1103;
}
);
unicode = 64;
},
{
glyphname = A;
layers = (
{
background = {
shapes = (
{
closed = 1;
nodes = (
(316,0,l),
(316,632,l),
(790,632,l),
(790,0,l),
(948,0,l),
(948,1027,ls),
(948,1246,o),
(772,1422,o),
(553,1422,cs),
(334,1422,o),
(158,1246,o),
(158,1027,cs),
(158,0,l)
);
},
{
closed = 1;
nodes = (
(316,1027,ls),
(316,1158,o),
(422,1264,o),
(553,1264,cs),
(684,1264,o),
(790,1158,o),
(790,1027,cs),
(790,790,l),
(316,790,l)
);
}
);
};
layerId = master01;
shapes = (
{
closed = 1;
nodes = (
(158,1109,o),
(220,1253,o),
(327,1360,o),
(471,1422,o),
(553,1422,q,{
name = at01;
}),
(635,1422,o),
(779,1360,o),
(886,1253,o),
(948,1109,o),
(948,1027,q),
(948,0,l,{
name = dh04;
}),
(790,0,l,{
name = dh03;
}),
(790,632,l),
(316,632,l,{
name = sv01;
}),
(316,0,l,{
name = dh02;
}),
(158,0,l,{
name = dh01;
}),
(158,1027,l)
);
},
{
closed = 1;
nodes = (
(790,1027,l),
(790,1076,o),
(753,1162,o,{
name = mv01;
}),
(688,1227,o),
(602,1264,o),
(553,1264,q,{
name = sv02;
}),
(504,1264,o),
(418,1227,o),
(353,1162,o,{
name = mv02;
}),
(316,1076,o),
(316,1027,q),
(316,790,l,{
name = sh02;
}),
(790,790,l,{
name = sh01;
})
);
}
);
userData = {
com.fontlab.ttcommands = (
{
code = alignt;
point = at01;
zone = "t: 3";
},
{
code = alignt;
point = sh02;
zone = "t: 1";
},
{
code = alignb;
point = dh02;
zone = "b: 0";
},
{
align = round;
code = singlev;
point1 = dh02;
point2 = dh03;
},
{
align = round;
code = singlev;
point1 = sh02;
point2 = sv01;
stem = "158";
},
{
code = mdeltav;
delta = 3;
point = mv01;
ppm1 = 14;
ppm2 = 14;
},
{
align = round;
code = singlev;
point1 = at01;
point2 = sv02;
stem = "158";
},
{
code = mdeltav;
delta = 3;
point = mv02;
ppm1 = 14;
ppm2 = 14;
},
{
code = doubleh;
point1 = dh01;
point2 = dh02;
stem = "158";
},
{
code = doubleh;
point1 = dh03;
point2 = dh04;
stem = "158";
},
{
align = round;
code = singleh;
point1 = dh03;
point2 = sh01;
},
{
align = round;
code = singleh;
point1 = dh02;
point2 = sh02;
}
);
};
width = 1103;
}
);
unicode = 65;
},
{
glyphname = B;
layers = (
{
background = {
shapes = (
{
closed = 1;
nodes = (
(553,1422,ls),
(772,1422,o),
(948,1246,o),
(948,1027,cs),
(948,896,o),
(885,783,o),
(789,711,c),
(885,639,o),
(948,524,o),
(948,395,cs),
(948,176,o),
(772,0,o),
(553,0,cs),
(158,0,l),
(158,1422,l)
);
},
{
closed = 1;
nodes = (
(684,790,o),
(790,896,o),
(790,1027,cs),
(790,1158,o),
(684,1264,o),
(553,1264,cs),
(316,1264,l),
(316,790,l),
(553,790,ls)
);
},
{
closed = 1;
nodes = (
(684,158,o),
(790,264,o),
(790,395,cs),
(790,526,o),
(684,632,o),
(553,632,cs),
(316,632,l),
(316,158,l),
(553,158,ls)
);
}
);
};
layerId = master01;
shapes = (
{
closed = 1;
nodes = (
(553,1422,l,{
name = at01;
}),
(635,1422,o),
(779,1360,o),
(886,1253,o),
(948,1109,o),
(948,1027,q,{
name = dh04;
}),
(948,928,o),
(861,765,o,{
name = mh01;
}),
(789,711,q,{
name = mv01;
}),
(861,657,o),
(948,492,o),
(948,395,q,{
name = sh01;
}),
(948,313,o),
(886,169,o),
(779,62,o),
(635,0,o),
(553,0,q,{
name = ab01;
}),
(158,0,l),
(158,1422,l,{
name = dh02;
})
);
},
{
closed = 1;
nodes = (
(602,790,o),
(688,827,o),
(753,892,o),
(790,978,o),
(790,1027,q,{
name = dh03;
}),
(790,1076,o),
(753,1162,o),
(688,1227,o,{
name = mv02;
}),
(602,1264,o),
(553,1264,q,{
name = sv01;
}),
(316,1264,l,{
name = dh01;
}),
(316,790,l),
(553,790,l,{
name = at02;
})
);
},
{
closed = 1;
nodes = (
(602,158,o),
(688,195,o),
(753,260,o),
(790,346,o),
(790,395,q,{
name = sh02;
}),
(790,444,o),
(753,530,o),
(688,595,o),
(602,632,o),
(553,632,q,{
name = mh02;
}),
(316,632,l,{
name = sh03;
}),
(316,158,l),
(553,158,l,{
name = sv02;
})
);
}
);
userData = {
com.fontlab.ttcommands = (
{
code = alignt;
point = at01;
zone = "t: 3";
},
{
code = alignt;
point = at02;
zone = "t: 1";
},
{
code = alignb;
point = ab01;
zone = "b: 0";
},
{
code = mdeltav;
delta = 3;
point = mh01;
ppm1 = 11;
ppm2 = 11;
},
{
code = mdeltav;
delta = 4;
point = mv01;
ppm1 = 14;
ppm2 = 14;
},
{
code = mdeltav;
delta = 5;
point = at02;
ppm1 = 14;
ppm2 = 14;
},
{
code = mdeltav;
delta = 4;
point = at02;
ppm1 = 9;
ppm2 = 9;
},
{
code = mdeltav;
delta = 3;
point = mv02;
ppm1 = 14;
ppm2 = 14;
},
{
align = round;
code = singlev;
point1 = at01;
point2 = sv01;
stem = "158";
},
{
align = round;
code = singlev;
point1 = ab01;
point2 = sv02;
stem = "158";
},
{
align = round;
code = singlev;
point1 = at02;
point2 = mh02;
stem = "158";
},
{
code = mdeltav;
delta = 3;
point = mh02;
ppm1 = 9;
ppm2 = 9;
},
{
code = doubleh;
point1 = dh01;
point2 = dh02;
stem = "158";
},
{
code = doubleh;
point1 = dh03;
point2 = dh04;
stem = "158";
},
{
code = mdeltah;
delta = -3;
point = mh01;
ppm1 = 11;
ppm2 = 11;
},
{
align = round;
code = singleh;
point1 = dh04;
point2 = sh01;
},
{
align = round;
code = singleh;
point1 = dh03;
point2 = sh02;
},
{
code = mdeltah;
delta = 8;
point = mh02;
ppm1 = 14;
ppm2 = 14;
},
{
code = mdeltah;
delta = 4;
point = mh02;
ppm1 = 11;
ppm2 = 11;
},
{
align = round;
code = singleh;
point1 = dh01;
point2 = sh03;
},
{
code = fdeltah;
delta = -7;
point = mh01;
ppm1 = 9;
ppm2 = 9;
},
{
code = fdeltah;
delta = -4;
point = mh01;
ppm1 = 12;
ppm2 = 12;
}
);
};
width = 1103;
}
);
unicode = 66;
},
{
glyphname = C;
layers = (
{
background = {
shapes = (
{
closed = 1;
nodes = (
(420,1264,o),
(316,1158,o),
(316,1027,cs),
(316,395,ls),
(316,264,o),
(420,158,o),
(556,158,cs),
(667,158,o),
(758,223,o),
(790,316,c),
(948,316,l),
(911,135,o),
(755,0,o),
(556,0,cs),
(332,0,o),
(158,176,o),
(158,395,cs),
(158,1027,ls),
(158,1246,o),
(332,1422,o),
(556,1422,cs),
(756,1422,o),
(910,1286,o),
(948,1106,c),
(790,1106,l),
(758,1197,o),
(668,1264,o),
(556,1264,cs)
);
}
);
};
layerId = master01;
shapes = (
{
closed = 1;
nodes = (
(505,1264,o),
(417,1227,o),
(353,1162,o),
(316,1076,o),
(316,1027,q,{
name = dh03;
}),
(316,395,l),
(316,346,o),
(353,260,o),
(417,195,o),
(505,158,o),
(556,158,q,{
name = sv02;
}),
(598,158,o),
(672,181,o),
(733,223,o),
(778,281,o),
(790,316,q,{
name = sh01;
}),
(948,316,l,{
name = sh02;
}),
(934,248,o),
(864,132,o),
(761,48,o),
(631,0,o),
(556,0,q,{
name = ab01;
}),
(472,0,o),
(327,62,o),
(219,169,o),
(158,313,o),
(158,395,q),
(158,1027,l,{
name = dh04;
}),
(158,1109,o),
(219,1253,o),
(327,1360,o),
(472,1422,o),
(556,1422,q,{
name = at01;
}),
(631,1422,o),
(762,1374,o),
(864,1289,o),
(934,1173,o),
(948,1106,q,{
name = dh01;
}),
(790,1106,l,{
name = dh02;
}),
(778,1140,o),
(733,1198,o),
(673,1240,o),
(598,1264,o),
(556,1264,q,{
name = sv01;
})
);
}
);
userData = {
com.fontlab.ttcommands = (
{
code = alignt;
point = at01;
zone = "t: 3";
},
{
code = alignb;
point = ab01;
zone = "b: 0";
},
{
align = round;
code = singlev;
point1 = at01;
point2 = sv01;
stem = "158";
},
{
align = round;
code = singlev;
point1 = ab01;
point2 = sv02;
stem = "158";
},
{
align = round;
code = singlev;
point1 = sv02;
point2 = sh01;
},
{
align = round;
code = singlev;
point1 = sv01;
point2 = dh02;
},
{
code = doubleh;
point1 = dh01;
point2 = dh02;
stem = "158";
},
{
code = doubleh;
point1 = dh03;
point2 = dh04;
stem = "158";
},
{
align = round;
code = singleh;
point1 = dh02;
point2 = sh01;
},
{
align = round;
code = singleh;
point1 = dh01;
point2 = sh02;
}
);
};
width = 1103;
}
);
unicode = 67;
},
{
glyphname = D;
layers = (
{
background = {
shapes = (
{
closed = 1;
nodes = (
(553,0,ls),
(773,0,o),
(948,255,o),
(948,474,cs),
(948,948,ls),
(948,1167,o),
(773,1422,o),
(553,1422,cs),
(158,1422,l),
(158,0,l)
);
},
{
closed = 1;
nodes = (
(316,1264,l),
(553,1264,ls),
(684,1264,o),
(790,1079,o),
(790,948,cs),
(790,474,ls),
(790,343,o),
(684,158,o),
(553,158,cs),
(316,158,l)
);
}
);
};
layerId = master01;
shapes = (
{
closed = 1;
nodes = (
(553,1422,l,{
name = mh01;
}),
(608,1422,o),
(709,1382,o),
(797,1313,o),
(869,1221,o),
(920,1116,o),
(948,1003,o),
(948,948,q,{
name = dh04;
}),
(948,474,l),
(948,419,o),
(920,306,o),
(869,201,o),
(797,109,o),
(709,40,o),
(608,0,o),
(553,0,q,{
name = mh02;
}),
(158,0,l),
(158,1422,l,{
name = dh01;
})
);
},
{
closed = 1;
nodes = (
(602,158,o),
(688,220,o),
(753,314,o),
(790,425,o),
(790,474,q),
(790,948,l,{
name = dh03;
}),
(790,997,o),
(753,1108,o),
(688,1202,o),
(602,1264,o),
(553,1264,q,{
name = mh04;
}),
(316,1264,l,{
name = dh02;
}),
(316,158,l),
(553,158,l,{
name = mh03;
})
);
}
);
userData = {
com.fontlab.ttcommands = (
{
code = alignt;
point = mh01;
zone = "t: 3";
},
{
code = alignb;
point = mh02;
zone = "b: 0";
},
{
align = round;
code = singlev;
point1 = mh02;
point2 = mh03;
stem = "158";
},
{
align = round;
code = singlev;
point1 = mh01;
point2 = mh04;
stem = "158";
},
{
code = doubleh;
point1 = dh01;
point2 = dh02;
stem = "158";
},
{
code = doubleh;
point1 = dh03;
point2 = dh04;
stem = "158";
},
{
code = mdeltah;
delta = -7;
point = mh01;
ppm1 = 13;
ppm2 = 13;
},
{
code = mdeltah;
delta = -7;
point = mh02;
ppm1 = 13;
ppm2 = 13;
},
{
code = mdeltah;
delta = 4;
point = mh03;
ppm1 = 12;
ppm2 = 12;
},
{
code = mdeltah;
delta = 4;
point = mh04;
ppm1 = 12;
ppm2 = 12;
}
);
};
width = 1103;
}
);
unicode = 68;
},
{
glyphname = E;
layers = (
{
background = {
shapes = (
{
closed = 1;
nodes = (
(948,1422,l),
(948,1264,l),
(316,1264,l),
(316,790,l),
(790,790,l),
(790,632,l),
(316,632,l),
(316,158,l),
(948,158,l),
(948,0,l),
(158,0,l),
(158,1422,l)
);
}
);
};
layerId = master01;
shapes = (
{
closed = 1;
nodes = (
(948,1422,l,{
name = at01;
}),
(948,1264,l,{
name = ah01;
}),
(316,1264,l,{
name = dh02;
}),
(316,790,l),
(790,790,l,{
name = ah02;
}),
(790,632,l,{
name = sv01;
}),
(316,632,l,{
name = sh01;
}),
(316,158,l),
(948,158,l,{
name = sh02;
}),
(948,0,l,{
name = ab01;
}),
(158,0,l),
(158,1422,l,{
name = dh01;
})
);
}
);
userData = {
com.fontlab.ttcommands = (
{
code = alignt;
point = at01;
zone = "t: 3";
},
{
code = alignt;
point = ah02;
zone = "t: 1";
},
{
code = alignb;
point = ab01;
zone = "b: 0";
},
{
align = right;
code = singlev;
point1 = at01;
point2 = ah01;
stem = "158";
},
{
code = mdeltav;
delta = 7;
point = ah02;
ppm1 = 14;
ppm2 = 14;
},
{
align = round;
code = singlev;
point1 = ah02;
point2 = sv01;
stem = "158";
},
{
align = round;
code = singlev;
point1 = ab01;
point2 = sh02;
stem = "158";
},
{
align = round;
code = alignh;
point = ah01;
},
{
align = round;
code = alignh;
point = ah02;
},
{
code = doubleh;
point1 = dh01;
point2 = dh02;
stem = "158";
},
{
align = round;
code = singleh;
point1 = dh02;
point2 = sh01;
},
{
align = round;
code = singleh;
point1 = ah01;
point2 = sh02;
}
);
};
width = 1103;
}
);
unicode = 69;
},
{
glyphname = F;
layers = (
{
background = {
shapes = (
{
closed = 1;
nodes = (
(948,1422,l),
(948,1264,l),
(316,1264,l),
(316,790,l),
(790,790,l),
(790,632,l),
(316,632,l),
(316,0,l),
(158,0,l),
(158,1422,l)
);
}
);
};
layerId = master01;
shapes = (
{
closed = 1;
nodes = (
(948,1422,l,{
name = at01;
}),
(948,1264,l,{
name = ah01;
}),
(316,1264,l,{
name = dh02;
}),
(316,790,l),
(790,790,l,{
name = ah02;
}),
(790,632,l,{
name = sv01;
}),
(316,632,l,{
name = sh01;
}),
(316,0,l,{
name = ab01;
}),
(158,0,l),
(158,1422,l,{
name = dh01;
})
);
}
);
userData = {
com.fontlab.ttcommands = (
{
code = alignt;
point = at01;
zone = "t: 3";
},
{
code = alignt;
point = ah02;
zone = "t: 1";
},
{
code = alignb;
point = ab01;
zone = "b: 0";
},
{
align = right;
code = singlev;
point1 = at01;
point2 = ah01;
stem = "158";
},
{
code = mdeltav;
delta = 5;
point = ah02;
ppm1 = 14;
ppm2 = 14;
},
{
align = round;
code = singlev;
point1 = ah02;
point2 = sv01;
stem = "158";
},
{
align = round;
code = alignh;
point = ah01;
},
{
align = round;
code = alignh;
point = ah02;
},
{
code = doubleh;
point1 = dh01;
point2 = dh02;
stem = "158";
},
{
align = round;
code = singleh;
point1 = dh02;
point2 = sh01;
}
);
};
width = 1103;
}
);
unicode = 70;
},
{
glyphname = G;
layers = (
{
background = {
shapes = (
{
closed = 1;
nodes = (
(790,79,o),
(642,0,o),
(553,0,cs),
(334,0,o),
(158,176,o),
(158,395,cs),
(158,1027,ls),
(158,1246,o),
(334,1422,o),
(553,1422,cs),
(744,1422,o),
(902,1286,o),
(940,1106,c),
(776,1106,l),
(744,1197,o),
(656,1264,o),
(553,1264,cs),
(422,1264,o),
(316,1158,o),
(316,1027,cs),
(316,395,ls),
(316,264,o),
(422,158,o),
(553,158,cs),
(681,158,o),
(790,316,o),
(790,395,cs),
(790,632,l),
(632,632,l),
(632,790,l),
(948,790,l),
(948,0,l),
(790,0,l),
(790,158,l)
);
}
);
};
layerId = master01;
shapes = (
{
closed = 1;
nodes = (
(790,128,o),
(741,72,o),
(669,27,o),
(586,0,o),
(553,0,q,{
name = ab01;
}),
(471,0,o),
(327,62,o),
(220,169,o),
(158,313,o),
(158,395,q),
(158,1027,l,{
name = dh01;
}),
(158,1109,o),
(220,1253,o),
(327,1360,o),
(471,1422,o),
(553,1422,q,{
name = at01;
}),
(625,1422,o),
(753,1374,o),
(855,1289,o),
(926,1173,o),
(940,1106,q,{
name = ah01;
}),
(776,1106,l,{
name = sh01;
}),
(764,1140,o),
(720,1198,o),
(662,1240,o),
(592,1264,o),
(553,1264,q,{
name = sv01;
}),
(504,1264,o),
(418,1227,o),
(353,1162,o),
(316,1076,o),
(316,1027,q,{
name = dh02;
}),
(316,395,l),
(316,346,o),
(353,260,o),
(418,195,o),
(504,158,o),
(553,158,q,{
name = sv02;
}),
(601,158,o),
(687,210,o),
(752,284,o),
(790,365,o),
(790,395,q),
(790,632,l,{
name = dh03;
}),
(632,632,l,{
name = sv03;
}),
(632,790,l,{
name = sh02;
}),
(948,790,l,{
name = dh04;
}),
(948,0,l),
(790,0,l,{
name = sh03;
}),
(790,158,l,{
name = mv01;
})
);
}
);
userData = {
com.fontlab.ttcommands = (
{
code = alignt;
point = at01;
zone = "t: 3";
},
{
code = alignt;
point = sh02;
zone = "t: 1";
},
{
code = alignb;
point = ab01;
zone = "b: 0";
},
{
code = mdeltav;
delta = 5;
point = mv01;
ppm1 = 14;
ppm2 = 14;
},
{
align = round;
code = singlev;
point1 = at01;
point2 = sv01;
stem = "158";
},
{
align = round;
code = singlev;
point1 = sv01;
point2 = sh01;
},
{
align = round;
code = singlev;
point1 = ab01;
point2 = sv02;
stem = "158";
},
{
code = mdeltav;
delta = 5;
point = sh02;
ppm1 = 14;
ppm2 = 14;
},
{
align = round;
code = singlev;
point1 = sh02;
point2 = sv03;
stem = "158";
},
{
align = round;
code = singlev;
point1 = ab01;
point2 = sh03;
},
{
align = round;
code = alignh;
point = ah01;
},
{
code = doubleh;
point1 = dh01;
point2 = dh02;
stem = "158";
},
{
code = doubleh;
point1 = dh03;
point2 = dh04;
stem = "158";
},
{
align = round;
code = singleh;
point1 = ah01;
point2 = sh01;
stem = "158";
},
{
align = round;
code = singleh;
point1 = dh02;
point2 = sh02;
stem = "158";
},
{
align = round;
code = singleh;
point1 = dh03;
point2 = sh03;
}
);
};
width = 1103;
}
);
unicode = 71;
},
{
glyphname = H;
layers = (
{
background = {
shapes = (
{
closed = 1;
nodes = (
(316,1422,l),
(316,790,l),
(790,790,l),
(790,1422,l),
(948,1422,l),
(948,0,l),
(790,0,l),
(790,632,l),
(316,632,l),
(316,0,l),
(158,0,l),
(158,1422,l)
);
}
);
};
layerId = master01;
shapes = (
{
closed = 1;
nodes = (
(316,1422,l,{
name = dh02;
}),
(316,790,l,{
name = at01;
}),
(790,790,l),
(790,1422,l,{
name = dh04;
}),
(948,1422,l,{
name = dh03;
}),
(948,0,l),
(790,0,l,{
name = sv01;
}),
(790,632,l,{
name = sh01;
}),
(316,632,l,{
name = sh02;
}),
(316,0,l),
(158,0,l,{
name = ab01;
}),
(158,1422,l,{
name = dh01;
})
);
}
);
userData = {
com.fontlab.ttcommands = (
{
code = alignt;
point = at01;
zone = "t: 1";
},
{
code = alignt;
point = dh01;
zone = "t: 3";
},
{
code = alignb;
point = ab01;
zone = "b: 0";
},
{
code = mdeltav;
delta = 5;
point = at01;
ppm1 = 14;
ppm2 = 14;
},
{
align = double;
code = singlev;
point1 = dh01;
point2 = dh04;
},
{
align = round;
code = singlev;
point1 = ab01;
point2 = sv01;
},
{
align = round;
code = singlev;
point1 = at01;
point2 = sh02;
stem = "158";
},
{
code = doubleh;
point1 = dh01;
point2 = dh02;
stem = "158";
},
{
code = doubleh;
point1 = dh03;
point2 = dh04;
stem = "158";
},
{
align = round;
code = singleh;
point1 = dh04;
point2 = sh01;
},
{
align = round;
code = singleh;
point1 = dh02;
point2 = sh02;
}
);
};
width = 1103;
}
);
unicode = 72;
},
{
glyphname = I;
layers = (
{
background = {
shapes = (
{
closed = 1;
nodes = (
(474,158,l),
(474,1264,l),
(158,1264,l),
(158,1422,l),
(948,1422,l),
(948,1264,l),
(632,1264,l),
(632,158,l),
(948,158,l),
(948,0,l),
(158,0,l),
(158,158,l)
);
}
);
};
layerId = master01;
shapes = (
{
closed = 1;
nodes = (
(474,158,l),
(474,1264,l,{
name = dh01;
}),
(158,1264,l,{
name = sh01;
}),
(158,1422,l,{
name = at01;
}),
(948,1422,l),
(948,1264,l,{
name = sh03;
}),
(632,1264,l,{
name = dh02;
}),
(632,158,l,{
name = sv01;
}),
(948,158,l,{
name = sh04;
}),
(948,0,l),
(158,0,l,{
name = ab01;
}),
(158,158,l,{
name = sh02;
})
);
}
);
userData = {
com.fontlab.ttcommands = (
{
code = alignt;
point = at01;
zone = "t: 3";
},
{
code = alignb;
point = ab01;
zone = "b: 0";
},
{
align = round;
code = singlev;
point1 = ab01;
point2 = sh02;
stem = "158";
},
{
align = center;
code = singlev;
point1 = at01;
point2 = sh01;
stem = "158";
},
{
align = round;
code = singlev;
point1 = sh01;
point2 = dh02;
},
{
align = round;
code = singlev;
point1 = sh02;
point2 = sv01;
},
{
code = doubleh;
point1 = dh01;
point2 = dh02;
stem = "158";
},
{
align = center;
code = singleh;
point1 = dh01;
point2 = sh01;
},
{
align = round;
code = singleh;
point1 = sh01;
point2 = sh02;
},
{
align = round;
code = singleh;
point1 = dh02;
point2 = sh03;
},
{
align = round;
code = singleh;
point1 = sh03;
point2 = sh04;
}
);
};
width = 1103;
}
);
unicode = 73;
},
{
glyphname = J;
layers = (
{
background = {
shapes = (
{
closed = 1;
nodes = (
(316,474,l),
(316,395,ls),
(316,264,o),
(422,158,o),
(553,158,cs),
(684,158,o),
(790,264,o),
(790,395,cs),
(790,1422,l),
(948,1422,l),
(948,395,ls),
(948,176,o),
(772,0,o),
(553,0,cs),
(334,0,o),
(158,176,o),
(158,395,cs),
(158,474,l)
);
}
);
};
layerId = master01;
shapes = (
{
closed = 1;
nodes = (
(316,474,l,{
name = dh04;
}),
(316,395,l),
(316,346,o),
(353,260,o),
(418,195,o),
(504,158,o),
(553,158,q,{
name = sv01;
}),
(602,158,o),
(688,195,o),
(753,260,o),
(790,346,o),
(790,395,q),
(790,1422,l,{
name = dh01;
}),
(948,1422,l,{
name = dh02;
}),
(948,395,l),
(948,313,o),
(886,169,o),
(779,62,o),
(635,0,o),
(553,0,q,{
name = ab01;
}),
(471,0,o),
(327,62,o),
(220,169,o),
(158,313,o),
(158,395,q),
(158,474,l,{
name = dh03;
})
);
}
);
userData = {
com.fontlab.ttcommands = (
{
code = alignt;
point = dh01;
zone = "t: 3";
},
{
code = alignt;
point = dh04;
zone = "t: 0";
},
{
code = alignb;
point = ab01;
zone = "b: 0";
},
{
align = round;
code = singlev;
point1 = ab01;
point2 = sv01;
stem = "158";
},
{
code = doubleh;
point1 = dh01;
point2 = dh02;
stem = "158";
},
{
code = doubleh;
point1 = dh03;
point2 = dh04;
stem = "158";
}
);
};
width = 1103;
}
);
unicode = 74;
},
{
glyphname = K;
layers = (
{
background = {
shapes = (
{
closed = 1;
nodes = (
(158,1422,l),
(158,0,l),
(316,0,l),
(316,666,l),
(660,159,l),
(768,0,l),
(948,0,l),
(842,160,l),
(474,711,l),
(842,1263,l),
(948,1422,l),
(770,1422,l),
(662,1265,l),
(316,761,l),
(316,1422,l)
);
}
);
};
layerId = master01;
shapes = (
{
closed = 1;
nodes = (
(662,1265,l,{
name = mh01;
}),
(770,1422,l,{
name = dh05;
}),
(948,1422,l,{
name = dh06;
}),
(842,1263,l,{
name = mh02;
}),
(474,711,l,{
name = sh02;
}),
(842,160,l,{
name = mh03;
}),
(948,0,l,{
name = dh04;
}),
(768,0,l,{
name = dh03;
}),
(660,159,l,{
name = mh04;
}),
(316,666,l,{
name = sh01;
}),
(316,0,l),
(158,0,l,{
name = ab01;
}),
(158,1422,l,{
name = dh01;
}),
(316,1422,l,{
name = dh02;
}),
(316,761,l,{
name = sh03;
})
);
}
);
userData = {
com.fontlab.ttcommands = (
{
code = alignt;
point = dh01;
zone = "t: 3";
},
{
code = alignb;
point = ab01;
zone = "b: 0";
},
{
code = mdeltav;
delta = -8;
point = mh01;
ppm1 = 9;
ppm2 = 11;
},
{
align = right;
code = singlev;
point1 = dh01;
point2 = dh05;
},
{
code = mdeltav;
delta = -8;
point = mh02;
ppm1 = 9;
ppm2 = 11;
},
{
align = round;
code = interpolatev;
point = sh02;
point1 = sh03;
point2 = sh01;
},
{
code = mdeltav;
delta = 8;
point = mh03;
ppm1 = 9;
ppm2 = 11;
},
{
align = round;
code = singlev;
point1 = ab01;
point2 = dh03;
},
{
code = mdeltav;
delta = 8;
point = mh04;
ppm1 = 9;
ppm2 = 11;
},
{
code = doubleh;
point1 = dh01;
point2 = dh02;
stem = "158";
},
{
code = doubleh;
point1 = dh03;
point2 = dh04;
stem = "158";
},
{
code = doubleh;
point1 = dh05;
point2 = dh06;
stem = "158";
},
{
align = round;
code = singleh;
point1 = dh02;
point2 = sh01;
},
{
align = round;
code = singleh;
point1 = sh01;
point2 = sh02;
stem = "158";
},
{
align = round;
code = singleh;
point1 = sh02;
point2 = sh03;
stem = "158";
},
{
code = mdeltah;
delta = 7;
point = mh01;
ppm1 = 13;
ppm2 = 13;
},
{
code = mdeltah;
delta = 5;
point = mh01;
ppm1 = 14;
ppm2 = 14;
},
{
code = mdeltah;
delta = 5;
point = mh02;
ppm1 = 13;
ppm2 = 13;
},
{
code = mdeltah;
delta = 2;
point = mh02;
ppm1 = 14;
ppm2 = 14;
},
{
code = mdeltah;
delta = 6;
point = mh03;
ppm1 = 13;
ppm2 = 13;
},
{
code = mdeltah;
delta = 2;
point = mh03;
ppm1 = 14;
ppm2 = 14;
},
{
code = mdeltah;
delta = 8;
point = mh04;
ppm1 = 13;
ppm2 = 13;
},
{
code = mdeltah;
delta = 5;
point = mh04;
ppm1 = 14;
ppm2 = 14;
}
);
};
width = 1103;
}
);
unicode = 75;
},
{
glyphname = L;
layers = (
{
background = {
shapes = (
{
closed = 1;
nodes = (
(316,1422,l),
(316,158,l),
(948,158,l),
(948,0,l),
(158,0,l),
(158,1422,l)
);
}
);
};
layerId = master01;
shapes = (
{
closed = 1;
nodes = (
(316,1422,l,{
name = dh02;
}),
(316,158,l,{
name = sv01;
}),
(948,158,l),
(948,0,l,{
name = ah01;
}),
(158,0,l),
(158,1422,l,{
name = dh01;
})
);
}
);
userData = {
com.fontlab.ttcommands = (
{
code = alignt;
point = dh01;
zone = "t: 3";
},
{
code = alignb;
point = ah01;
zone = "b: 0";
},
{
align = right;
code = singlev;
point1 = ah01;
point2 = sv01;
stem = "158";
},
{
align = round;
code = alignh;
point = ah01;
},
{
code = doubleh;
point1 = dh01;
point2 = dh02;
stem = "158";
}
);
};
width = 1103;
}
);
unicode = 76;
},
{
glyphname = M;
layers = (
{
background = {
shapes = (
{
closed = 1;
nodes = (
(553,692,l),
(316,1106,l),
(316,0,l),
(158,0,l),
(158,1422,l),
(316,1422,l),
(553,948,l),
(790,1422,l),
(948,1422,l),
(948,0,l),
(790,0,l),
(790,1106,l)
);
}
);
};
layerId = master01;
shapes = (
{
closed = 1;
nodes = (
(553,692,l,{
name = fv01;
}),
(316,1106,l),
(316,0,l,{
name = dh01;
}),
(158,0,l,{
name = dh02;
}),
(158,1422,l,{
name = at01;
}),
(316,1422,l),
(553,948,l,{
name = mv01;
}),
(790,1422,l,{
name = sv01;
}),
(948,1422,l),
(948,0,l,{
name = dh04;
}),
(790,0,l,{
name = dh03;
}),
(790,1106,l)
);
}
);
userData = {
com.fontlab.ttcommands = (
{
code = alignt;
point = at01;
zone = "t: 3";
},
{
code = alignb;
point = dh02;
zone = "b: 0";
},
{
code = mdeltav;
delta = 3;
point = mv01;
ppm1 = 12;
ppm2 = 12;
},
{
code = mdeltav;
delta = -4;
point = mv01;
ppm1 = 15;
ppm2 = 15;
},
{
align = round;
code = singlev;
point1 = at01;
point2 = sv01;
},
{
align = round;
code = singlev;
point1 = dh02;
point2 = dh03;
},
{
code = doubleh;
point1 = dh01;
point2 = dh02;
stem = "158";
},
{
code = doubleh;
point1 = dh03;
point2 = dh04;
stem = "158";
},
{
code = fdeltav;
delta = 8;
point = fv01;
ppm1 = 11;
ppm2 = 11;
}
);
};
width = 1103;
}
);
unicode = 77;
},
{
glyphname = N;
layers = (
{
background = {
shapes = (
{
closed = 1;
nodes = (
(158,1422,l),
(316,1422,l),
(790,370,l),
(790,1422,l),
(948,1422,l),
(948,0,l),
(790,0,l),
(316,1052,l),
(316,0,l),
(158,0,l)
);
}
);
};
layerId = master01;
shapes = (
{
closed = 1;
nodes = (
(158,1422,l),
(316,1422,l,{
name = at01;
}),
(790,370,l,{
name = sv01;
}),
(790,1422,l,{
name = dh04;
}),
(948,1422,l,{
name = dh03;
}),
(948,0,l),
(790,0,l,{
name = ab01;
}),
(316,1052,l,{
name = sv02;
}),
(316,0,l,{
name = dh02;
}),
(158,0,l,{
name = dh01;
})
);
}
);
userData = {
com.fontlab.ttcommands = (
{
code = alignt;
point = at01;
zone = "t: 3";
},
{
code = alignb;
point = ab01;
zone = "b: 0";
},
{
align = center;
code = singlev;
point1 = ab01;
point2 = sv01;
},
{
code = mdeltav;
delta = 4;
point = sv01;
ppm1 = 11;
ppm2 = 11;
},
{
code = mdeltav;
delta = -3;
point = sv01;
ppm1 = 15;
ppm2 = 15;
},
{
code = mdeltav;
delta = -3;
point = sv01;
ppm1 = 13;
ppm2 = 13;
},
{
align = double;
code = singlev;
point1 = at01;
point2 = dh04;
},
{
align = round;
code = singlev;
point1 = at01;
point2 = sv02;
},
{
code = mdeltav;
delta = 3;
point = sv02;
ppm1 = 15;
ppm2 = 15;
},
{
code = mdeltav;
delta = 3;
point = sv02;
ppm1 = 13;
ppm2 = 13;
},
{
align = round;
code = singlev;
point1 = ab01;
point2 = dh02;
},
{
code = doubleh;
point1 = dh01;
point2 = dh02;
stem = "158";
},
{
code = doubleh;
point1 = dh03;
point2 = dh04;
stem = "158";
}
);
};
width = 1103;
}
);
unicode = 78;
},
{
glyphname = O;
layers = (
{
background = {
shapes = (
{
closed = 1;
nodes = (
(158,1246,o),
(334,1422,o),
(553,1422,cs),
(772,1422,o),
(948,1246,o),
(948,1027,cs),
(948,395,ls),
(948,176,o),
(772,0,o),
(553,0,cs),
(334,0,o),
(158,176,o),
(158,395,cs),
(158,1027,ls)
);
},
{
closed = 1;
nodes = (
(422,1264,o),
(316,1158,o),
(316,1027,cs),
(316,395,ls),
(316,264,o),
(422,158,o),
(553,158,cs),
(684,158,o),
(790,264,o),
(790,395,cs),
(790,1027,ls),
(790,1158,o),
(684,1264,o),
(553,1264,cs)
);
}
);
};
layerId = master01;
shapes = (
{
closed = 1;
nodes = (
(158,1109,o),
(220,1253,o),
(327,1360,o),
(471,1422,o),
(553,1422,q,{
name = at01;
}),
(635,1422,o),
(779,1360,o),
(886,1253,o),
(948,1109,o),
(948,1027,q,{
name = dh04;
}),
(948,395,l),
(948,313,o),
(886,169,o),
(779,62,o),
(635,0,o),
(553,0,q,{
name = ab01;
}),
(471,0,o),
(327,62,o),
(220,169,o),
(158,313,o),
(158,395,q),
(158,1027,l,{
name = dh02;
})
);
},
{
closed = 1;
nodes = (
(504,1264,o),
(418,1227,o),
(353,1162,o),
(316,1076,o),
(316,1027,q,{
name = dh01;
}),
(316,395,l),
(316,346,o),
(353,260,o),
(418,195,o),
(504,158,o),
(553,158,q,{
name = sv02;
}),
(602,158,o),
(688,195,o),
(753,260,o),
(790,346,o),
(790,395,q),
(790,1027,l,{
name = dh03;
}),
(790,1076,o),
(753,1162,o),
(688,1227,o),
(602,1264,o),
(553,1264,q,{
name = sv01;
})
);
}
);
userData = {
com.fontlab.ttcommands = (
{
code = alignt;
point = at01;
zone = "t: 3";
},
{
code = alignb;
point = ab01;
zone = "b: 0";
},
{
align = round;
code = singlev;
point1 = at01;
point2 = sv01;
stem = "158";
},
{
align = round;
code = singlev;
point1 = ab01;
point2 = sv02;
stem = "158";
},
{
code = doubleh;
point1 = dh01;
point2 = dh02;
stem = "158";
},
{
code = doubleh;
point1 = dh03;
point2 = dh04;
stem = "158";
}
);
};
width = 1103;
}
);
unicode = 79;
},
{
glyphname = P;
layers = (
{
background = {
shapes = (
{
closed = 1;
nodes = (
(158,0,l),
(158,1422,l),
(553,1422,ls),
(772,1422,o),
(948,1246,o),
(948,1027,cs),
(948,808,o),
(772,632,o),
(553,632,cs),
(316,632,l),
(316,0,l)
);
},
{
closed = 1;
nodes = (
(684,790,o),
(790,896,o),
(790,1027,cs),
(790,1158,o),
(684,1264,o),
(553,1264,cs),
(316,1264,l),
(316,790,l),
(553,790,ls)
);
}
);
};
layerId = master01;
shapes = (
{
closed = 1;
nodes = (
(158,0,l),
(158,1422,l,{
name = dh04;
}),
(553,1422,l,{
name = at01;
}),
(635,1422,o),
(779,1360,o),
(886,1253,o),
(948,1109,o),
(948,1027,q,{
name = dh02;
}),
(948,945,o),
(886,801,o),
(779,694,o),
(635,632,o),
(553,632,q,{
name = sv01;
}),
(316,632,l,{
name = sh01;
}),
(316,0,l,{
name = ab01;
})
);
},
{
closed = 1;
nodes = (
(602,790,o),
(688,827,o),
(753,892,o),
(790,978,o),
(790,1027,q,{
name = dh01;
}),
(790,1076,o),
(753,1162,o),
(688,1227,o),
(602,1264,o),
(553,1264,q,{
name = sv02;
}),
(316,1264,l,{
name = dh03;
}),
(316,790,l),
(553,790,l,{
name = at02;
})
);
}
);
userData = {
com.fontlab.ttcommands = (
{
code = alignt;
point = at01;
zone = "t: 3";
},
{
code = alignt;
point = at02;
zone = "t: 1";
},
{
code = alignb;
point = ab01;
zone = "b: 0";
},
{
code = mdeltav;
delta = 4;
point = at02;
ppm1 = 11;
ppm2 = 11;
},
{
align = round;
code = singlev;
point1 = at02;
point2 = sv01;
stem = "158";
},
{
align = round;
code = singlev;
point1 = at01;
point2 = sv02;
stem = "158";
},
{
code = doubleh;
point1 = dh01;
point2 = dh02;
stem = "158";
},
{
code = doubleh;
point1 = dh03;
point2 = dh04;
stem = "158";
},
{
align = round;
code = singleh;
point1 = dh03;
point2 = sh01;
}
);
};
width = 1103;
}
);
unicode = 80;
},
{
glyphname = Q;
layers = (
{
background = {
shapes = (
{
closed = 1;
nodes = (
(647,8,o),
(601,0,o),
(553,0,cs),
(334,0,o),
(158,176,o),
(158,395,cs),
(158,1027,ls),
(158,1246,o),
(334,1422,o),
(553,1422,cs),
(772,1422,o),
(948,1246,o),
(948,1027,cs),
(948,395,ls),
(948,280,o),
(899,177,o),
(822,105,c),
(954,-158,l),
(784,-158,l),
(692,25,l)
);
},
{
closed = 1;
nodes = (
(422,1264,o),
(316,1158,o),
(316,1027,cs),
(316,395,ls),
(316,264,o),
(422,158,o),
(553,158,cs),
(578,158,o),
(600,161,o),
(621,168,c),
(468,474,l),
(638,474,l),
(746,257,l),
(773,296,o),
(790,343,o),
(790,395,cs),
(790,1027,ls),
(790,1158,o),
(684,1264,o),
(553,1264,cs)
);
}
);
};
layerId = master01;
shapes = (
{
closed = 1;
nodes = (
(626,0,o),
(553,0,q,{
name = ab01;
}),
(471,0,o),
(327,62,o),
(220,169,o),
(158,313,o),
(158,395,q),
(158,1027,l,{
name = dh02;
}),
(158,1109,o),
(220,1253,o),
(327,1360,o),
(471,1422,o),
(553,1422,q,{
name = at01;
}),
(635,1422,o),
(779,1360,o),
(886,1253,o),
(948,1109,o),
(948,1027,q,{
name = dh03;
}),
(948,395,l),
(948,308,o),
(880,159,o),
(822,105,q),
(954,-158,l,{
name = sh01;
}),
(784,-158,l,{
name = sh02;
}),
(692,25,l)
);
},
{
closed = 1;
nodes = (
(504,1264,o),
(418,1227,o),
(353,1162,o),
(316,1076,o),
(316,1027,q,{
name = dh01;
}),
(316,395,l),
(316,346,o),
(353,260,o),
(418,195,o),
(504,158,o),
(553,158,q,{
name = sv02;
}),
(591,158,o),
(621,168,q),
(468,474,l,{
name = dh06;
}),
(638,474,l,{
name = dh05;
}),
(746,257,l),
(766,286,o),
(790,356,o),
(790,395,q),
(790,1027,l,{
name = dh04;
}),
(790,1076,o),
(753,1162,o),
(688,1227,o),
(602,1264,o),
(553,1264,q,{
name = sv01;
})
);
}
);
userData = {
com.fontlab.ttcommands = (
{
code = alignt;
point = at01;
zone = "t: 3";
},
{
code = alignb;
point = ab01;
zone = "b: 0";
},
{
align = round;
code = singlev;
point1 = at01;
point2 = sv01;
stem = "158";
},
{
align = round;
code = singlev;
point1 = ab01;
point2 = sv02;
stem = "158";
},
{
code = doubleh;
point1 = dh01;
point2 = dh02;
stem = "158";
},
{
code = doubleh;
point1 = dh03;
point2 = dh04;
stem = "158";
},
{
code = doubleh;
point1 = dh05;
point2 = dh06;
stem = "158";
},
{
align = round;
code = singleh;
point1 = dh03;
point2 = sh01;
},
{
align = round;
code = singleh;
point1 = dh04;
point2 = sh02;
}
);
};
width = 1103;
}
);
unicode = 81;
},
{
glyphname = R;
layers = (
{
background = {
shapes = (
{
closed = 1;
nodes = (
(851,216,o),
(955,2,o),
(955,0,c),
(774,0,l),
(569,419,o),
(466,630,o),
(466,632,c),
(316,632,l),
(316,0,l),
(158,0,l),
(158,1422,l),
(553,1422,ls),
(772,1422,o),
(948,1246,o),
(948,1027,cs),
(948,841,o),
(817,682,o),
(643,642,c)
);
},
{
closed = 1;
nodes = (
(684,790,o),
(790,896,o),
(790,1027,cs),
(790,1158,o),
(684,1264,o),
(553,1264,cs),
(316,1264,l),
(316,790,l),
(553,790,ls)
);
}
);
};
layerId = master01;
shapes = (
{
closed = 1;
nodes = (
(955,3,o,{
name = dh04;
}),
(955,0,q),
(774,0,l,{
name = dh03;
}),
(466,630,o),
(466,632,q),
(316,632,l,{
name = sv01;
}),
(316,0,l,{
name = dh01;
}),
(158,0,l,{
name = dh02;
}),
(158,1422,l),
(553,1422,l,{
name = at01;
}),
(635,1422,o),
(779,1360,o),
(886,1253,o),
(948,1109,o),
(948,1027,q,{
name = sh01;
}),
(948,957,o),
(902,831,o,{
name = mv01;
}),
(820,729,o),
(708,657,o),
(643,642,q)
);
},
{
closed = 1;
nodes = (
(602,790,o),
(688,827,o),
(753,892,o),
(790,978,o),
(790,1027,q,{
name = sh02;
}),
(790,1076,o),
(753,1162,o),
(688,1227,o,{
name = fh01;
}),
(602,1264,o),
(553,1264,q,{
name = sv02;
}),
(316,1264,l,{
name = sh03;
}),
(316,790,l,{
name = at02;
}),
(553,790,l)
);
}
);
userData = {
com.fontlab.ttcommands = (
{
code = alignt;
point = at01;
zone = "t: 3";
},
{
code = alignt;
point = at02;
zone = "t: 1";
},
{
code = alignb;
point = dh01;
zone = "b: 0";
},
{
align = center;
code = singlev;
point1 = dh01;
point2 = dh03;
},
{
code = mdeltav;
delta = 5;
point = at02;
ppm1 = 14;
ppm2 = 14;
},
{
align = round;
code = singlev;
point1 = at02;
point2 = sv01;
stem = "158";
},
{
code = mdeltav;
delta = 3;
point = mv01;
ppm1 = 11;
ppm2 = 12;
},
{
align = round;
code = singlev;
point1 = at01;
point2 = sv02;
stem = "158";
},
{
code = doubleh;
point1 = dh01;
point2 = dh02;
stem = "158";
},
{
code = doubleh;
point1 = dh03;
point2 = dh04;
stem = "158";
},
{
align = round;
code = singleh;
point1 = dh04;
point2 = sh01;
},
{
align = round;
code = singleh;
point1 = sh01;
point2 = sh02;
stem = "158";
},
{
align = round;
code = singleh;
point1 = dh01;
point2 = sh03;
},
{
code = fdeltav;
delta = 3;
point = fh01;
ppm1 = 14;
ppm2 = 14;
},
{
code = fdeltah;
delta = 2;
point = fh01;
ppm1 = 14;
ppm2 = 14;
}
);
};
width = 1103;
}
);
unicode = 82;
},
{
glyphname = S;
layers = (
{
background = {
shapes = (
{
closed = 1;
nodes = (
(316,896,o),
(422,790,o),
(553,790,cs),
(772,790,o),
(948,614,o),
(948,395,cs),
(948,176,o),
(772,0,o),
(553,0,cs),
(158,0,l),
(158,158,l),
(553,158,ls),
(684,158,o),
(790,264,o),
(790,395,cs),
(790,526,o),
(684,632,o),
(553,632,cs),
(334,632,o),
(158,808,o),
(158,1027,cs),
(158,1246,o),
(334,1422,o),
(553,1422,cs),
(948,1422,l),
(948,1264,l),
(553,1264,ls),
(422,1264,o),
(316,1158,o),
(316,1027,cs)
);
}
);
};
layerId = master01;
shapes = (
{
closed = 1;
nodes = (
(316,978,o),
(353,892,o),
(418,827,o),
(504,790,o),
(553,790,q,{
name = dv01;
}),
(635,790,o),
(779,728,o),
(886,621,o),
(948,477,o),
(948,395,q,{
name = dh04;
}),
(948,313,o),
(886,169,o),
(779,62,o),
(635,0,o),
(553,0,q),
(158,0,l,{
name = ab01;
}),
(158,158,l,{
name = sh01;
}),
(553,158,l),
(602,158,o),
(688,195,o),
(753,260,o),
(790,346,o),
(790,395,q,{
name = dh03;
}),
(790,444,o),
(753,530,o),
(688,595,o),
(602,632,o),
(553,632,q,{
name = mh01;
}),
(471,632,o),
(327,694,o,{
name = mh02;
}),
(220,801,o,{
name = mv01;
}),
(158,945,o),
(158,1027,q,{
name = dh02;
}),
(158,1109,o),
(220,1253,o),
(327,1360,o),
(471,1422,o),
(553,1422,q),
(948,1422,l,{
name = at01;
}),
(948,1264,l,{
name = sh02;
}),
(553,1264,l),
(504,1264,o),
(418,1227,o),
(353,1162,o,{
name = mv02;
}),
(316,1076,o),
(316,1027,q,{
name = dh01;
})
);
}
);
userData = {
com.fontlab.ttcommands = (
{
code = alignt;
point = at01;
zone = "t: 3";
},
{
code = alignb;
point = ab01;
zone = "b: 0";
},
{
code = doublev;
point1 = dv01;
point2 = mh01;
stem = "158";
},
{
code = mdeltav;
delta = 5;
point = dv01;
ppm1 = 11;
ppm2 = 11;
},
{
code = mdeltav;
delta = 4;
point = dv01;
ppm1 = 14;
ppm2 = 14;
},
{
align = round;
code = singlev;
point1 = ab01;
point2 = sh01;
stem = "158";
},
{
code = mdeltav;
delta = 5;
point = mh01;
ppm1 = 14;
ppm2 = 14;
},
{
code = mdeltav;
delta = 5;
point = mh01;
ppm1 = 11;
ppm2 = 11;
},
{
code = mdeltav;
delta = 3;
point = mv01;
ppm1 = 11;
ppm2 = 11;
},
{
align = round;
code = singlev;
point1 = at01;
point2 = sh02;
stem = "158";
},
{
code = mdeltav;
delta = 3;
point = mv02;
ppm1 = 14;
ppm2 = 14;
},
{
code = doubleh;
point1 = dh01;
point2 = dh02;
stem = "158";
},
{
code = doubleh;
point1 = dh03;
point2 = dh04;
stem = "158";
},
{
align = round;
code = singleh;
point1 = dh02;
point2 = sh01;
},
{
code = mdeltah;
delta = 3;
point = mh01;
ppm1 = 11;
ppm2 = 11;
},
{
code = mdeltah;
delta = 5;
point = mh02;
ppm1 = 14;
ppm2 = 14;
},
{
align = round;
code = singleh;
point1 = dh04;
point2 = sh02;
}
);
};
width = 1103;
}
);
unicode = 83;
},
{
glyphname = T;
layers = (
{
background = {
shapes = (
{
closed = 1;
nodes = (
(158,1264,l),
(158,1422,l),
(948,1422,l),
(948,1264,l),
(632,1264,l),
(632,0,l),
(474,0,l),
(474,1264,l)
);
}
);
};
layerId = master01;
shapes = (
{
closed = 1;
nodes = (
(158,1264,l,{
name = sh01;
}),
(158,1422,l,{
name = at01;
}),
(948,1422,l),
(948,1264,l,{
name = sh02;
}),
(632,1264,l,{
name = dh02;
}),
(632,0,l),
(474,0,l,{
name = ab01;
}),
(474,1264,l,{
name = dh01;
})
);
}
);
userData = {
com.fontlab.ttcommands = (
{
code = alignt;
point = at01;
zone = "t: 3";
},
{
code = alignb;
point = ab01;
zone = "b: 0";
},
{
align = left;
code = singlev;
point1 = at01;
point2 = sh01;
stem = "158";
},
{
align = round;
code = singlev;
point1 = sh01;
point2 = dh02;
},
{
code = doubleh;
point1 = dh01;
point2 = dh02;
stem = "158";
},
{
align = left;
code = singleh;
point1 = dh01;
point2 = sh01;
},
{
align = double;
code = singleh;
point1 = dh02;
point2 = sh02;
}
);
};
width = 1103;
}
);
unicode = 84;
},
{
glyphname = U;
layers = (
{
background = {
shapes = (
{
closed = 1;
nodes = (
(316,1422,l),
(316,395,ls),
(316,264,o),
(422,158,o),
(553,158,cs),
(684,158,o),
(790,264,o),
(790,395,cs),
(790,1422,l),
(948,1422,l),
(948,395,ls),
(948,176,o),
(772,0,o),
(553,0,cs),
(334,0,o),
(158,176,o),
(158,395,cs),
(158,1422,l)
);
}
);
};
layerId = master01;
shapes = (
{
closed = 1;
nodes = (
(316,1422,l,{
name = dh02;
}),
(316,395,l),
(316,346,o),
(353,260,o),
(418,195,o),
(504,158,o),
(553,158,q,{
name = sv01;
}),
(602,158,o),
(688,195,o),
(753,260,o),
(790,346,o),
(790,395,q),
(790,1422,l,{
name = dh03;
}),
(948,1422,l,{
name = dh04;
}),
(948,395,l),
(948,313,o),
(886,169,o),
(779,62,o),
(635,0,o),
(553,0,q,{
name = ab01;
}),
(471,0,o),
(327,62,o),
(220,169,o),
(158,313,o),
(158,395,q),
(158,1422,l,{
name = dh01;
})
);
}
);
userData = {
com.fontlab.ttcommands = (
{
code = alignt;
point = dh02;
zone = "t: 3";
},
{
code = alignb;
point = ab01;
zone = "b: 0";
},
{
align = round;
code = singlev;
point1 = ab01;
point2 = sv01;
stem = "158";
},
{
align = round;
code = singlev;
point1 = dh02;
point2 = dh03;
},
{
code = doubleh;
point1 = dh01;
point2 = dh02;
stem = "158";
},
{
code = doubleh;
point1 = dh03;
point2 = dh04;
stem = "158";
}
);
};
width = 1103;
}
);
unicode = 85;
},
{
glyphname = V;
layers = (
{
background = {
shapes = (
{
closed = 1;
nodes = (
(553,332,l),
(790,1422,l),
(948,1422,l),
(632,0,l),
(474,0,l),
(158,1422,l),
(316,1422,l)
);
}
);
};
layerId = master01;
shapes = (
{
closed = 1;
nodes = (
(553,332,l,{
name = ih01;
}),
(790,1422,l,{
name = dh04;
}),
(948,1422,l,{
name = dh03;
}),
(632,0,l,{
name = ih03;
}),
(474,0,l,{
name = ih02;
}),
(158,1422,l,{
name = dh01;
}),
(316,1422,l,{
name = dh02;
})
);
}
);
userData = {
com.fontlab.ttcommands = (
{
code = alignt;
point = dh01;
zone = "t: 3";
},
{
code = alignb;
point = ih02;
zone = "b: 0";
},
{
code = mdeltav;
delta = -3;
point = ih01;
ppm1 = 14;
ppm2 = 14;
},
{
code = mdeltav;
delta = -7;
point = ih01;
ppm1 = 17;
ppm2 = 17;
},
{
align = right;
code = singlev;
point1 = dh01;
point2 = dh04;
},
{
code = doubleh;
point1 = dh01;
point2 = dh02;
stem = "158";
},
{
code = doubleh;
point1 = dh03;
point2 = dh04;
stem = "158";
},
{
align = round;
code = interpolateh;
point = ih01;
point1 = ih02;
point2 = ih03;
},
{
align = round;
code = interpolateh;
point = ih01;
point1 = dh02;
point2 = dh04;
}
);
};
width = 1103;
}
);
unicode = 86;
},
{
glyphname = W;
layers = (
{
background = {
shapes = (
{
closed = 1;
nodes = (
(948,1422,l),
(948,0,l),
(790,0,l),
(553,474,l),
(316,0,l),
(158,0,l),
(158,1422,l),
(316,1422,l),
(316,316,l),
(553,730,l),
(790,316,l),
(790,1422,l)
);
}
);
};
layerId = master01;
shapes = (
{
closed = 1;
nodes = (
(948,1422,l,{
name = dh04;
}),
(948,0,l,{
name = sv01;
}),
(790,0,l),
(553,474,l),
(316,0,l),
(158,0,l,{
name = ab01;
}),
(158,1422,l,{
name = dh01;
}),
(316,1422,l,{
name = dh02;
}),
(316,316,l,{
name = mv01;
}),
(553,730,l,{
name = mv02;
}),
(790,316,l),
(790,1422,l,{
name = dh03;
})
);
}
);
userData = {
com.fontlab.ttcommands = (
{
code = alignt;
point = dh01;
zone = "t: 3";
},
{
code = alignb;
point = ab01;
zone = "b: 0";
},
{
align = left;
code = singlev;
point1 = dh01;
point2 = dh04;
},
{
align = right;
code = singlev;
point1 = ab01;
point2 = sv01;
},
{
code = mdeltav;
delta = -1;
point = mv01;
ppm1 = 12;
ppm2 = 12;
},
{
code = mdeltav;
delta = 2;
point = mv02;
ppm1 = 12;
ppm2 = 12;
},
{
code = doubleh;
point1 = dh01;
point2 = dh02;
stem = "158";
},
{
code = doubleh;
point1 = dh03;
point2 = dh04;
stem = "158";
}
);
};
width = 1103;
}
);
unicode = 87;
},
{
glyphname = X;
layers = (
{
background = {
shapes = (
{
closed = 1;
nodes = (
(715,1270,l),
(783,1422,l),
(949,1422,l),
(880,1264,l),
(639,711,l),
(880,159,l),
(949,0,l),
(783,0,l),
(712,160,l),
(553,517,l),
(394,159,l),
(323,0,l),
(158,0,l),
(226,157,l),
(467,711,l),
(225,1266,l),
(157,1422,l),
(323,1422,l),
(393,1265,l),
(553,904,l)
);
}
);
};
layerId = master01;
shapes = (
{
closed = 1;
nodes = (
(715,1270,l,{
name = mh01;
}),
(783,1422,l,{
name = dh04;
}),
(949,1422,l,{
name = dh03;
}),
(880,1264,l,{
name = mh02;
}),
(639,711,l),
(880,159,l),
(949,0,l,{
name = sh01;
}),
(783,0,l,{
name = sh02;
}),
(712,160,l),
(553,517,l),
(394,159,l),
(323,0,l,{
name = sh03;
}),
(158,0,l,{
name = sh04;
}),
(226,157,l),
(467,711,l),
(225,1266,l,{
name = mh03;
}),
(157,1422,l,{
name = dh01;
}),
(323,1422,l,{
name = dh02;
}),
(393,1265,l,{
name = mh04;
}),
(553,904,l)
);
}
);
userData = {
com.fontlab.ttcommands = (
{
code = alignt;
point = dh01;
zone = "t: 3";
},
{
code = alignb;
point = sh04;
zone = "b: 0";
},
{
align = center;
code = singlev;
point1 = dh01;
point2 = dh03;
},
{
align = round;
code = singlev;
point1 = sh04;
point2 = sh01;
},
{
code = doubleh;
point1 = dh01;
point2 = dh02;
stem = "158";
},
{
code = doubleh;
point1 = dh03;
point2 = dh04;
stem = "158";
},
{
code = mdeltah;
delta = 2;
point = mh01;
ppm1 = 11;
ppm2 = 11;
},
{
code = mdeltah;
delta = 2;
point = mh02;
ppm1 = 11;
ppm2 = 11;
},
{
align = round;
code = singleh;
point1 = dh03;
point2 = sh01;
},
{
align = round;
code = singleh;
point1 = dh04;
point2 = sh02;
},
{
align = round;
code = singleh;
point1 = dh02;
point2 = sh03;
},
{
align = round;
code = singleh;
point1 = dh01;
point2 = sh04;
},
{
code = mdeltah;
delta = -2;
point = mh03;
ppm1 = 11;
ppm2 = 11;
},
{
code = mdeltah;
delta = -2;
point = mh04;
ppm1 = 11;
ppm2 = 11;
}
);
};
width = 1103;
}
);
unicode = 88;
},
{
glyphname = Y;
layers = (
{
background = {
shapes = (
{
closed = 1;
nodes = (
(158,1422,l),
(316,1422,l),
(553,711,l),
(790,1422,l),
(948,1422,l),
(632,474,l),
(632,0,l),
(474,0,l),
(474,472,l)
);
}
);
};
layerId = master01;
shapes = (
{
closed = 1;
nodes = (
(158,1422,l,{
name = at01;
}),
(316,1422,l,{
name = mv01;
}),
(553,711,l,{
name = ih01;
}),
(790,1422,l,{
name = mv02;
}),
(948,1422,l,{
name = sv01;
}),
(632,474,l,{
name = fv02;
}),
(632,0,l,{
name = dh02;
}),
(474,0,l,{
name = dh01;
}),
(474,472,l,{
name = fv01;
})
);
}
);
userData = {
com.fontlab.ttcommands = (
{
code = alignt;
point = at01;
zone = "t: 3";
},
{
code = alignb;
point = dh01;
zone = "b: 0";
},
{
code = mdeltav;
delta = -8;
point = mv01;
ppm1 = 16;
ppm2 = 16;
},
{
code = mdeltav;
delta = -8;
point = mv02;
ppm1 = 16;
ppm2 = 16;
},
{
align = round;
code = singlev;
point1 = at01;
point2 = sv01;
},
{
code = doubleh;
point1 = dh01;
point2 = dh02;
stem = "158";
},
{
align = round;
code = interpolateh;
point = ih01;
point1 = dh01;
point2 = dh02;
},
{
code = fdeltav;
delta = 6;
point = fv01;
ppm1 = 11;
ppm2 = 11;
},
{
code = fdeltav;
delta = 6;
point = fv02;
ppm1 = 11;
ppm2 = 11;
}
);
};
width = 1103;
}
);
unicode = 89;
},
{
glyphname = Z;
layers = (
{
background = {
shapes = (
{
closed = 1;
nodes = (
(772,1264,l),
(158,1264,l),
(158,1422,l),
(948,1422,l),
(948,1264,l),
(346,158,l),
(948,158,l),
(948,0,l),
(158,0,l),
(158,158,l)
);
}
);
};
layerId = master01;
shapes = (
{
closed = 1;
nodes = (
(772,1264,l,{
name = mh01;
}),
(158,1264,l,{
name = sv01;
}),
(158,1422,l,{
name = ah01;
}),
(948,1422,l,{
name = sh01;
}),
(948,1264,l),
(346,158,l,{
name = mh02;
}),
(948,158,l,{
name = sv02;
}),
(948,0,l,{
name = ah02;
}),
(158,0,l,{
name = sh02;
}),
(158,158,l)
);
}
);
userData = {
com.fontlab.ttcommands = (
{
code = alignt;
point = ah01;
zone = "t: 3";
},
{
code = alignb;
point = ah02;
zone = "b: 0";
},
{
align = right;
code = singlev;
point1 = ah01;
point2 = sv01;
stem = "158";
},
{
align = round;
code = singlev;
point1 = ah02;
point2 = sv02;
stem = "158";
},
{
align = round;
code = alignh;
point = ah01;
},
{
align = round;
code = alignh;
point = ah02;
},
{
code = mdeltah;
delta = 3;
point = mh01;
ppm1 = 12;
ppm2 = 12;
},
{
align = double;
code = singleh;
point1 = ah02;
point2 = sh01;
},
{
code = mdeltah;
delta = -1;
point = mh02;
ppm1 = 12;
ppm2 = 12;
},
{
code = mdeltah;
delta = -2;
point = mh02;
ppm1 = 13;
ppm2 = 13;
},
{
align = round;
code = singleh;
point1 = ah01;
point2 = sh02;
}
);
};
width = 1103;
}
);
unicode = 90;
},
{
glyphname = bracketleft;
layers = (
{
background = {
shapes = (
{
closed = 1;
nodes = (
(790,1580,l),
(790,1422,l),
(474,1422,l),
(474,-158,l),
(790,-158,l),
(790,-316,l),
(316,-316,l),
(316,1580,l)
);
}
);
};
layerId = master01;
shapes = (
{
closed = 1;
nodes = (
(790,1580,l,{
name = dv02;
}),
(790,1422,l,{
name = sh01;
}),
(474,1422,l,{
name = dh02;
}),
(474,-158,l),
(790,-158,l,{
name = sh02;
}),
(790,-316,l,{
name = dv01;
}),
(316,-316,l),
(316,1580,l,{
name = dh01;
})
);
}
);
userData = {
com.fontlab.ttcommands = (
{
code = doublev;
point1 = dv01;
point2 = sh02;
stem = "158";
},
{
code = doublev;
point1 = dv02;
point2 = sh01;
stem = "158";
},
{
code = doubleh;
point1 = dh01;
point2 = dh02;
stem = "158";
},
{
align = right;
code = singleh;
point1 = dh02;
point2 = sh01;
},
{
align = round;
code = singleh;
point1 = sh01;
point2 = sh02;
}
);
};
width = 1103;
}
);
unicode = 91;
},
{
glyphname = backslash;
layers = (
{
background = {
shapes = (
{
closed = 1;
nodes = (
(948,-158,l),
(790,-158,l),
(727,-1,l),
(221,1264,l),
(158,1422,l),
(316,1422,l),
(379,1264,l),
(884,2,l)
);
}
);
};
layerId = master01;
shapes = (
{
closed = 1;
nodes = (
(948,-158,l,{
name = dh03;
}),
(790,-158,l,{
name = dh04;
}),
(727,-1,l,{
name = mh02;
}),
(221,1264,l,{
name = mh03;
}),
(158,1422,l,{
name = dh01;
}),
(316,1422,l,{
name = dh02;
}),
(379,1264,l,{
name = mh04;
}),
(884,2,l,{
name = mh01;
})
);
}
);
userData = {
com.fontlab.ttcommands = (
{
align = round;
code = alignv;
point = mh03;
},
{
code = alignb;
point = mh01;
zone = "b: 0";
},
{
code = mdeltav;
delta = 3;
point = mh01;
ppm1 = 10;
ppm2 = 11;
},
{
align = left;
code = singlev;
point1 = mh01;
point2 = dh03;
stem = "158";
},
{
code = mdeltav;
delta = 3;
point = mh02;
ppm1 = 10;
ppm2 = 11;
},
{
code = mdeltav;
delta = -1;
point = mh02;
ppm1 = 13;
ppm2 = 13;
},
{
code = mdeltav;
delta = -3;
point = mh03;
ppm1 = 10;
ppm2 = 11;
},
{
align = round;
code = singlev;
point1 = mh03;
point2 = dh01;
stem = "158";
},
{
code = mdeltav;
delta = -3;
point = mh04;
ppm1 = 10;
ppm2 = 11;
},
{
code = doubleh;
point1 = dh01;
point2 = dh02;
stem = "158";
},
{
code = doubleh;
point1 = dh03;
point2 = dh04;
stem = "158";
},
{
code = mdeltah;
delta = 3;
point = mh01;
ppm1 = 13;
ppm2 = 13;
},
{
code = mdeltah;
delta = 3;
point = mh02;
ppm1 = 13;
ppm2 = 13;
},
{
code = mdeltah;
delta = -3;
point = mh03;
ppm1 = 13;
ppm2 = 13;
},
{
code = mdeltah;
delta = -3;
point = mh04;
ppm1 = 13;
ppm2 = 13;
}
);
};
width = 1103;
}
);
unicode = 92;
},
{
glyphname = bracketright;
layers = (
{
background = {
shapes = (
{
closed = 1;
nodes = (
(316,-316,l),
(316,-158,l),
(632,-158,l),
(632,1422,l),
(316,1422,l),
(316,1580,l),
(790,1580,l),
(790,-316,l)
);
}
);
};
layerId = master01;
shapes = (
{
closed = 1;
nodes = (
(316,-316,l,{
name = dv02;
}),
(316,-158,l,{
name = sh02;
}),
(632,-158,l),
(632,1422,l,{
name = dh01;
}),
(316,1422,l,{
name = sh01;
}),
(316,1580,l,{
name = dv01;
}),
(790,1580,l,{
name = dh02;
}),
(790,-316,l)
);
}
);
userData = {
com.fontlab.ttcommands = (
{
code = doublev;
point1 = dv01;
point2 = sh01;
stem = "158";
},
{
code = doublev;
point1 = dv02;
point2 = sh02;
stem = "158";
},
{
code = doubleh;
point1 = dh01;
point2 = dh02;
stem = "158";
},
{
align = round;
code = singleh;
point1 = dh01;
point2 = sh01;
},
{
align = right;
code = singleh;
point1 = sh01;
point2 = sh02;
}
);
};
width = 1103;
}
);
unicode = 93;
},
{
glyphname = asciicircum;
layers = (
{
background = {
shapes = (
{
closed = 1;
nodes = (
(650,1422,l),
(957,790,l),
(776,790,l),
(555,1252,l),
(334,790,l),
(152,790,l),
(460,1422,l)
);
}
);
};
layerId = master01;
shapes = (
{
closed = 1;
nodes = (
(650,1422,l),
(957,790,l,{
name = dh04;
}),
(776,790,l,{
name = dh03;
}),
(555,1252,l),
(334,790,l,{
name = dh01;
}),
(152,790,l,{
name = dh02;
}),
(460,1422,l,{
name = at01;
})
);
}
);
userData = {
com.fontlab.ttcommands = (
{
code = alignt;
point = at01;
zone = "t: 3";
},
{
code = alignt;
point = dh02;
zone = "t: 1";
},
{
align = center;
code = singlev;
point1 = dh02;
point2 = dh03;
},
{
code = doubleh;
point1 = dh01;
point2 = dh02;
stem = "158";
},
{
code = doubleh;
point1 = dh03;
point2 = dh04;
stem = "158";
}
);
};
width = 1103;
}
);
unicode = 94;
},
{
glyphname = underscore;
layers = (
{
background = {
shapes = (
{
closed = 1;
nodes = (
(1106,-316,l),
(1106,-474,l),
(0,-474,l),
(0,-316,l)
);
}
);
};
layerId = master01;
shapes = (
{
closed = 1;
nodes = (
(1106,-316,l,{
name = ah02;
}),
(1106,-474,l),
(0,-474,l,{
name = ab01;
}),
(0,-316,l,{
name = ah01;
})
);
}
);
userData = {
com.fontlab.ttcommands = (
{
code = alignb;
point = ab01;
zone = "b: 2";
},
{
align = round;
code = singlev;
point1 = ab01;
point2 = ah01;
stem = "158";
},
{
align = round;
code = alignh;
point = ah01;
},
{
align = round;
code = alignh;
point = ah02;
}
);
};
width = 1103;
}
);
unicode = 95;
},
{
glyphname = grave;
layers = (
{
background = {
shapes = (
{
closed = 1;
nodes = (
(316,1580,l),
(790,1422,l),
(790,1264,l),
(316,1422,l)
);
}
);
};
layerId = master01;
shapes = (
{
closed = 1;
nodes = (
(316,1580,l),
(790,1422,l),
(790,1264,l),
(316,1422,l)
);
}
);
width = 1103;
}
);
unicode = 96;
},
{
glyphname = a;
layers = (
{
background = {
shapes = (
{
closed = 1;
nodes = (
(301,0,o),
(158,143,o),
(158,316,cs),
(158,489,o),
(301,632,o),
(474,632,cs),
(790,632,l),
(790,711,ls),
(790,842,o),
(684,948,o),
(553,948,cs),
(316,948,l),
(316,1106,l),
(553,1106,ls),
(772,1106,o),
(948,930,o),
(948,711,cs),
(948,0,l),
(474,0,ls)
);
},
{
closed = 1;
nodes = (
(387,474,o),
(316,403,o),
(316,316,cs),
(316,229,o),
(387,158,o),
(474,158,cs),
(790,158,l),
(790,474,l),
(474,474,ls)
);
}
);
};
layerId = master01;
shapes = (
{
closed = 1;
nodes = (
(409,0,o),
(294,50,o),
(208,136,o,{
name = mh01;
}),
(158,251,o),
(158,316,q,{
name = dh01;
}),
(158,381,o),
(208,496,o,{
name = mh02;
}),
(294,582,o),
(409,632,o),
(474,632,q,{
name = sv01;
}),
(790,632,l,{
name = sh01;
}),
(790,711,l),
(790,760,o),
(753,846,o),
(688,911,o),
(602,948,o),
(553,948,q),
(316,948,l,{
name = sh02;
}),
(316,1106,l,{
name = at02;
}),
(553,1106,l),
(635,1106,o),
(779,1044,o),
(886,937,o),
(948,793,o),
(948,711,q),
(948,0,l,{
name = dh03;
}),
(474,0,l,{
name = ab01;
})
);
},
{
closed = 1;
nodes = (
(441,474,o),
(384,449,o),
(341,406,o),
(316,349,o),
(316,316,q,{
name = dh02;
}),
(316,283,o),
(341,226,o),
(384,183,o),
(441,158,o),
(474,158,q,{
name = sv02;
}),
(790,158,l,{
name = dh04;
}),
(790,474,l),
(474,474,l,{
name = at01;
})
);
}
);
userData = {
com.fontlab.ttcommands = (
{
code = alignt;
point = at01;
zone = "t: 0";
},
{
code = alignt;
point = at02;
zone = "t: 2";
},
{
code = alignb;
point = ab01;
zone = "b: 0";
},
{
code = mdeltav;
delta = 6;
point = at01;
ppm1 = 14;
ppm2 = 14;
},
{
align = round;
code = singlev;
point1 = at01;
point2 = sv01;
stem = "158";
},
{
align = round;
code = singlev;
point1 = at02;
point2 = sh02;
stem = "158";
},
{
align = round;
code = singlev;
point1 = ab01;
point2 = sv02;
stem = "158";
},
{
code = doubleh;
point1 = dh01;
point2 = dh02;
stem = "158";
},
{
code = doubleh;
point1 = dh03;
point2 = dh04;
stem = "158";
},
{
code = mdeltah;
delta = 4;
point = mh01;
ppm1 = 10;
ppm2 = 10;
},
{
code = mdeltah;
delta = 4;
point = mh02;
ppm1 = 10;
ppm2 = 10;
},
{
align = round;
code = singleh;
point1 = dh04;
point2 = sh01;
},
{
align = round;
code = singleh;
point1 = dh02;
point2 = sh02;
}
);
};
width = 1103;
}
);
unicode = 97;
},
{
glyphname = b;
layers = (
{
background = {
shapes = (
{
closed = 1;
nodes = (
(316,1422,l),
(316,1007,l),
(393,1062,o),
(470,1106,o),
(553,1106,cs),
(772,1106,o),
(948,930,o),
(948,711,cs),
(948,395,ls),
(948,176,o),
(772,0,o),
(553,0,cs),
(465,0,o),
(384,49,o),
(316,98,c),
(316,0,l),
(158,0,l),
(158,1422,l)
);
},
{
closed = 1;
nodes = (
(316,395,ls),
(316,264,o),
(422,158,o),
(553,158,cs),
(684,158,o),
(790,264,o),
(790,395,cs),
(790,711,ls),
(790,842,o),
(684,948,o),
(553,948,cs),
(421,948,o),
(335,876,o),
(316,720,c)
);
}
);
};
layerId = master01;
shapes = (
{
closed = 1;
nodes = (
(316,1422,l,{
name = dh02;
}),
(316,1007,l),
(374,1049,o),
(490,1106,o),
(553,1106,q,{
name = at01;
}),
(635,1106,o),
(779,1044,o),
(886,937,o),
(948,793,o),
(948,711,q,{
name = dh03;
}),
(948,395,l),
(948,313,o),
(886,169,o),
(779,62,o),
(635,0,o),
(553,0,q,{
name = sv01;
}),
(520,0,o),
(457,17,o),
(397,44,o),
(341,80,o),
(316,98,q),
(316,0,l),
(158,0,l,{
name = ab01;
}),
(158,1422,l,{
name = dh01;
})
);
},
{
closed = 1;
nodes = (
(316,395,l,{
name = sh01;
}),
(316,346,o),
(353,260,o),
(418,195,o),
(504,158,o),
(553,158,q,{
name = sv02;
}),
(602,158,o),
(688,195,o),
(753,260,o),
(790,346,o),
(790,395,q),
(790,711,l,{
name = dh04;
}),
(790,760,o),
(753,846,o),
(688,911,o),
(602,948,o),
(553,948,q,{
name = sv03;
}),
(454,948,o),
(330,837,o),
(316,720,q)
);
}
);
userData = {
com.fontlab.ttcommands = (
{
code = alignt;
point = dh01;
zone = "t: 3";
},
{
code = alignt;
point = at01;
zone = "t: 2";
},
{
code = alignb;
point = ab01;
zone = "b: 0";
},
{
align = round;
code = singlev;
point1 = ab01;
point2 = sv01;
},
{
align = round;
code = singlev;
point1 = sv01;
point2 = sv02;
stem = "158";
},
{
align = round;
code = singlev;
point1 = at01;
point2 = sv03;
stem = "158";
},
{
code = doubleh;
point1 = dh01;
point2 = dh02;
stem = "158";
},
{
code = doubleh;
point1 = dh03;
point2 = dh04;
stem = "158";
},
{
align = round;
code = singleh;
point1 = dh02;
point2 = sh01;
}
);
};
width = 1103;
}
);
unicode = 98;
},
{
glyphname = c;
layers = (
{
background = {
shapes = (
{
closed = 1;
nodes = (
(316,264,o),
(436,158,o),
(567,158,cs),
(670,158,o),
(758,223,o),
(790,316,c),
(948,316,l),
(911,136,o),
(752,0,o),
(561,0,cs),
(343,0,o),
(158,176,o),
(158,395,cs),
(158,711,ls),
(158,930,o),
(343,1106,o),
(561,1106,cs),
(752,1106,o),
(910,970,o),
(948,790,c),
(790,790,l),
(758,881,o),
(670,948,o),
(567,948,cs),
(436,948,o),
(316,842,o),
(316,711,cs),
(316,395,ls)
);
}
);
};
layerId = master01;
shapes = (
{
closed = 1;
nodes = (
(316,346,o),
(358,260,o,{
name = fv01;
}),
(427,195,o),
(518,158,o),
(567,158,q,{
name = sv01;
}),
(606,158,o),
(676,181,o),
(734,223,o),
(778,281,o),
(790,316,q,{
name = sh01;
}),
(948,316,l,{
name = sh02;
}),
(934,248,o),
(863,133,o),
(761,48,o),
(633,0,o),
(561,0,q,{
name = ab01;
}),
(479,0,o),
(333,62,o,{
name = fv02;
}),
(223,169,o),
(158,313,o),
(158,395,q),
(158,711,l,{
name = dh02;
}),
(158,793,o),
(223,937,o),
(333,1044,o,{
name = fv03;
}),
(479,1106,o),
(561,1106,q,{
name = at01;
}),
(633,1106,o),
(761,1058,o),
(863,973,o),
(934,857,o),
(948,790,q,{
name = dh03;
}),
(790,790,l,{
name = dh04;
}),
(778,824,o),
(734,882,o),
(676,924,o),
(606,948,o),
(567,948,q,{
name = sv02;
}),
(518,948,o),
(427,911,o),
(358,846,o,{
name = fv04;
}),
(316,760,o),
(316,711,q,{
name = dh01;
}),
(316,395,l)
);
}
);
userData = {
com.fontlab.ttcommands = (
{
code = alignt;
point = at01;
zone = "t: 2";
},
{
code = alignb;
point = ab01;
zone = "b: 0";
},
{
align = round;
code = singlev;
point1 = ab01;
point2 = sv01;
stem = "158";
},
{
align = round;
code = singlev;
point1 = sv01;
point2 = sh01;
stem = "158";
},
{
align = round;
code = singlev;
point1 = at01;
point2 = sv02;
stem = "158";
},
{
align = round;
code = singlev;
point1 = sv02;
point2 = dh04;
stem = "158";
},
{
code = doubleh;
point1 = dh01;
point2 = dh02;
stem = "158";
},
{
code = doubleh;
point1 = dh03;
point2 = dh04;
stem = "158";
},
{
align = round;
code = singleh;
point1 = dh04;
point2 = sh01;
},
{
align = round;
code = singleh;
point1 = dh03;
point2 = sh02;
},
{
code = fdeltav;
delta = -5;
point = fv01;
ppm1 = 14;
ppm2 = 14;
},
{
code = fdeltav;
delta = 4;
point = fv02;
ppm1 = 9;
ppm2 = 9;
},
{
code = fdeltav;
delta = -5;
point = fv03;
ppm1 = 9;
ppm2 = 9;
},
{
code = fdeltav;
delta = 5;
point = fv04;
ppm1 = 14;
ppm2 = 14;
}
);
};
width = 1103;
}
);
unicode = 99;
},
{
glyphname = d;
layers = (
{
background = {
shapes = (
{
closed = 1;
nodes = (
(790,1422,l),
(790,1007,l),
(713,1062,o),
(636,1106,o),
(553,1106,cs),
(334,1106,o),
(158,930,o),
(158,711,cs),
(158,395,ls),
(158,176,o),
(334,0,o),
(553,0,cs),
(641,0,o),
(722,49,o),
(790,98,c),
(790,0,l),
(948,0,l),
(948,1422,l)
);
},
{
closed = 1;
nodes = (
(790,395,ls),
(790,264,o),
(684,158,o),
(553,158,cs),
(422,158,o),
(316,264,o),
(316,395,cs),
(316,711,ls),
(316,842,o),
(422,948,o),
(553,948,cs),
(685,948,o),
(771,876,o),
(790,720,c)
);
}
);
};
layerId = master01;
shapes = (
{
closed = 1;
nodes = (
(790,0,l),
(790,98,l),
(764,80,o),
(709,44,o),
(649,17,o),
(586,0,o),
(553,0,q,{
name = sv01;
}),
(471,0,o),
(327,62,o),
(220,169,o),
(158,313,o),
(158,395,q),
(158,711,l,{
name = dh04;
}),
(158,793,o),
(220,937,o),
(327,1044,o),
(471,1106,o),
(553,1106,q,{
name = at01;
}),
(616,1106,o),
(732,1049,o),
(790,1007,q),
(790,1422,l,{
name = dh01;
}),
(948,1422,l,{
name = dh02;
}),
(948,0,l,{
name = ab01;
})
);
},
{
closed = 1;
nodes = (
(776,837,o),
(652,948,o),
(553,948,q,{
name = sv02;
}),
(504,948,o),
(418,911,o),
(353,846,o),
(316,760,o),
(316,711,q,{
name = dh03;
}),
(316,395,l),
(316,346,o),
(353,260,o),
(418,195,o),
(504,158,o),
(553,158,q,{
name = sv03;
}),
(602,158,o),
(688,195,o),
(753,260,o),
(790,346,o),
(790,395,q,{
name = sh01;
}),
(790,720,l)
);
}
);
userData = {
com.fontlab.ttcommands = (
{
code = alignt;
point = dh02;
zone = "t: 3";
},
{
code = alignt;
point = at01;
zone = "t: 2";
},
{
code = alignb;
point = ab01;
zone = "b: 0";
},
{
align = round;
code = singlev;
point1 = ab01;
point2 = sv01;
},
{
align = round;
code = singlev;
point1 = at01;
point2 = sv02;
stem = "158";
},
{
align = round;
code = singlev;
point1 = sv01;
point2 = sv03;
stem = "158";
},
{
code = doubleh;
point1 = dh01;
point2 = dh02;
stem = "158";
},
{
code = doubleh;
point1 = dh03;
point2 = dh04;
stem = "158";
},
{
align = round;
code = singleh;
point1 = dh01;
point2 = sh01;
}
);
};
width = 1103;
}
);
unicode = 100;
},
{
glyphname = e;
layers = (
{
background = {
shapes = (
{
closed = 1;
nodes = (
(316,264,o),
(422,158,o),
(553,158,cs),
(948,158,l),
(948,0,l),
(553,0,ls),
(334,0,o),
(158,176,o),
(158,395,cs),
(158,711,ls),
(158,930,o),
(334,1106,o),
(553,1106,cs),
(772,1106,o),
(948,930,o),
(948,711,cs),
(948,474,l),
(316,474,l),
(316,395,ls)
);
},
{
closed = 1;
nodes = (
(790,632,l),
(790,711,ls),
(790,842,o),
(684,948,o),
(553,948,cs),
(422,948,o),
(316,842,o),
(316,711,cs),
(316,632,l)
);
}
);
};
layerId = master01;
shapes = (
{
closed = 1;
nodes = (
(316,346,o),
(353,260,o),
(418,195,o),
(504,158,o),
(553,158,q),
(948,158,l,{
name = sh01;
}),
(948,0,l,{
name = ab01;
}),
(553,0,l),
(471,0,o),
(327,62,o),
(220,169,o),
(158,313,o),
(158,395,q),
(158,711,l,{
name = dh02;
}),
(158,793,o),
(220,937,o),
(327,1044,o),
(471,1106,o),
(553,1106,q,{
name = at01;
}),
(635,1106,o),
(779,1044,o),
(886,937,o),
(948,793,o),
(948,711,q,{
name = dh04;
}),
(948,474,l),
(316,474,l,{
name = sh02;
}),
(316,395,l)
);
},
{
closed = 1;
nodes = (
(790,632,l),
(790,711,l,{
name = dh03;
}),
(790,760,o),
(753,846,o,{
name = fv01;
}),
(688,911,o),
(602,948,o),
(553,948,q,{
name = sv01;
}),
(504,948,o),
(418,911,o),
(353,846,o,{
name = fv02;
}),
(316,760,o),
(316,711,q),
(316,632,l,{
name = dh01;
})
);
}
);
userData = {
com.fontlab.ttcommands = (
{
code = alignt;
point = at01;
zone = "t: 2";
},
{
code = alignt;
point = sh02;
zone = "t: 0";
},
{
code = alignb;
point = ab01;
zone = "b: 0";
},
{
align = round;
code = singlev;
point1 = ab01;
point2 = sh01;
stem = "158";
},
{
align = round;
code = singlev;
point1 = sh02;
point2 = dh01;
stem = "158";
},
{
align = round;
code = singlev;
point1 = at01;
point2 = sv01;
stem = "158";
},
{
code = doubleh;
point1 = dh01;
point2 = dh02;
stem = "158";
},
{
code = doubleh;
point1 = dh03;
point2 = dh04;
stem = "158";
},
{
align = round;
code = singleh;
point1 = dh04;
point2 = sh01;
},
{
align = round;
code = singleh;
point1 = dh01;
point2 = sh02;
},
{
code = fdeltav;
delta = 5;
point = fv01;
ppm1 = 14;
ppm2 = 14;
},
{
code = fdeltav;
delta = 5;
point = fv02;
ppm1 = 14;
ppm2 = 14;
}
);
};
width = 1103;
}
);
unicode = 101;
},
{
glyphname = f;
layers = (
{
background = {
shapes = (
{
closed = 1;
nodes = (
(316,948,l),
(316,1027,ls),
(316,1246,o),
(492,1422,o),
(711,1422,cs),
(948,1422,l),
(948,1264,l),
(711,1264,ls),
(580,1264,o),
(474,1158,o),
(474,1027,cs),
(474,948,l),
(790,948,l),
(790,790,l),
(474,790,l),
(474,0,l),
(316,0,l),
(316,790,l),
(158,790,l),
(158,948,l)
);
}
);
};
layerId = master01;
shapes = (
{
closed = 1;
nodes = (
(316,948,l,{
name = sh01;
}),
(316,1027,l),
(316,1109,o),
(378,1253,o),
(485,1360,o),
(629,1422,o),
(711,1422,q),
(948,1422,l,{
name = at01;
}),
(948,1264,l,{
name = ah03;
}),
(711,1264,l),
(662,1264,o),
(576,1227,o),
(511,1162,o),
(474,1076,o),
(474,1027,q),
(474,948,l,{
name = sh02;
}),
(790,948,l,{
name = sv01;
}),
(790,790,l,{
name = ah02;
}),
(474,790,l),
(474,0,l,{
name = dh02;
}),
(316,0,l,{
name = dh01;
}),
(316,790,l,{
name = sv02;
}),
(158,790,l,{
name = ah01;
}),
(158,948,l)
);
}
);
userData = {
com.fontlab.ttcommands = (
{
code = alignt;
point = at01;
zone = "t: 3";
},
{
code = alignt;
point = ah02;
zone = "t: 1";
},
{
code = alignb;
point = dh02;
zone = "b: 0";
},
{
align = round;
code = singlev;
point1 = ah02;
point2 = sv01;
stem = "158";
},
{
align = left;
code = singlev;
point1 = sv01;
point2 = sh01;
},
{
align = round;
code = singlev;
point1 = at01;
point2 = ah03;
stem = "158";
},
{
align = round;
code = singlev;
point1 = ah02;
point2 = sv02;
},
{
align = round;
code = alignh;
point = ah01;
},
{
align = round;
code = alignh;
point = ah02;
},
{
align = round;
code = alignh;
point = ah03;
},
{
code = doubleh;
point1 = dh01;
point2 = dh02;
stem = "158";
},
{
align = left;
code = singleh;
point1 = dh01;
point2 = sh01;
},
{
align = round;
code = singleh;
point1 = dh02;
point2 = sh02;
}
);
};
width = 1103;
}
);
unicode = 102;
},
{
glyphname = g;
layers = (
{
background = {
shapes = (
{
closed = 1;
nodes = (
(553,-316,ls),
(684,-316,o),
(790,-210,o),
(790,-79,cs),
(790,99,l),
(723,50,o),
(642,0,o),
(553,0,cs),
(334,0,o),
(158,176,o),
(158,395,cs),
(158,711,ls),
(158,930,o),
(334,1106,o),
(553,1106,cs),
(642,1106,o),
(723,1057,o),
(790,1006,c),
(790,1106,l),
(948,1106,l),
(948,-79,ls),
(948,-298,o),
(772,-474,o),
(553,-474,cs),
(316,-474,l),
(316,-316,l)
);
},
{
closed = 1;
nodes = (
(316,264,o),
(422,158,o),
(553,158,cs),
(680,158,o),
(790,253,o),
(790,385,c),
(790,721,l),
(790,846,o),
(680,948,o),
(553,948,cs),
(422,948,o),
(316,842,o),
(316,711,cs),
(316,395,ls)
);
}
);
};
layerId = master01;
shapes = (
{
closed = 1;
nodes = (
(553,-316,l,{
name = sv01;
}),
(602,-316,o),
(688,-279,o),
(753,-214,o),
(790,-128,o),
(790,-79,q,{
name = dh01;
}),
(790,99,l),
(765,81,o),
(710,45,o),
(650,17,o),
(586,0,o),
(553,0,q,{
name = ab01;
}),
(471,0,o),
(327,62,o),
(220,169,o),
(158,313,o),
(158,395,q),
(158,711,l,{
name = dh04;
}),
(158,793,o),
(220,937,o),
(327,1044,o),
(471,1106,o),
(553,1106,q,{
name = at01;
}),
(586,1106,o),
(650,1089,o),
(710,1061,o),
(765,1025,o),
(790,1006,q),
(790,1106,l),
(948,1106,l,{
name = at02;
}),
(948,-79,l,{
name = dh02;
}),
(948,-161,o),
(886,-305,o),
(779,-412,o),
(635,-474,o),
(553,-474,q,{
name = ab02;
}),
(316,-474,l),
(316,-316,l,{
name = sh01;
})
);
},
{
closed = 1;
nodes = (
(316,346,o),
(353,260,o),
(418,195,o),
(504,158,o),
(553,158,q,{
name = sv02;
}),
(601,158,o),
(687,192,o),
(752,252,o),
(790,335,o),
(790,385,q,{
name = sh02;
}),
(790,721,l),
(790,768,o),
(752,851,o),
(687,912,o),
(601,948,o),
(553,948,q,{
name = sv03;
}),
(504,948,o),
(418,911,o),
(353,846,o),
(316,760,o),
(316,711,q,{
name = dh03;
}),
(316,395,l)
);
}
);
userData = {
com.fontlab.ttcommands = (
{
code = alignt;
point = at01;
zone = "t: 2";
},
{
code = alignt;
point = at02;
zone = "t: 2";
},
{
code = alignb;
point = ab01;
zone = "b: 0";
},
{
code = alignb;
point = ab02;
zone = "b: 2";
},
{
align = left;
code = singlev;
point1 = ab02;
point2 = sv01;
stem = "158";
},
{
align = round;
code = singlev;
point1 = ab01;
point2 = sv02;
stem = "158";
},
{
align = round;
code = singlev;
point1 = at01;
point2 = sv03;
stem = "158";
},
{
code = doubleh;
point1 = dh01;
point2 = dh02;
stem = "158";
},
{
code = doubleh;
point1 = dh03;
point2 = dh04;
stem = "158";
},
{
align = round;
code = singleh;
point1 = dh03;
point2 = sh01;
},
{
align = round;
code = singleh;
point1 = dh01;
point2 = sh02;
}
);
};
width = 1103;
}
);
unicode = 103;
},
{
glyphname = h;
layers = (
{
background = {
shapes = (
{
closed = 1;
nodes = (
(948,0,l),
(948,711,ls),
(948,930,o),
(772,1106,o),
(553,1106,cs),
(464,1106,o),
(383,1057,o),
(316,1006,c),
(316,1422,l),
(158,1422,l),
(158,0,l),
(316,0,l),
(316,721,l),
(316,845,o),
(424,948,o),
(553,948,cs),
(684,948,o),
(790,842,o),
(790,711,cs),
(790,0,l)
);
}
);
};
layerId = master01;
shapes = (
{
closed = 1;
nodes = (
(790,760,o),
(753,846,o),
(688,911,o),
(602,948,o),
(553,948,q,{
name = sv01;
}),
(505,948,o),
(418,912,o),
(354,850,o),
(316,767,o),
(316,721,q),
(316,0,l,{
name = dh02;
}),
(158,0,l,{
name = dh01;
}),
(158,1422,l,{
name = at02;
}),
(316,1422,l,{
name = sh01;
}),
(316,1006,l,{
name = mv01;
}),
(341,1025,o),
(396,1061,o),
(456,1089,o),
(520,1106,o),
(553,1106,q,{
name = at01;
}),
(635,1106,o),
(779,1044,o,{
name = mv02;
}),
(886,937,o),
(948,793,o),
(948,711,q),
(948,0,l,{
name = dh03;
}),
(790,0,l,{
name = dh04;
}),
(790,711,l)
);
}
);
userData = {
com.fontlab.ttcommands = (
{
code = alignt;
point = at01;
zone = "t: 2";
},
{
code = alignt;
point = at02;
zone = "t: 3";
},
{
code = alignb;
point = dh01;
zone = "b: 0";
},
{
align = round;
code = singlev;
point1 = at01;
point2 = sv01;
stem = "158";
},
{
code = mdeltav;
delta = -3;
point = mv01;
ppm1 = 15;
ppm2 = 16;
},
{
code = mdeltav;
delta = -3;
point = mv02;
ppm1 = 15;
ppm2 = 16;
},
{
align = round;
code = singlev;
point1 = dh01;
point2 = dh04;
},
{
code = doubleh;
point1 = dh01;
point2 = dh02;
stem = "158";
},
{
code = doubleh;
point1 = dh03;
point2 = dh04;
stem = "158";
},
{
align = round;
code = singleh;
point1 = dh02;
point2 = sh01;
}
);
};
width = 1103;
}
);
unicode = 104;
},
{
glyphname = i;
layers = (
{
background = {
shapes = (
{
closed = 1;
nodes = (
(316,948,l),
(316,1106,l),
(632,1106,l),
(632,0,l),
(474,0,l),
(474,948,l)
);
},
{
closed = 1;
nodes = (
(632,1422,l),
(632,1264,l),
(474,1264,l),
(474,1422,l)
);
}
);
};
layerId = master01;
shapes = (
{
closed = 1;
nodes = (
(316,948,l,{
name = sh01;
}),
(316,1106,l,{
name = at01;
}),
(632,1106,l),
(632,0,l,{
name = dh02;
}),
(474,0,l,{
name = dh01;
}),
(474,948,l)
);
},
{
closed = 1;
nodes = (
(632,1422,l),
(632,1264,l,{
name = sh02;
}),
(474,1264,l,{
name = sh03;
}),
(474,1422,l,{
name = sv01;
})
);
}
);
userData = {
com.fontlab.ttcommands = (
{
code = alignt;
point = at01;
zone = "t: 2";
},
{
code = alignb;
point = dh01;
zone = "b: 0";
},
{
align = left;
code = singlev;
point1 = at01;
point2 = sh01;
stem = "158";
},
{
align = round;
code = singlev;
point1 = at01;
point2 = sh03;
stem = "158";
},
{
align = round;
code = singlev;
point1 = sh03;
point2 = sv01;
stem = "158";
},
{
code = doubleh;
point1 = dh01;
point2 = dh02;
stem = "158";
},
{
align = left;
code = singleh;
point1 = dh01;
point2 = sh01;
stem = "158";
},
{
align = round;
code = singleh;
point1 = dh02;
point2 = sh02;
},
{
align = round;
code = singleh;
point1 = dh01;
point2 = sh03;
}
);
};
width = 1103;
}
);
unicode = 105;
},
{
glyphname = j;
layers = (
{
background = {
shapes = (
{
closed = 1;
nodes = (
(395,-158,ls),
(553,-158,o),
(632,-79,o),
(632,79,cs),
(632,948,l),
(474,948,l),
(474,1106,l),
(790,1106,l),
(790,0,ls),
(790,-158,o),
(632,-316,o),
(474,-316,cs),
(158,-316,l),
(158,-158,l)
);
},
{
closed = 1;
nodes = (
(790,1422,l),
(790,1264,l),
(632,1264,l),
(632,1422,l)
);
}
);
};
layerId = master01;
shapes = (
{
closed = 1;
nodes = (
(395,-158,l),
(632,-158,o),
(632,79,q,{
name = dh01;
}),
(632,948,l),
(474,948,l,{
name = sh01;
}),
(474,1106,l,{
name = sv01;
}),
(790,1106,l),
(790,0,l,{
name = dh02;
}),
(790,-59,o),
(736,-173,o),
(647,-262,o,{
name = mv01;
}),
(533,-316,o),
(474,-316,q),
(158,-316,l,{
name = av01;
}),
(158,-158,l,{
name = ah01;
})
);
},
{
closed = 1;
nodes = (
(790,1422,l),
(790,1264,l,{
name = sh02;
}),
(632,1264,l,{
name = sh03;
}),
(632,1422,l,{
name = at01;
})
);
}
);
userData = {
com.fontlab.ttcommands = (
{
align = round;
code = alignv;
point = av01;
},
{
code = alignt;
point = at01;
zone = "t: 3";
},
{
align = round;
code = singlev;
point1 = av01;
point2 = ah01;
stem = "158";
},
{
align = round;
code = singlev;
point1 = at01;
point2 = sh03;
stem = "158";
},
{
align = round;
code = singlev;
point1 = sh03;
point2 = sv01;
stem = "158";
},
{
align = round;
code = singlev;
point1 = sv01;
point2 = sh01;
stem = "158";
},
{
code = mdeltav;
delta = 3;
point = mv01;
ppm1 = 11;
ppm2 = 11;
},
{
align = round;
code = alignh;
point = ah01;
},
{
code = doubleh;
point1 = dh01;
point2 = dh02;
stem = "158";
},
{
align = round;
code = singleh;
point1 = dh01;
point2 = sh01;
stem = "158";
},
{
align = round;
code = singleh;
point1 = dh02;
point2 = sh02;
},
{
align = round;
code = singleh;
point1 = dh01;
point2 = sh03;
}
);
};
width = 1103;
}
);
unicode = 106;
},
{
glyphname = k;
layers = (
{
background = {
shapes = (
{
closed = 1;
nodes = (
(354,632,l),
(754,1106,l),
(948,1106,l),
(495,553,l),
(948,0,l),
(754,0,l),
(354,474,l),
(316,474,l),
(316,0,l),
(158,0,l),
(158,1422,l),
(316,1422,l),
(316,632,l)
);
}
);
};
layerId = master01;
shapes = (
{
closed = 1;
nodes = (
(354,632,l,{
name = mh01;
}),
(754,1106,l,{
name = dh03;
}),
(948,1106,l,{
name = dh04;
}),
(495,553,l),
(948,0,l,{
name = dh05;
}),
(754,0,l,{
name = dh06;
}),
(354,474,l,{
name = mh02;
}),
(316,474,l,{
name = mv01;
}),
(316,0,l,{
name = sh01;
}),
(158,0,l,{
name = sh02;
}),
(158,1422,l,{
name = dh01;
}),
(316,1422,l,{
name = dh02;
}),
(316,632,l)
);
}
);
userData = {
com.fontlab.ttcommands = (
{
code = alignt;
point = dh01;
zone = "t: 3";
},
{
code = alignt;
point = dh04;
zone = "t: 2";
},
{
code = alignb;
point = sh02;
zone = "b: 0";
},
{
align = round;
code = singlev;
point1 = sh02;
point2 = dh05;
},
{
code = mdeltav;
delta = 4;
point = mv01;
ppm1 = 15;
ppm2 = 15;
},
{
code = doubleh;
point1 = dh01;
point2 = dh02;
stem = "158";
},
{
code = doubleh;
point1 = dh03;
point2 = dh04;
stem = "158";
},
{
code = doubleh;
point1 = dh05;
point2 = dh06;
stem = "158";
},
{
code = mdeltah;
delta = 4;
point = mh01;
ppm1 = 15;
ppm2 = 15;
},
{
code = mdeltah;
delta = 4;
point = mh02;
ppm1 = 15;
ppm2 = 15;
},
{
align = round;
code = singleh;
point1 = dh02;
point2 = sh01;
},
{
align = round;
code = singleh;
point1 = dh01;
point2 = sh02;
}
);
};
width = 1103;
}
);
unicode = 107;
},
{
glyphname = l;
layers = (
{
background = {
shapes = (
{
closed = 1;
nodes = (
(316,1264,l),
(316,1422,l),
(632,1422,l),
(632,0,l),
(474,0,l),
(474,1264,l)
);
}
);
};
layerId = master01;
shapes = (
{
closed = 1;
nodes = (
(316,1264,l,{
name = sh01;
}),
(316,1422,l,{
name = at01;
}),
(632,1422,l),
(632,0,l,{
name = dh02;
}),
(474,0,l,{
name = dh01;
}),
(474,1264,l)
);
}
);
userData = {
com.fontlab.ttcommands = (
{
code = alignt;
point = at01;
zone = "t: 3";
},
{
code = alignb;
point = dh01;
zone = "b: 0";
},
{
align = left;
code = singlev;
point1 = at01;
point2 = sh01;
stem = "158";
},
{
code = doubleh;
point1 = dh01;
point2 = dh02;
stem = "158";
},
{
align = left;
code = singleh;
point1 = dh01;
point2 = sh01;
stem = "158";
}
);
};
width = 1103;
}
);
unicode = 108;
},
{
glyphname = m;
layers = (
{
background = {
shapes = (
{
closed = 1;
nodes = (
(316,0,l),
(316,876,l),
(316,924,o),
(344,948,o),
(395,948,cs),
(445,948,o),
(471,924,o),
(474,876,c),
(474,0,l),
(632,0,l),
(632,876,l),
(632,924,o),
(660,948,o),
(711,948,cs),
(764,948,o),
(790,922,o),
(790,869,c),
(790,0,l),
(948,0,l),
(948,909,l),
(948,1018,o),
(820,1106,o),
(711,1106,cs),
(645,1106,o),
(589,1075,o),
(553,1027,c),
(526,1072,o),
(488,1106,o),
(434,1106,cs),
(389,1106,o),
(348,1092,o),
(316,1067,c),
(316,1106,l),
(158,1106,l),
(158,0,l)
);
}
);
};
layerId = master01;
shapes = (
{
closed = 1;
nodes = (
(316,1106,l),
(316,1067,l),
(366,1106,o),
(434,1106,q,{
name = at02;
}),
(475,1106,o),
(533,1061,o),
(553,1027,q,{
name = mv01;
}),
(580,1063,o),
(661,1106,o),
(711,1106,q,{
name = at01;
}),
(752,1106,o),
(836,1075,o,{
name = mv02;
}),
(905,1022,o),
(948,950,o),
(948,909,q),
(948,0,l,{
name = ah02;
}),
(790,0,l,{
name = sh01;
}),
(790,869,l),
(790,948,o),
(711,948,q,{
name = sv01;
}),
(632,948,o),
(632,876,q),
(632,0,l,{
name = dh02;
}),
(474,0,l,{
name = dh01;
}),
(474,876,l),
(469,948,o),
(395,948,q,{
name = sv02;
}),
(316,948,o),
(316,876,q),
(316,0,l,{
name = sh02;
}),
(158,0,l,{
name = ah01;
}),
(158,1106,l)
);
}
);
userData = {
com.fontlab.ttcommands = (
{
code = alignt;
point = at01;
zone = "t: 2";
},
{
code = alignt;
point = at02;
zone = "t: 2";
},
{
code = alignb;
point = ah01;
zone = "b: 0";
},
{
code = mdeltav;
delta = -6;
point = mv01;
ppm1 = 15;
ppm2 = 16;
},
{
code = mdeltav;
delta = -3;
point = mv01;
ppm1 = 13;
ppm2 = 13;
},
{
code = mdeltav;
delta = -4;
point = mv01;
ppm1 = 11;
ppm2 = 11;
},
{
code = mdeltav;
delta = -6;
point = mv01;
ppm1 = 12;
ppm2 = 12;
},
{
code = mdeltav;
delta = -7;
point = mv01;
ppm1 = 9;
ppm2 = 10;
},
{
code = mdeltav;
delta = -3;
point = mv02;
ppm1 = 14;
ppm2 = 14;
},
{
code = mdeltav;
delta = -3;
point = mv02;
ppm1 = 11;
ppm2 = 11;
},
{
code = mdeltav;
delta = -5;
point = mv02;
ppm1 = 9;
ppm2 = 9;
},
{
align = round;
code = singlev;
point1 = ah01;
point2 = sh01;
},
{
align = round;
code = singlev;
point1 = at01;
point2 = sv01;
stem = "158";
},
{
align = round;
code = singlev;
point1 = ah01;
point2 = dh01;
},
{
align = round;
code = singlev;
point1 = at02;
point2 = sv02;
stem = "158";
},
{
align = round;
code = alignh;
point = ah01;
},
{
align = round;
code = alignh;
point = ah02;
},
{
code = doubleh;
point1 = dh01;
point2 = dh02;
stem = "158";
},
{
code = mdeltah;
delta = 5;
point = ah02;
ppm1 = 19;
ppm2 = 19;
},
{
code = mdeltah;
delta = 6;
point = ah02;
ppm1 = 28;
ppm2 = 28;
},
{
code = mdeltah;
delta = 5;
point = ah02;
ppm1 = 15;
ppm2 = 16;
},
{
code = mdeltah;
delta = -2;
point = ah02;
ppm1 = 9;
ppm2 = 9;
},
{
align = round;
code = singleh;
point1 = ah02;
point2 = sh01;
stem = "158";
},
{
code = mdeltah;
delta = -3;
point = ah01;
ppm1 = 9;
ppm2 = 9;
},
{
code = mdeltah;
delta = -6;
point = ah01;
ppm1 = 10;
ppm2 = 11;
},
{
align = round;
code = singleh;
point1 = ah01;
point2 = sh02;
stem = "158";
},
{
code = fdeltav;
delta = -5;
point = mv02;
ppm1 = 13;
ppm2 = 13;
}
);
};
width = 1103;
}
);
unicode = 109;
},
{
glyphname = n;
layers = (
{
background = {
shapes = (
{
closed = 1;
nodes = (
(424,948,o),
(316,849,o),
(316,721,c),
(316,0,l),
(158,0,l),
(158,1106,l),
(316,1106,l),
(316,1006,l),
(383,1057,o),
(464,1106,o),
(553,1106,cs),
(772,1106,o),
(948,930,o),
(948,711,cs),
(948,0,l),
(790,0,l),
(790,711,ls),
(790,842,o),
(684,948,o),
(553,948,cs)
);
}
);
};
layerId = master01;
shapes = (
{
closed = 1;
nodes = (
(505,948,o),
(418,913,o),
(354,852,o),
(316,769,o),
(316,721,q,{
name = mv01;
}),
(316,0,l,{
name = dh02;
}),
(158,0,l,{
name = dh01;
}),
(158,1106,l),
(316,1106,l),
(316,1006,l,{
name = mv02;
}),
(341,1025,o),
(396,1061,o),
(456,1089,o),
(520,1106,o),
(553,1106,q,{
name = at01;
}),
(635,1106,o),
(779,1044,o),
(886,937,o),
(948,793,o),
(948,711,q),
(948,0,l,{
name = dh04;
}),
(790,0,l,{
name = dh03;
}),
(790,711,l),
(790,760,o),
(753,846,o),
(688,911,o),
(602,948,o),
(553,948,q,{
name = sv01;
})
);
}
);
userData = {
com.fontlab.ttcommands = (
{
code = alignt;
point = at01;
zone = "t: 2";
},
{
code = alignb;
point = dh02;
zone = "b: 0";
},
{
align = round;
code = singlev;
point1 = at01;
point2 = sv01;
stem = "158";
},
{
code = mdeltav;
delta = -8;
point = mv01;
ppm1 = 13;
ppm2 = 13;
},
{
code = mdeltav;
delta = -4;
point = mv02;
ppm1 = 13;
ppm2 = 13;
},
{
align = round;
code = singlev;
point1 = dh02;
point2 = dh03;
},
{
code = doubleh;
point1 = dh01;
point2 = dh02;
stem = "158";
},
{
code = doubleh;
point1 = dh03;
point2 = dh04;
stem = "158";
}
);
};
width = 1103;
}
);
unicode = 110;
},
{
glyphname = o;
layers = (
{
background = {
shapes = (
{
closed = 1;
nodes = (
(158,930,o),
(334,1106,o),
(553,1106,cs),
(772,1106,o),
(948,930,o),
(948,711,cs),
(948,395,ls),
(948,176,o),
(772,0,o),
(553,0,cs),
(334,0,o),
(158,176,o),
(158,395,cs),
(158,711,ls)
);
},
{
closed = 1;
nodes = (
(316,264,o),
(422,158,o),
(553,158,cs),
(684,158,o),
(790,264,o),
(790,395,cs),
(790,711,ls),
(790,842,o),
(684,948,o),
(553,948,cs),
(422,948,o),
(316,842,o),
(316,711,cs),
(316,395,ls)
);
}
);
};
layerId = master01;
shapes = (
{
closed = 1;
nodes = (
(158,793,o),
(220,937,o),
(327,1044,o),
(471,1106,o),
(553,1106,q,{
name = at01;
}),
(635,1106,o),
(779,1044,o),
(886,937,o),
(948,793,o),
(948,711,q,{
name = dh04;
}),
(948,395,l),
(948,313,o),
(886,169,o),
(779,62,o),
(635,0,o),
(553,0,q,{
name = ab01;
}),
(471,0,o),
(327,62,o),
(220,169,o),
(158,313,o),
(158,395,q),
(158,711,l,{
name = dh02;
})
);
},
{
closed = 1;
nodes = (
(316,346,o),
(353,260,o),
(418,195,o),
(504,158,o),
(553,158,q,{
name = sv01;
}),
(602,158,o),
(688,195,o),
(753,260,o),
(790,346,o),
(790,395,q),
(790,711,l,{
name = dh03;
}),
(790,760,o),
(753,846,o),
(688,911,o),
(602,948,o),
(553,948,q,{
name = sv02;
}),
(504,948,o),
(418,911,o),
(353,846,o),
(316,760,o),
(316,711,q,{
name = dh01;
}),
(316,395,l)
);
}
);
userData = {
com.fontlab.ttcommands = (
{
code = alignt;
point = at01;
zone = "t: 2";
},
{
code = alignb;
point = ab01;
zone = "b: 0";
},
{
align = round;
code = singlev;
point1 = ab01;
point2 = sv01;
stem = "158";
},
{
align = round;
code = singlev;
point1 = at01;
point2 = sv02;
stem = "158";
},
{
code = doubleh;
point1 = dh01;
point2 = dh02;
stem = "158";
},
{
code = doubleh;
point1 = dh03;
point2 = dh04;
stem = "158";
}
);
};
width = 1103;
}
);
unicode = 111;
},
{
glyphname = p;
layers = (
{
background = {
shapes = (
{
closed = 1;
nodes = (
(316,1106,l),
(316,1006,l),
(383,1057,o),
(464,1106,o),
(553,1106,cs),
(772,1106,o),
(948,930,o),
(948,711,cs),
(948,395,ls),
(948,176,o),
(772,0,o),
(553,0,cs),
(464,0,o),
(383,50,o),
(316,99,c),
(316,-474,l),
(158,-474,l),
(158,1106,l)
);
},
{
closed = 1;
nodes = (
(425,948,o),
(316,868,o),
(316,711,cs),
(316,395,ls),
(316,238,o),
(425,158,o),
(553,158,cs),
(684,158,o),
(790,264,o),
(790,395,cs),
(790,711,ls),
(790,842,o),
(684,948,o),
(553,948,cs)
);
}
);
};
layerId = master01;
shapes = (
{
closed = 1;
nodes = (
(316,1106,l),
(316,1006,l),
(341,1025,o),
(396,1061,o),
(456,1089,o),
(520,1106,o),
(553,1106,q,{
name = at01;
}),
(635,1106,o),
(779,1044,o),
(886,937,o),
(948,793,o),
(948,711,q,{
name = dh02;
}),
(948,395,l),
(948,313,o),
(886,169,o),
(779,62,o),
(635,0,o),
(553,0,q,{
name = dv01;
}),
(520,0,o),
(456,17,o),
(396,45,o),
(341,81,o),
(316,99,q),
(316,-474,l,{
name = dh06;
}),
(158,-474,l,{
name = dh05;
}),
(158,1106,l,{
name = dh04;
})
);
},
{
closed = 1;
nodes = (
(505,948,o),
(419,918,o),
(354,859,o),
(316,770,o),
(316,711,q),
(316,395,l,{
name = dh03;
}),
(316,336,o),
(354,247,o),
(419,188,o),
(505,158,o),
(553,158,q,{
name = dv02;
}),
(602,158,o),
(688,195,o),
(753,260,o),
(790,346,o),
(790,395,q),
(790,711,l,{
name = dh01;
}),
(790,760,o),
(753,846,o),
(688,911,o),
(602,948,o),
(553,948,q,{
name = sv01;
})
);
}
);
userData = {
com.fontlab.ttcommands = (
{
code = alignt;
point = at01;
zone = "t: 2";
},
{
code = alignb;
point = dh06;
zone = "b: 2";
},
{
code = doublev;
point1 = dv01;
point2 = dv02;
stem = "158";
},
{
align = round;
code = singlev;
point1 = at01;
point2 = sv01;
stem = "158";
},
{
code = doubleh;
point1 = dh01;
point2 = dh02;
stem = "158";
},
{
code = doubleh;
point1 = dh03;
point2 = dh04;
stem = "158";
},
{
code = doubleh;
point1 = dh05;
point2 = dh06;
stem = "158";
}
);
};
width = 1103;
}
);
unicode = 112;
},
{
glyphname = q;
layers = (
{
background = {
shapes = (
{
closed = 1;
nodes = (
(723,50,o),
(642,0,o),
(553,0,cs),
(334,0,o),
(158,176,o),
(158,395,cs),
(158,711,ls),
(158,930,o),
(334,1106,o),
(553,1106,cs),
(642,1106,o),
(723,1057,o),
(790,1006,c),
(790,1106,l),
(948,1106,l),
(948,-474,l),
(790,-474,l),
(790,99,l)
);
},
{
closed = 1;
nodes = (
(316,264,o),
(422,158,o),
(553,158,cs),
(681,158,o),
(790,238,o),
(790,395,cs),
(790,711,ls),
(790,868,o),
(681,948,o),
(553,948,cs),
(422,948,o),
(316,842,o),
(316,711,cs),
(316,395,ls)
);
}
);
};
layerId = master01;
shapes = (
{
closed = 1;
nodes = (
(765,81,o),
(710,45,o),
(650,17,o),
(586,0,o),
(553,0,q,{
name = ab01;
}),
(471,0,o),
(327,62,o),
(220,169,o),
(158,313,o),
(158,395,q),
(158,711,l,{
name = dh01;
}),
(158,793,o),
(220,937,o),
(327,1044,o),
(471,1106,o),
(553,1106,q,{
name = sv01;
}),
(586,1106,o),
(650,1089,o),
(710,1061,o),
(765,1025,o),
(790,1006,q),
(790,1106,l),
(948,1106,l,{
name = dh03;
}),
(948,-474,l),
(790,-474,l,{
name = sh01;
}),
(790,99,l)
);
},
{
closed = 1;
nodes = (
(316,346,o),
(353,260,o),
(418,195,o),
(504,158,o),
(553,158,q,{
name = sv02;
}),
(601,158,o),
(687,188,o),
(752,247,o),
(790,336,o),
(790,395,q,{
name = dh04;
}),
(790,711,l),
(790,770,o),
(752,859,o),
(687,918,o),
(601,948,o),
(553,948,q,{
name = sv03;
}),
(504,948,o),
(418,911,o),
(353,846,o),
(316,760,o),
(316,711,q,{
name = dh02;
}),
(316,395,l)
);
}
);
userData = {
com.fontlab.ttcommands = (
{
code = alignt;
point = dh03;
zone = "t: 2";
},
{
code = alignb;
point = ab01;
zone = "b: 0";
},
{
code = alignb;
point = sh01;
zone = "b: 2";
},
{
align = round;
code = singlev;
point1 = dh03;
point2 = sv01;
},
{
align = round;
code = singlev;
point1 = ab01;
point2 = sv02;
stem = "158";
},
{
align = round;
code = singlev;
point1 = sv01;
point2 = sv03;
stem = "158";
},
{
code = doubleh;
point1 = dh01;
point2 = dh02;
stem = "158";
},
{
code = doubleh;
point1 = dh03;
point2 = dh04;
stem = "158";
},
{
align = round;
code = singleh;
point1 = dh04;
point2 = sh01;
}
);
};
width = 1103;
}
);
unicode = 113;
},
{
glyphname = r;
layers = (
{
background = {
shapes = (
{
closed = 1;
nodes = (
(158,1106,l),
(316,1106,l),
(316,946,l),
(361,1028,o),
(543,1106,o),
(632,1106,cs),
(823,1106,o),
(902,970,o),
(940,790,c),
(776,790,l),
(735,910,o),
(708,948,o),
(632,948,cs),
(504,948,o),
(316,786,o),
(316,631,cs),
(316,0,l),
(158,0,l)
);
}
);
};
layerId = master01;
shapes = (
{
closed = 1;
nodes = (
(158,1106,l,{
name = dh01;
}),
(316,1106,l),
(316,946,l),
(333,977,o),
(411,1034,o,{
name = mv01;
}),
(504,1079,o),
(599,1106,o),
(632,1106,q,{
name = at01;
}),
(704,1106,o),
(807,1058,o),
(880,973,o,{
name = fv01;
}),
(926,857,o),
(940,790,q,{
name = dh04;
}),
(776,790,l,{
name = dh03;
}),
(761,835,o),
(733,896,o),
(701,932,o),
(660,948,o),
(632,948,q,{
name = sv01;
}),
(600,948,o),
(528,923,o),
(458,878,o),
(394,817,o),
(345,747,o),
(316,670,o),
(316,631,q,{
name = dh02;
}),
(316,0,l),
(158,0,l,{
name = ab01;
})
);
}
);
userData = {
com.fontlab.ttcommands = (
{
code = alignt;
point = at01;
zone = "t: 2";
},
{
code = alignt;
point = dh01;
zone = "t: 2";
},
{
code = alignb;
point = ab01;
zone = "b: 0";
},
{
code = mdeltav;
delta = -4;
point = mv01;
ppm1 = 11;
ppm2 = 11;
},
{
code = mdeltav;
delta = -7;
point = mv01;
ppm1 = 10;
ppm2 = 10;
},
{
align = round;
code = singlev;
point1 = at01;
point2 = sv01;
stem = "158";
},
{
align = round;
code = singlev;
point1 = sv01;
point2 = dh03;
},
{
code = doubleh;
point1 = dh01;
point2 = dh02;
stem = "158";
},
{
code = doubleh;
point1 = dh03;
point2 = dh04;
stem = "158";
},
{
code = fdeltav;
delta = -5;
point = fv01;
ppm1 = 10;
ppm2 = 10;
}
);
};
width = 1103;
}
);
unicode = 114;
},
{
glyphname = s;
layers = (
{
background = {
shapes = (
{
closed = 1;
nodes = (
(948,948,l),
(553,948,ls),
(396,948,o),
(316,869,o),
(316,790,cs),
(316,711,o),
(316,632,o),
(553,632,cs),
(790,632,o),
(948,554,o),
(948,318,cs),
(948,158,o),
(790,0,o),
(553,0,cs),
(158,0,l),
(158,158,l),
(553,158,ls),
(710,158,o),
(790,237,o),
(790,318,cs),
(790,395,o),
(790,474,o),
(553,474,cs),
(316,474,o),
(158,554,o),
(158,790,cs),
(158,948,o),
(316,1106,o),
(553,1106,cs),
(948,1106,l)
);
}
);
};
layerId = master01;
shapes = (
{
closed = 1;
nodes = (
(948,948,l,{
name = sh01;
}),
(553,948,l),
(494,948,o),
(405,921,o),
(346,876,o),
(316,820,o),
(316,790,q,{
name = dh03;
}),
(316,760,o),
(323,704,o),
(368,659,o),
(464,632,o),
(553,632,q,{
name = dv02;
}),
(642,632,o),
(788,600,o),
(891,527,o),
(948,406,o),
(948,318,q,{
name = dh01;
}),
(948,258,o),
(891,144,o),
(788,54,o),
(642,0,o),
(553,0,q),
(158,0,l,{
name = ab01;
}),
(158,158,l,{
name = sh02;
}),
(553,158,l),
(612,158,o),
(701,185,o),
(760,230,o),
(790,288,o),
(790,318,q,{
name = dh02;
}),
(790,347,o),
(783,403,o),
(738,447,o),
(642,474,o),
(553,474,q,{
name = dv01;
}),
(464,474,o),
(318,506,o),
(215,581,o,{
name = mv01;
}),
(158,701,o),
(158,790,q,{
name = dh04;
}),
(158,849,o),
(215,963,o),
(318,1052,o),
(464,1106,o),
(553,1106,q),
(948,1106,l,{
name = at01;
})
);
}
);
userData = {
com.fontlab.ttcommands = (
{
code = alignt;
point = at01;
zone = "t: 2";
},
{
code = alignb;
point = ab01;
zone = "b: 0";
},
{
code = doublev;
point1 = dv01;
point2 = dv02;
stem = "158";
},
{
align = left;
code = singlev;
point1 = at01;
point2 = sh01;
stem = "158";
},
{
code = mdeltav;
delta = 8;
point = dv02;
ppm1 = 14;
ppm2 = 14;
},
{
code = mdeltav;
delta = 6;
point = dv02;
ppm1 = 11;
ppm2 = 11;
},
{
align = round;
code = singlev;
point1 = ab01;
point2 = sh02;
stem = "158";
},
{
code = mdeltav;
delta = 7;
point = dv01;
ppm1 = 14;
ppm2 = 14;
},
{
code = mdeltav;
delta = 6;
point = dv01;
ppm1 = 11;
ppm2 = 11;
},
{
code = mdeltav;
delta = 4;
point = mv01;
ppm1 = 12;
ppm2 = 12;
},
{
code = doubleh;
point1 = dh01;
point2 = dh02;
stem = "158";
},
{
code = doubleh;
point1 = dh03;
point2 = dh04;
stem = "158";
},
{
align = left;
code = singleh;
point1 = dh01;
point2 = sh01;
},
{
align = round;
code = singleh;
point1 = dh04;
point2 = sh02;
},
{
code = fdeltav;
delta = 5;
point = mv01;
ppm1 = 14;
ppm2 = 14;
},
{
code = fdeltah;
delta = 6;
point = mv01;
ppm1 = 11;
ppm2 = 11;
}
);
};
width = 1103;
}
);
unicode = 115;
},
{
glyphname = t;
layers = (
{
background = {
shapes = (
{
closed = 1;
nodes = (
(316,1106,l),
(316,1422,l),
(474,1422,l),
(474,1106,l),
(790,1106,l),
(790,948,l),
(474,948,l),
(474,395,ls),
(474,264,o),
(580,158,o),
(711,158,cs),
(948,158,l),
(948,0,l),
(711,0,ls),
(492,0,o),
(316,176,o),
(316,395,cs),
(316,948,l),
(158,948,l),
(158,1106,l)
);
}
);
};
layerId = master01;
shapes = (
{
closed = 1;
nodes = (
(316,1106,l),
(316,1422,l,{
name = dh01;
}),
(474,1422,l,{
name = dh02;
}),
(474,1106,l,{
name = sv01;
}),
(790,1106,l),
(790,948,l,{
name = ah02;
}),
(474,948,l,{
name = sh01;
}),
(474,395,l),
(474,346,o),
(511,260,o),
(576,195,o),
(662,158,o),
(711,158,q),
(948,158,l,{
name = sv02;
}),
(948,0,l,{
name = ah01;
}),
(711,0,l),
(629,0,o),
(485,62,o),
(378,169,o),
(316,313,o),
(316,395,q),
(316,948,l,{
name = sh02;
}),
(158,948,l,{
name = ah03;
}),
(158,1106,l,{
name = at01;
})
);
}
);
userData = {
com.fontlab.ttcommands = (
{
code = alignt;
point = dh01;
zone = "t: 3";
},
{
code = alignt;
point = at01;
zone = "t: 2";
},
{
code = alignb;
point = ah01;
zone = "b: 0";
},
{
align = double;
code = singlev;
point1 = at01;
point2 = sv01;
},
{
align = round;
code = singlev;
point1 = at01;
point2 = ah03;
stem = "158";
},
{
align = round;
code = singlev;
point1 = ah03;
point2 = sh01;
},
{
align = round;
code = singlev;
point1 = ah01;
point2 = sv02;
stem = "158";
},
{
align = round;
code = alignh;
point = ah01;
},
{
align = round;
code = alignh;
point = ah02;
},
{
align = round;
code = alignh;
point = ah03;
},
{
code = doubleh;
point1 = dh01;
point2 = dh02;
stem = "158";
},
{
align = round;
code = singleh;
point1 = dh02;
point2 = sh01;
},
{
align = round;
code = singleh;
point1 = dh01;
point2 = sh02;
}
);
};
width = 1103;
}
);
unicode = 116;
},
{
glyphname = u;
layers = (
{
background = {
shapes = (
{
closed = 1;
nodes = (
(316,264,o),
(422,158,o),
(553,158,cs),
(681,158,o),
(790,267,o),
(790,395,cs),
(790,1106,l),
(948,1106,l),
(948,0,l),
(790,0,l),
(790,99,l),
(722,50,o),
(642,0,o),
(553,0,cs),
(334,0,o),
(158,176,o),
(158,395,cs),
(158,1106,l),
(316,1106,l),
(316,395,ls)
);
}
);
};
layerId = master01;
shapes = (
{
closed = 1;
nodes = (
(316,346,o),
(353,260,o),
(418,195,o),
(504,158,o),
(553,158,q,{
name = sv01;
}),
(601,158,o),
(687,196,o,{
name = mv01;
}),
(752,261,o),
(790,347,o),
(790,395,q),
(790,1106,l,{
name = dh04;
}),
(948,1106,l,{
name = dh03;
}),
(948,0,l,{
name = sv02;
}),
(790,0,l),
(790,99,l),
(764,81,o),
(709,45,o,{
name = mv02;
}),
(650,17,o),
(586,0,o),
(553,0,q,{
name = ab01;
}),
(471,0,o),
(327,62,o),
(220,169,o),
(158,313,o),
(158,395,q),
(158,1106,l,{
name = dh01;
}),
(316,1106,l,{
name = dh02;
}),
(316,395,l)
);
}
);
userData = {
com.fontlab.ttcommands = (
{
code = alignt;
point = dh02;
zone = "t: 2";
},
{
code = alignb;
point = ab01;
zone = "b: 0";
},
{
align = round;
code = singlev;
point1 = ab01;
point2 = sv01;
stem = "158";
},
{
code = mdeltav;
delta = 8;
point = mv01;
ppm1 = 13;
ppm2 = 13;
},
{
code = mdeltav;
delta = 6;
point = mv01;
ppm1 = 14;
ppm2 = 14;
},
{
align = round;
code = singlev;
point1 = dh02;
point2 = dh04;
},
{
align = round;
code = singlev;
point1 = ab01;
point2 = sv02;
},
{
code = mdeltav;
delta = 6;
point = mv02;
ppm1 = 13;
ppm2 = 13;
},
{
code = mdeltav;
delta = 5;
point = mv02;
ppm1 = 14;
ppm2 = 14;
},
{
code = doubleh;
point1 = dh01;
point2 = dh02;
stem = "158";
},
{
code = doubleh;
point1 = dh03;
point2 = dh04;
stem = "158";
}
);
};
width = 1103;
}
);
unicode = 117;
},
{
glyphname = v;
layers = (
{
background = {
shapes = (
{
closed = 1;
nodes = (
(632,0,l),
(474,0,l),
(158,1106,l),
(316,1106,l),
(553,237,l),
(790,1106,l),
(948,1106,l)
);
}
);
};
layerId = master01;
shapes = (
{
closed = 1;
nodes = (
(632,0,l,{
name = ih03;
}),
(474,0,l,{
name = ih02;
}),
(158,1106,l,{
name = dh02;
}),
(316,1106,l,{
name = dh01;
}),
(553,237,l,{
name = ih01;
}),
(790,1106,l,{
name = dh03;
}),
(948,1106,l,{
name = dh04;
})
);
}
);
userData = {
com.fontlab.ttcommands = (
{
code = alignt;
point = dh02;
zone = "t: 2";
},
{
code = alignb;
point = ih02;
zone = "b: 0";
},
{
code = mdeltav;
delta = -3;
point = ih01;
ppm1 = 14;
ppm2 = 14;
},
{
align = round;
code = singlev;
point1 = dh02;
point2 = dh03;
},
{
code = doubleh;
point1 = dh01;
point2 = dh02;
stem = "158";
},
{
code = doubleh;
point1 = dh03;
point2 = dh04;
stem = "158";
},
{
align = right;
code = interpolateh;
point = ih01;
point1 = ih02;
point2 = ih03;
}
);
};
width = 1103;
}
);
unicode = 118;
},
{
glyphname = w;
layers = (
{
background = {
shapes = (
{
closed = 1;
nodes = (
(589,31,o),
(645,0,o),
(711,0,cs),
(820,0,o),
(948,88,o),
(948,197,cs),
(948,1106,l),
(790,1106,l),
(790,237,ls),
(790,184,o),
(764,158,o),
(711,158,cs),
(660,158,o),
(632,182,o),
(632,230,cs),
(632,790,l),
(474,790,l),
(474,230,ls),
(474,182,o),
(446,158,o),
(395,158,cs),
(342,158,o),
(316,184,o),
(316,237,cs),
(316,1106,l),
(158,1106,l),
(158,197,ls),
(158,88,o),
(286,0,o),
(395,0,cs),
(461,0,o),
(517,31,o),
(553,79,c)
);
}
);
};
layerId = master01;
shapes = (
{
closed = 1;
nodes = (
(526,43,o,{
name = mv01;
}),
(445,0,o),
(395,0,q,{
name = ab01;
}),
(354,0,o),
(270,31,o),
(201,84,o,{
name = mv02;
}),
(158,156,o),
(158,197,q),
(158,1106,l,{
name = ah01;
}),
(316,1106,l,{
name = sh01;
}),
(316,237,l),
(316,158,o),
(395,158,q,{
name = sv01;
}),
(474,158,o),
(474,230,q),
(474,790,l,{
name = dh01;
}),
(632,790,l,{
name = dh02;
}),
(632,230,l),
(632,158,o),
(711,158,q,{
name = sv02;
}),
(790,158,o),
(790,237,q),
(790,1106,l,{
name = sh02;
}),
(948,1106,l,{
name = ah02;
}),
(948,197,l),
(948,156,o),
(905,84,o,{
name = mh01;
}),
(836,31,o),
(752,0,o),
(711,0,q,{
name = sv03;
}),
(661,0,o),
(580,43,o),
(553,79,q)
);
}
);
userData = {
com.fontlab.ttcommands = (
{
code = alignt;
point = sh01;
zone = "t: 2";
},
{
code = alignt;
point = dh01;
zone = "t: 1";
},
{
code = alignb;
point = ab01;
zone = "b: 0";
},
{
code = mdeltav;
delta = 4;
point = mv01;
ppm1 = 11;
ppm2 = 11;
},
{
code = mdeltav;
delta = 5;
point = mv01;
ppm1 = 10;
ppm2 = 10;
},
{
code = mdeltav;
delta = 3;
point = mv01;
ppm1 = 15;
ppm2 = 16;
},
{
code = mdeltav;
delta = 3;
point = mv01;
ppm1 = 12;
ppm2 = 12;
},
{
code = mdeltav;
delta = 4;
point = mv02;
ppm1 = 13;
ppm2 = 14;
},
{
code = mdeltav;
delta = 3;
point = mv02;
ppm1 = 12;
ppm2 = 12;
},
{
align = round;
code = singlev;
point1 = ab01;
point2 = sv01;
stem = "158";
},
{
align = round;
code = singlev;
point1 = sv01;
point2 = sv02;
},
{
align = round;
code = singlev;
point1 = sh01;
point2 = sh02;
},
{
code = mdeltav;
delta = -1;
point = ah02;
ppm1 = 28;
ppm2 = 28;
},
{
code = mdeltav;
delta = 4;
point = mh01;
ppm1 = 13;
ppm2 = 14;
},
{
code = mdeltav;
delta = 3;
point = mh01;
ppm1 = 10;
ppm2 = 12;
},
{
align = round;
code = singlev;
point1 = ab01;
point2 = sv03;
},
{
align = round;
code = alignh;
point = ah01;
},
{
align = round;
code = alignh;
point = ah02;
},
{
code = doubleh;
point1 = dh01;
point2 = dh02;
stem = "158";
},
{
code = mdeltah;
delta = -5;
point = ah01;
ppm1 = 10;
ppm2 = 11;
},
{
align = round;
code = singleh;
point1 = ah01;
point2 = sh01;
stem = "158";
},
{
code = mdeltah;
delta = 6;
point = ah02;
ppm1 = 19;
ppm2 = 19;
},
{
code = mdeltah;
delta = 6;
point = ah02;
ppm1 = 28;
ppm2 = 28;
},
{
code = mdeltah;
delta = 6;
point = ah02;
ppm1 = 15;
ppm2 = 15;
},
{
code = mdeltah;
delta = 5;
point = ah02;
ppm1 = 16;
ppm2 = 16;
},
{
align = round;
code = singleh;
point1 = ah02;
point2 = sh02;
stem = "158";
},
{
code = mdeltah;
delta = -2;
point = mh01;
ppm1 = 10;
ppm2 = 10;
}
);
};
width = 1103;
}
);
unicode = 119;
},
{
glyphname = x;
layers = (
{
background = {
shapes = (
{
closed = 1;
nodes = (
(777,1106,l),
(950,1106,l),
(639,553,l),
(950,0,l),
(777,0,l),
(553,398,l),
(328,0,l),
(155,0,l),
(466,553,l),
(155,1106,l),
(328,1106,l),
(553,706,l)
);
}
);
};
layerId = master01;
shapes = (
{
closed = 1;
nodes = (
(777,1106,l,{
name = dh02;
}),
(950,1106,l,{
name = sh01;
}),
(639,553,l,{
name = dh04;
}),
(950,0,l,{
name = sh02;
}),
(777,0,l,{
name = sh03;
}),
(553,398,l,{
name = sh04;
}),
(328,0,l,{
name = sh05;
}),
(155,0,l,{
name = sh07;
}),
(466,553,l,{
name = dh03;
}),
(155,1106,l,{
name = sh06;
}),
(328,1106,l,{
name = dh01;
}),
(553,706,l,{
name = ih01;
})
);
}
);
userData = {
com.fontlab.ttcommands = (
{
code = alignt;
point = sh06;
zone = "t: 2";
},
{
code = alignb;
point = sh07;
zone = "b: 0";
},
{
code = doublev;
point1 = ih01;
point2 = sh04;
stem = "158";
},
{
align = left;
code = singlev;
point1 = sh06;
point2 = dh02;
},
{
align = round;
code = singlev;
point1 = sh07;
point2 = sh03;
},
{
code = doubleh;
point1 = dh01;
point2 = dh02;
},
{
code = doubleh;
point1 = dh03;
point2 = dh04;
stem = "158";
},
{
align = round;
code = interpolateh;
point = ih01;
point1 = dh03;
point2 = dh04;
},
{
align = right;
code = singleh;
point1 = dh02;
point2 = sh01;
stem = "158";
},
{
align = double;
code = singleh;
point1 = sh01;
point2 = sh02;
},
{
align = round;
code = singleh;
point1 = dh02;
point2 = sh03;
},
{
align = round;
code = singleh;
point1 = ih01;
point2 = sh04;
},
{
align = round;
code = singleh;
point1 = dh01;
point2 = sh05;
},
{
align = round;
code = singleh;
point1 = dh01;
point2 = sh06;
stem = "158";
},
{
align = round;
code = singleh;
point1 = sh06;
point2 = sh07;
}
);
};
width = 1103;
}
);
unicode = 120;
},
{
glyphname = y;
layers = (
{
background = {
shapes = (
{
closed = 1;
nodes = (
(316,255,o),
(436,161,o),
(559,161,cs),
(687,161,o),
(790,263,o),
(790,395,c),
(790,1106,l),
(948,1106,l),
(948,-79,ls),
(948,-298,o),
(772,-474,o),
(553,-474,cs),
(316,-474,l),
(316,-316,l),
(553,-316,ls),
(684,-316,o),
(790,-210,o),
(790,-79,cs),
(790,99,l),
(722,50,o),
(642,0,o),
(553,0,cs),
(334,0,o),
(158,176,o),
(158,395,cs),
(158,1106,l),
(316,1106,l),
(316,395,ls)
);
}
);
};
layerId = master01;
shapes = (
{
closed = 1;
nodes = (
(316,342,o),
(357,256,o),
(425,195,o),
(513,161,o),
(559,161,q,{
name = sv01;
}),
(607,161,o),
(691,197,o),
(754,260,o),
(790,345,o),
(790,395,q),
(790,1106,l,{
name = dh04;
}),
(948,1106,l,{
name = dh03;
}),
(948,-79,l),
(948,-161,o),
(886,-305,o),
(779,-412,o),
(635,-474,o),
(553,-474,q),
(316,-474,l,{
name = ab02;
}),
(316,-316,l,{
name = sh01;
}),
(553,-316,l),
(602,-316,o),
(688,-279,o),
(753,-214,o),
(790,-128,o),
(790,-79,q,{
name = sh02;
}),
(790,99,l),
(764,81,o),
(709,45,o),
(650,17,o),
(586,0,o),
(553,0,q,{
name = ab01;
}),
(471,0,o),
(327,62,o),
(220,169,o),
(158,313,o),
(158,395,q),
(158,1106,l,{
name = dh01;
}),
(316,1106,l,{
name = dh02;
}),
(316,395,l)
);
}
);
userData = {
com.fontlab.ttcommands = (
{
code = alignt;
point = dh02;
zone = "t: 2";
},
{
code = alignb;
point = ab01;
zone = "b: 0";
},
{
code = alignb;
point = ab02;
zone = "b: 2";
},
{
align = round;
code = singlev;
point1 = ab01;
point2 = sv01;
stem = "158";
},
{
align = round;
code = singlev;
point1 = dh02;
point2 = dh04;
},
{
align = round;
code = singlev;
point1 = ab02;
point2 = sh01;
stem = "158";
},
{
code = doubleh;
point1 = dh01;
point2 = dh02;
stem = "158";
},
{
code = doubleh;
point1 = dh03;
point2 = dh04;
stem = "158";
},
{
align = round;
code = singleh;
point1 = dh02;
point2 = sh01;
},
{
align = round;
code = singleh;
point1 = dh04;
point2 = sh02;
}
);
};
width = 1103;
}
);
unicode = 121;
},
{
glyphname = z;
layers = (
{
background = {
shapes = (
{
closed = 1;
nodes = (
(158,948,l),
(158,1106,l),
(948,1106,l),
(948,948,l),
(345,158,l),
(948,158,l),
(948,0,l),
(158,0,l),
(158,158,l),
(760,948,l)
);
}
);
};
layerId = master01;
shapes = (
{
closed = 1;
nodes = (
(158,948,l,{
name = sv01;
}),
(158,1106,l,{
name = ah01;
}),
(948,1106,l,{
name = sh01;
}),
(948,948,l,{
name = fv01;
}),
(345,158,l,{
name = mh01;
}),
(948,158,l,{
name = sv02;
}),
(948,0,l,{
name = ah02;
}),
(158,0,l,{
name = sh02;
}),
(158,158,l),
(760,948,l,{
name = fh01;
})
);
}
);
userData = {
com.fontlab.ttcommands = (
{
code = alignt;
point = ah01;
zone = "t: 2";
},
{
code = alignb;
point = ah02;
zone = "b: 0";
},
{
align = left;
code = singlev;
point1 = ah01;
point2 = sv01;
stem = "158";
},
{
align = round;
code = singlev;
point1 = ah02;
point2 = sv02;
stem = "158";
},
{
align = round;
code = alignh;
point = ah01;
},
{
align = round;
code = alignh;
point = ah02;
},
{
align = center;
code = singleh;
point1 = ah02;
point2 = sh01;
},
{
code = mdeltah;
delta = -2;
point = mh01;
ppm1 = 12;
ppm2 = 12;
},
{
align = round;
code = singleh;
point1 = ah01;
point2 = sh02;
},
{
code = fdeltav;
delta = -2;
point = fv01;
ppm1 = 11;
ppm2 = 11;
},
{
code = fdeltah;
delta = 2;
point = fh01;
ppm1 = 13;
ppm2 = 13;
},
{
code = fdeltah;
delta = -2;
point = mh01;
ppm1 = 13;
ppm2 = 13;
}
);
};
width = 1103;
}
);
unicode = 122;
},
{
glyphname = braceleft;
layers = (
{
background = {
shapes = (
{
closed = 1;
nodes = (
(516,677,o),
(559,632,o),
(613,632,cs),
(626,632,o),
(632,617,o),
(632,592,cs),
(632,477,o),
(515,142,o),
(474,0,c),
(474,-79,o),
(632,-158,o),
(711,-158,cs),
(948,-158,l),
(948,-316,l),
(711,-316,ls),
(474,-316,o),
(316,-158,o),
(316,0,c),
(326,152,o),
(446,429,o),
(446,560,cs),
(446,604,o),
(432,632,o),
(395,632,cs),
(158,632,l),
(158,790,l),
(395,790,ls),
(447,790,o),
(449,807,o),
(449,820,cs),
(449,954,o),
(316,1055,o),
(316,1264,cs),
(316,1422,o),
(474,1580,o),
(711,1580,cs),
(948,1580,l),
(948,1422,l),
(711,1422,ls),
(554,1422,o),
(474,1343,o),
(474,1264,c),
(474,1122,o),
(615,973,o),
(615,837,cs),
(615,834,o),
(614,832,o),
(613,832,c),
(559,832,o),
(516,787,o),
(516,732,cs)
);
}
);
};
layerId = master01;
shapes = (
{
closed = 1;
nodes = (
(516,711,o),
(531,675,o),
(557,648,o),
(593,632,o),
(613,632,q),
(632,632,o),
(632,592,q),
(632,563,o),
(614,473,o),
(586,365,o),
(551,247,o),
(516,135,o),
(484,35,o),
(474,0,q,{
name = dh04;
}),
(474,-30,o),
(526,-86,o),
(600,-131,o),
(681,-158,o),
(711,-158,q),
(948,-158,l,{
name = sh01;
}),
(948,-316,l,{
name = dv01;
}),
(711,-316,l),
(622,-316,o),
(476,-262,o),
(373,-173,o),
(316,-59,o),
(316,0,q,{
name = dh03;
}),
(318,38,o),
(340,132,o),
(369,235,o),
(401,341,o),
(428,440,o),
(446,527,o),
(446,560,q),
(446,593,o),
(423,632,o),
(395,632,q),
(158,632,l,{
name = sv01;
}),
(158,790,l,{
name = ah02;
}),
(395,790,l),
(414,790,o),
(436,796,o),
(447,805,o),
(449,815,o),
(449,820,q),
(449,853,o),
(429,916,o),
(400,980,o),
(365,1048,o),
(336,1124,o),
(316,1212,o),
(316,1264,q,{
name = dh02;
}),
(316,1323,o),
(373,1437,o),
(476,1526,o),
(622,1580,o),
(711,1580,q),
(948,1580,l,{
name = dv02;
}),
(948,1422,l,{
name = ah01;
}),
(711,1422,l),
(652,1422,o),
(563,1395,o),
(504,1350,o),
(474,1294,o),
(474,1264,q,{
name = dh01;
}),
(474,1211,o),
(518,1102,o),
(571,994,o),
(615,888,o),
(615,837,q),
(615,832,o),
(613,832,q),
(593,832,o),
(557,816,o),
(531,789,o),
(516,753,o),
(516,732,q)
);
}
);
userData = {
com.fontlab.ttcommands = (
{
code = alignt;
point = ah02;
zone = "t: 1";
},
{
code = doublev;
point1 = sh01;
point2 = dv01;
stem = "158";
},
{
code = doublev;
point1 = ah01;
point2 = dv02;
stem = "158";
},
{
align = round;
code = singlev;
point1 = ah02;
point2 = sv01;
stem = "158";
},
{
align = round;
code = alignh;
point = ah01;
},
{
align = round;
code = alignh;
point = ah02;
},
{
code = doubleh;
point1 = dh01;
point2 = dh02;
stem = "158";
},
{
code = doubleh;
point1 = dh03;
point2 = dh04;
stem = "158";
},
{
align = round;
code = singleh;
point1 = ah01;
point2 = sh01;
}
);
};
width = 1103;
}
);
unicode = 123;
},
{
glyphname = bar;
layers = (
{
background = {
shapes = (
{
closed = 1;
nodes = (
(632,1580,l),
(632,-316,l),
(474,-316,l),
(474,1580,l)
);
}
);
};
layerId = master01;
shapes = (
{
closed = 1;
nodes = (
(632,1580,l,{
name = dh01;
}),
(632,-316,l),
(474,-316,l,{
name = av01;
}),
(474,1580,l,{
name = dh02;
})
);
}
);
userData = {
com.fontlab.ttcommands = (
{
align = round;
code = alignv;
point = dh02;
},
{
align = round;
code = alignv;
point = av01;
},
{
code = doubleh;
point1 = dh01;
point2 = dh02;
stem = "158";
}
);
};
width = 1103;
}
);
unicode = 124;
},
{
glyphname = braceright;
layers = (
{
background = {
shapes = (
{
closed = 1;
nodes = (
(590,787,o),
(547,832,o),
(493,832,c),
(492,832,o),
(491,834,o),
(491,837,cs),
(491,951,o),
(623,1148,o),
(632,1264,c),
(632,1343,o),
(552,1422,o),
(395,1422,cs),
(158,1422,l),
(158,1580,l),
(395,1580,ls),
(632,1580,o),
(790,1422,o),
(790,1264,cs),
(790,1055,o),
(657,954,o),
(657,820,cs),
(657,791,o),
(686,790,o),
(707,790,c),
(948,790,l),
(948,632,l),
(711,632,ls),
(675,632,o),
(661,604,o),
(661,559,cs),
(661,421,o),
(790,126,o),
(790,5,c),
(790,0,l),
(790,-158,o),
(632,-316,o),
(395,-316,cs),
(158,-316,l),
(158,-158,l),
(395,-158,ls),
(474,-158,o),
(632,-79,o),
(632,0,c),
(583,158,o),
(475,481,o),
(475,593,cs),
(475,618,o),
(481,632,o),
(493,632,cs),
(547,632,o),
(590,677,o),
(590,732,cs)
);
}
);
};
layerId = master01;
shapes = (
{
closed = 1;
nodes = (
(590,753,o),
(575,789,o),
(549,816,o),
(513,832,o),
(493,832,q),
(491,832,o),
(491,837,q),
(491,865,o),
(511,935,o),
(540,1010,o),
(576,1089,o),
(607,1165,o),
(630,1235,o),
(632,1264,q,{
name = dh01;
}),
(632,1294,o),
(602,1350,o),
(543,1395,o),
(454,1422,o),
(395,1422,q),
(158,1422,l,{
name = ah02;
}),
(158,1580,l,{
name = dv01;
}),
(395,1580,l),
(484,1580,o),
(630,1526,o),
(733,1437,o),
(790,1323,o),
(790,1264,q,{
name = dh02;
}),
(790,1212,o),
(770,1124,o),
(741,1048,o),
(706,980,o),
(677,916,o),
(657,853,o),
(657,820,q),
(657,809,o),
(667,797,o),
(682,791,o),
(699,790,o),
(707,790,q),
(948,790,l,{
name = at01;
}),
(948,632,l,{
name = ah01;
}),
(711,632,l),
(684,632,o),
(661,593,o),
(661,559,q),
(661,524,o),
(680,432,o),
(709,329,o),
(742,222,o),
(771,122,o),
(790,35,o),
(790,5,q,{
name = dh04;
}),
(790,0,l),
(790,-59,o),
(733,-173,o),
(630,-262,o),
(484,-316,o),
(395,-316,q),
(158,-316,l,{
name = dv02;
}),
(158,-158,l,{
name = sh01;
}),
(395,-158,l),
(425,-158,o),
(506,-131,o),
(580,-86,o),
(632,-30,o),
(632,0,q,{
name = dh03;
}),
(620,39,o),
(587,143,o),
(552,256,o),
(518,372,o),
(491,477,o),
(475,565,o),
(475,593,q),
(475,632,o),
(493,632,q),
(513,632,o),
(549,648,o),
(575,675,o),
(590,711,o),
(590,732,q)
);
}
);
userData = {
com.fontlab.ttcommands = (
{
code = alignt;
point = at01;
zone = "t: 1";
},
{
code = doublev;
point1 = dv01;
point2 = ah02;
stem = "158";
},
{
code = doublev;
point1 = sh01;
point2 = dv02;
stem = "158";
},
{
align = round;
code = singlev;
point1 = at01;
point2 = ah01;
stem = "158";
},
{
align = round;
code = alignh;
point = ah01;
},
{
align = round;
code = alignh;
point = ah02;
},
{
code = doubleh;
point1 = dh01;
point2 = dh02;
stem = "158";
},
{
code = doubleh;
point1 = dh03;
point2 = dh04;
stem = "158";
},
{
align = round;
code = singleh;
point1 = ah02;
point2 = sh01;
}
);
};
width = 1103;
}
);
unicode = 125;
},
{
glyphname = asciitilde;
layers = (
{
background = {
shapes = (
{
closed = 1;
nodes = (
(948,790,o),
(948,474,o),
(711,474,cs),
(547,474,o),
(474,790,o),
(395,790,cs),
(316,790,o),
(316,519,o),
(316,474,c),
(158,474,l),
(158,632,o),
(158,948,o),
(395,948,cs),
(557,948,o),
(632,632,o),
(711,632,cs),
(790,632,o),
(790,869,o),
(790,934,cs),
(790,948,l),
(948,948,l)
);
}
);
};
layerId = master01;
shapes = (
{
closed = 1;
nodes = (
(948,908,o),
(946,808,o),
(933,702,o),
(904,601,o),
(851,522,o),
(770,474,o),
(711,474,q,{
name = at01;
}),
(670,474,o),
(602,521,o),
(545,591,o),
(497,673,o),
(454,743,o),
(415,790,o),
(395,790,q,{
name = sv01;
}),
(375,790,o),
(348,749,o),
(331,687,o),
(321,611,o),
(317,541,o),
(316,485,o,{
name = dh01;
}),
(316,474,q,{
name = sv02;
}),
(158,474,l,{
name = dh02;
}),
(158,513,o),
(160,614,o),
(173,720,o),
(202,821,o),
(255,900,o),
(336,948,o),
(395,948,q,{
name = av01;
}),
(435,948,o),
(503,901,o),
(560,831,o),
(608,749,o),
(652,679,o),
(691,632,o),
(711,632,q,{
name = sv03;
}),
(731,632,o),
(758,668,o),
(775,724,o),
(785,793,o),
(789,860,o),
(790,918,o),
(790,934,q),
(790,948,l,{
name = dh04;
}),
(948,948,l,{
name = dh03;
})
);
}
);
userData = {
com.fontlab.ttcommands = (
{
align = round;
code = alignv;
point = av01;
},
{
code = alignt;
point = at01;
zone = "t: 0";
},
{
align = round;
code = singlev;
point1 = av01;
point2 = dh03;
},
{
align = round;
code = singlev;
point1 = av01;
point2 = sv01;
stem = "158";
},
{
align = round;
code = singlev;
point1 = at01;
point2 = sv02;
},
{
align = round;
code = singlev;
point1 = at01;
point2 = sv03;
stem = "158";
},
{
code = doubleh;
point1 = dh01;
point2 = dh02;
stem = "158";
},
{
code = doubleh;
point1 = dh03;
point2 = dh04;
stem = "158";
}
);
};
width = 1103;
}
);
unicode = 126;
},
{
glyphname = exclamdown;
layers = (
{
background = {
shapes = (
{
closed = 1;
nodes = (
(632,948,l),
(632,0,l),
(474,0,l),
(474,948,l)
);
},
{
closed = 1;
nodes = (
(632,1422,l),
(632,1106,l),
(474,1106,l),
(474,1422,l)
);
}
);
};
layerId = master01;
shapes = (
{
closed = 1;
nodes = (
(632,948,l,{
name = dh02;
}),
(632,0,l,{
name = ab01;
}),
(474,0,l),
(474,948,l,{
name = dh01;
})
);
},
{
closed = 1;
nodes = (
(632,1422,l,{
name = at01;
}),
(632,1106,l,{
name = sh01;
}),
(474,1106,l,{
name = sh02;
}),
(474,1422,l)
);
}
);
userData = {
com.fontlab.ttcommands = (
{
align = round;
code = alignv;
point = dh01;
},
{
code = alignt;
point = at01;
zone = "t: 3";
},
{
code = alignb;
point = ab01;
zone = "b: 0";
},
{
align = round;
code = singlev;
point1 = dh01;
point2 = sh02;
stem = "158";
},
{
code = doubleh;
point1 = dh01;
point2 = dh02;
stem = "158";
},
{
align = round;
code = singleh;
point1 = dh02;
point2 = sh01;
},
{
align = round;
code = singleh;
point1 = dh01;
point2 = sh02;
}
);
};
width = 1103;
}
);
unicode = 161;
},
{
glyphname = cent;
layers = (
{
background = {
shapes = (
{
closed = 1;
nodes = (
(293,41,o),
(158,203,o),
(158,395,cs),
(158,711,ls),
(158,903,o),
(293,1065,o),
(474,1102,c),
(474,1264,l),
(632,1264,l),
(632,1102,l),
(787,1070,o),
(908,945,o),
(940,790,c),
(776,790,l),
(752,858,o),
(700,912,o),
(632,937,c),
(632,168,l),
(700,193,o),
(752,248,o),
(776,316,c),
(940,316,l),
(908,159,o),
(787,36,o),
(632,4,c),
(632,-158,l),
(474,-158,l),
(474,4,l)
);
},
{
closed = 1;
nodes = (
(316,292,o),
(381,200,o),
(474,168,c),
(474,938,l),
(381,903,o),
(316,815,o),
(316,711,cs),
(316,395,ls)
);
}
);
};
layerId = master01;
shapes = (
{
closed = 1;
nodes = (
(406,18,o),
(290,90,o),
(206,193,o),
(158,323,o),
(158,395,q),
(158,711,l),
(158,783,o),
(206,913,o),
(290,1016,o),
(406,1088,o),
(474,1102,q,{
name = at01;
}),
(474,1264,l,{
name = sv01;
}),
(632,1264,l),
(632,1102,l,{
name = sv02;
}),
(690,1090,o),
(792,1033,o),
(872,951,o),
(928,848,o),
(940,790,q),
(776,790,l,{
name = sv04;
}),
(758,841,o),
(683,918,o),
(632,937,q,{
name = sv05;
}),
(632,168,l,{
name = sv07;
}),
(683,187,o),
(758,265,o),
(776,316,q,{
name = sv08;
}),
(940,316,l),
(928,257,o),
(872,154,o),
(792,72,o),
(690,16,o),
(632,4,q,{
name = sv09;
}),
(632,-158,l),
(474,-158,l,{
name = sv10;
}),
(474,4,l,{
name = ab01;
})
);
},
{
closed = 1;
nodes = (
(316,356,o),
(339,285,o),
(381,225,o),
(439,180,o),
(474,168,q,{
name = sv06;
}),
(474,938,l,{
name = sv03;
}),
(439,925,o),
(381,880,o),
(339,821,o),
(316,750,o),
(316,711,q),
(316,395,l)
);
}
);
userData = {
com.fontlab.ttcommands = (
{
code = alignt;
point = at01;
zone = "t: 2";
},
{
code = alignb;
point = ab01;
zone = "b: 0";
},
{
align = round;
code = singlev;
point1 = at01;
point2 = sv01;
stem = "158";
},
{
align = round;
code = singlev;
point1 = at01;
point2 = sv02;
},
{
align = round;
code = singlev;
point1 = at01;
point2 = sv03;
stem = "158";
},
{
align = round;
code = singlev;
point1 = sv03;
point2 = sv04;
stem = "158";
},
{
align = round;
code = singlev;
point1 = sv03;
point2 = sv05;
},
{
align = round;
code = singlev;
point1 = ab01;
point2 = sv06;
stem = "158";
},
{
align = round;
code = singlev;
point1 = sv06;
point2 = sv07;
},
{
align = round;
code = singlev;
point1 = sv06;
point2 = sv08;
stem = "158";
},
{
align = round;
code = singlev;
point1 = ab01;
point2 = sv09;
},
{
align = round;
code = singlev;
point1 = ab01;
point2 = sv10;
stem = "158";
}
);
};
width = 1103;
}
);
unicode = 162;
},
{
glyphname = sterling;
layers = (
{
background = {
shapes = (
{
closed = 1;
nodes = (
(790,1422,o),
(948,1264,o),
(948,1106,c),
(790,1106,l),
(790,1185,o),
(710,1264,o),
(632,1264,cs),
(553,1264,o),
(474,1185,o),
(474,1106,cs),
(474,790,l),
(790,790,l),
(790,632,l),
(474,632,l),
(474,158,l),
(948,158,l),
(948,0,l),
(158,0,l),
(158,158,l),
(316,158,l),
(316,632,l),
(158,632,l),
(158,790,l),
(316,790,l),
(316,1106,ls),
(316,1264,o),
(474,1422,o),
(632,1422,cs)
);
}
);
};
layerId = master01;
shapes = (
{
closed = 1;
nodes = (
(691,1422,o),
(805,1368,o),
(894,1279,o),
(948,1165,o),
(948,1106,q,{
name = dh04;
}),
(790,1106,l,{
name = dh03;
}),
(790,1136,o),
(763,1192,o),
(718,1237,o),
(661,1264,o),
(632,1264,q,{
name = sv01;
}),
(602,1264,o),
(546,1237,o),
(501,1192,o),
(474,1136,o),
(474,1106,q),
(474,790,l,{
name = dh02;
}),
(790,790,l,{
name = sh01;
}),
(790,632,l),
(474,632,l,{
name = sh02;
}),
(474,158,l,{
name = sv02;
}),
(948,158,l,{
name = sh03;
}),
(948,0,l),
(158,0,l,{
name = ab01;
}),
(158,158,l,{
name = sh06;
}),
(316,158,l),
(316,632,l,{
name = sh04;
}),
(158,632,l,{
name = sh05;
}),
(158,790,l),
(316,790,l,{
name = dh01;
}),
(316,1106,l),
(316,1165,o),
(370,1279,o),
(459,1368,o),
(573,1422,o),
(632,1422,q,{
name = at01;
})
);
}
);
userData = {
com.fontlab.ttcommands = (
{
code = alignt;
point = at01;
zone = "t: 3";
},
{
code = alignt;
point = dh02;
zone = "t: 1";
},
{
code = alignb;
point = ab01;
zone = "b: 0";
},
{
align = round;
code = singlev;
point1 = at01;
point2 = sv01;
stem = "158";
},
{
align = round;
code = singlev;
point1 = sv01;
point2 = dh03;
stem = "158";
},
{
code = mdeltav;
delta = 5;
point = dh02;
ppm1 = 14;
ppm2 = 14;
},
{
align = round;
code = singlev;
point1 = dh02;
point2 = sh02;
stem = "158";
},
{
align = round;
code = singlev;
point1 = ab01;
point2 = sh06;
stem = "158";
},
{
align = round;
code = singlev;
point1 = sh06;
point2 = sv02;
},
{
align = round;
code = singlev;
point1 = sh02;
point2 = sh04;
},
{
align = round;
code = singlev;
point1 = dh02;
point2 = dh01;
},
{
code = doubleh;
point1 = dh01;
point2 = dh02;
stem = "158";
},
{
code = doubleh;
point1 = dh03;
point2 = dh04;
stem = "158";
},
{
align = round;
code = singleh;
point1 = dh03;
point2 = sh01;
},
{
align = round;
code = singleh;
point1 = dh02;
point2 = sh02;
},
{
align = round;
code = singleh;
point1 = dh04;
point2 = sh03;
},
{
align = round;
code = singleh;
point1 = dh01;
point2 = sh04;
},
{
align = round;
code = singleh;
point1 = sh04;
point2 = sh05;
stem = "158";
},
{
align = round;
code = singleh;
point1 = sh05;
point2 = sh06;
}
);
};
width = 1103;
}
);
unicode = 163;
},
{
glyphname = currency;
layers = (
{
background = {
shapes = (
{
closed = 1;
nodes = (
(273,431,l),
(202,503,o),
(158,606,o),
(158,711,cs),
(158,816,o),
(202,919,o),
(273,990,cs),
(276,993,l),
(158,1264,l),
(336,1264,l),
(415,1082,l),
(458,1098,o),
(504,1106,o),
(553,1106,cs),
(601,1106,o),
(647,1098,o),
(690,1082,c),
(770,1264,l),
(948,1264,l),
(830,993,l),
(832,990,l),
(904,919,o),
(948,816,o),
(948,711,cs),
(948,606,o),
(905,504,o),
(830,429,c),
(948,158,l),
(770,158,l),
(690,340,l),
(647,324,o),
(601,316,o),
(553,316,cs),
(504,316,o),
(458,324,o),
(415,340,c),
(336,158,l),
(158,158,l),
(276,429,l)
);
},
{
closed = 1;
nodes = (
(316,580,o),
(422,474,o),
(553,474,cs),
(684,474,o),
(790,580,o),
(790,711,cs),
(790,842,o),
(684,948,o),
(553,948,cs),
(422,948,o),
(316,842,o),
(316,711,cs)
);
}
);
};
layerId = master01;
shapes = (
{
closed = 1;
nodes = (
(877,777,l),
(910,729,o),
(948,616,o),
(948,553,q,{
name = dh04;
}),
(948,490,o),
(910,376,o),
(877,328,q),
(1028,178,l),
(928,78,l),
(777,228,l),
(729,195,o),
(616,158,o),
(553,158,q,{
name = dv04;
}),
(490,158,o),
(376,195,o),
(328,228,q),
(178,78,l),
(78,178,l),
(228,328,l),
(195,376,o),
(158,490,o),
(158,553,q,{
name = dh02;
}),
(158,616,o),
(195,729,o),
(228,777,q),
(78,928,l),
(178,1028,l),
(328,877,l),
(376,910,o),
(490,948,o),
(553,948,q,{
name = dv02;
}),
(616,948,o),
(729,910,o),
(777,877,q),
(928,1028,l),
(1028,928,l)
);
},
{
closed = 1;
nodes = (
(316,504,o),
(353,418,o),
(418,353,o),
(504,316,o),
(553,316,q,{
name = dv03;
}),
(602,316,o),
(688,353,o),
(753,418,o),
(790,504,o),
(790,553,q,{
name = dh03;
}),
(790,602,o),
(753,688,o),
(688,753,o),
(602,790,o),
(553,790,q,{
name = dv01;
}),
(504,790,o),
(418,753,o),
(353,688,o),
(316,602,o),
(316,553,q,{
name = dh01;
})
);
}
);
userData = {
com.fontlab.ttcommands = (
{
code = doublev;
point1 = dv01;
point2 = dv02;
stem = "158";
},
{
code = doublev;
point1 = dv03;
point2 = dv04;
stem = "158";
},
{
code = doubleh;
point1 = dh01;
point2 = dh02;
stem = "158";
},
{
code = doubleh;
point1 = dh03;
point2 = dh04;
stem = "158";
}
);
};
width = 1103;
}
);
unicode = 164;
},
{
glyphname = yen;
layers = (
{
background = {
shapes = (
{
closed = 1;
nodes = (
(476,316,l),
(476,474,l),
(158,474,l),
(158,632,l),
(447,632,l),
(158,1422,l),
(334,1422,l),
(553,797,l),
(771,1422,l),
(948,1422,l),
(658,632,l),
(948,632,l),
(948,474,l),
(630,474,l),
(630,316,l),
(948,316,l),
(948,158,l),
(630,158,l),
(630,0,l),
(476,0,l),
(476,158,l),
(158,158,l),
(158,316,l)
);
}
);
};
layerId = master01;
shapes = (
{
closed = 1;
nodes = (
(476,316,l),
(476,474,l),
(158,474,l),
(158,632,l),
(447,632,l),
(158,1422,l),
(334,1422,l),
(553,797,l),
(771,1422,l),
(948,1422,l),
(658,632,l),
(948,632,l),
(948,474,l),
(630,474,l),
(630,316,l),
(948,316,l),
(948,158,l),
(630,158,l),
(630,0,l),
(476,0,l),
(476,158,l),
(158,158,l),
(158,316,l)
);
}
);
width = 1103;
}
);
unicode = 165;
},
{
glyphname = brokenbar;
layers = (
{
background = {
shapes = (
{
closed = 1;
nodes = (
(632,474,l),
(632,-316,l),
(474,-316,l),
(474,474,l)
);
},
{
closed = 1;
nodes = (
(632,1580,l),
(632,790,l),
(474,790,l),
(474,1580,l)
);
}
);
};
layerId = master01;
shapes = (
{
closed = 1;
nodes = (
(632,474,l,{
name = sh02;
}),
(632,-316,l),
(474,-316,l,{
name = av01;
}),
(474,474,l,{
name = sh01;
})
);
},
{
closed = 1;
nodes = (
(632,1580,l,{
name = dh02;
}),
(632,790,l),
(474,790,l,{
name = av02;
}),
(474,1580,l,{
name = dh01;
})
);
}
);
userData = {
com.fontlab.ttcommands = (
{
align = round;
code = alignv;
point = dh01;
},
{
align = round;
code = alignv;
point = av01;
},
{
align = round;
code = alignv;
point = av02;
},
{
align = round;
code = alignv;
point = sh01;
},
{
code = doubleh;
point1 = dh01;
point2 = dh02;
stem = "158";
},
{
align = round;
code = singleh;
point1 = dh01;
point2 = sh01;
},
{
align = left;
code = singleh;
point1 = dh02;
point2 = sh02;
}
);
};
width = 1103;
}
);
unicode = 166;
},
{
glyphname = section;
layers = (
{
background = {
shapes = (
{
closed = 1;
nodes = (
(948,1264,l),
(553,1264,ls),
(396,1264,o),
(316,1185,o),
(316,1106,cs),
(316,1027,o),
(396,948,o),
(553,948,cs),
(711,948,o),
(948,870,o),
(948,634,cs),
(948,546,o),
(902,460,o),
(819,399,c),
(893,349,o),
(948,272,o),
(948,160,cs),
(948,0,o),
(790,-158,o),
(553,-158,cs),
(158,-158,l),
(158,0,l),
(553,0,ls),
(710,0,o),
(790,79,o),
(790,160,cs),
(790,237,o),
(710,316,o),
(553,316,cs),
(395,316,o),
(158,396,o),
(158,632,cs),
(158,719,o),
(205,805,o),
(286,865,c),
(211,916,o),
(158,991,o),
(158,1106,cs),
(158,1264,o),
(316,1422,o),
(553,1422,cs),
(948,1422,l)
);
},
{
closed = 1;
nodes = (
(316,553,o),
(396,474,o),
(553,474,cs),
(710,474,o),
(790,553,o),
(790,634,cs),
(790,711,o),
(710,790,o),
(553,790,c),
(396,790,o),
(316,749,o),
(316,632,cs)
);
}
);
};
layerId = master01;
shapes = (
{
closed = 1;
nodes = (
(948,1264,l,{
name = sh01;
}),
(553,1264,l),
(494,1264,o),
(405,1237,o),
(346,1192,o),
(316,1136,o),
(316,1106,q,{
name = sh03;
}),
(316,1076,o),
(346,1020,o),
(405,975,o),
(494,948,o),
(553,948,q,{
name = sv01;
}),
(592,948,o),
(682,934,o),
(770,904,o),
(850,855,o),
(911,785,o),
(948,693,o),
(948,634,q,{
name = dh04;
}),
(948,568,o),
(882,445,o),
(819,399,q),
(847,380,o),
(894,332,o),
(928,273,o),
(948,202,o),
(948,160,q,{
name = sh04;
}),
(948,100,o),
(891,-14,o),
(788,-104,o),
(642,-158,o),
(553,-158,q),
(158,-158,l,{
name = sv02;
}),
(158,0,l,{
name = sh05;
}),
(553,0,l),
(612,0,o),
(701,27,o),
(760,72,o),
(790,130,o),
(790,160,q,{
name = sh06;
}),
(790,189,o),
(760,245,o),
(701,289,o),
(612,316,o),
(553,316,q,{
name = sv03;
}),
(513,316,o),
(424,330,o),
(336,361,o),
(256,410,o),
(195,480,o),
(158,573,o),
(158,632,q,{
name = dh02;
}),
(158,698,o),
(225,820,o),
(286,865,q),
(230,903,o),
(158,1020,o),
(158,1106,q,{
name = sh02;
}),
(158,1165,o),
(215,1279,o),
(318,1368,o),
(464,1422,o),
(553,1422,q),
(948,1422,l,{
name = at01;
})
);
},
{
closed = 1;
nodes = (
(316,602,o),
(346,546,o),
(405,501,o),
(494,474,o),
(553,474,q,{
name = at03;
}),
(612,474,o),
(701,501,o),
(760,546,o),
(790,604,o),
(790,634,q,{
name = dh03;
}),
(790,663,o),
(760,719,o),
(701,763,o),
(612,790,o),
(553,790,q,{
name = at02;
}),
(435,790,o),
(316,720,o),
(316,632,q,{
name = dh01;
})
);
}
);
userData = {
com.fontlab.ttcommands = (
{
code = alignt;
point = at01;
zone = "t: 3";
},
{
code = alignt;
point = at02;
zone = "t: 1";
},
{
code = alignt;
point = at03;
zone = "t: 0";
},
{
code = alignb;
point = sh05;
zone = "b: 0";
},
{
align = left;
code = singlev;
point1 = at01;
point2 = sh01;
stem = "158";
},
{
align = round;
code = singlev;
point1 = at02;
point2 = sv01;
stem = "158";
},
{
align = round;
code = singlev;
point1 = sh05;
point2 = sv02;
stem = "158";
},
{
align = round;
code = singlev;
point1 = at03;
point2 = sv03;
stem = "158";
},
{
code = doubleh;
point1 = dh01;
point2 = dh02;
stem = "158";
},
{
code = doubleh;
point1 = dh03;
point2 = dh04;
stem = "158";
},
{
align = left;
code = singleh;
point1 = dh04;
point2 = sh01;
},
{
align = round;
code = singleh;
point1 = dh02;
point2 = sh02;
},
{
align = round;
code = singleh;
point1 = sh02;
point2 = sh03;
stem = "158";
},
{
align = round;
code = singleh;
point1 = dh04;
point2 = sh04;
},
{
align = round;
code = singleh;
point1 = dh02;
point2 = sh05;
},
{
align = round;
code = singleh;
point1 = sh04;
point2 = sh06;
stem = "158";
}
);
};
width = 1103;
}
);
unicode = 167;
},
{
glyphname = dieresis;
layers = (
{
background = {
shapes = (
{
closed = 1;
nodes = (
(316,1387,o),
(351,1422,o),
(395,1422,cs),
(439,1422,o),
(474,1387,o),
(474,1343,cs),
(474,1299,o),
(439,1264,o),
(395,1264,cs),
(351,1264,o),
(316,1299,o),
(316,1343,cs)
);
},
{
closed = 1;
nodes = (
(632,1387,o),
(667,1422,o),
(711,1422,cs),
(755,1422,o),
(790,1387,o),
(790,1343,cs),
(790,1299,o),
(755,1264,o),
(711,1264,cs),
(667,1264,o),
(632,1299,o),
(632,1343,cs)
);
}
);
};
layerId = master01;
shapes = (
{
closed = 1;
nodes = (
(316,1376,o),
(362,1422,o),
(395,1422,q,{
name = at01;
}),
(428,1422,o),
(474,1376,o),
(474,1343,q,{
name = dh01;
}),
(474,1310,o),
(428,1264,o),
(395,1264,q,{
name = sv01;
}),
(362,1264,o),
(316,1310,o),
(316,1343,q,{
name = sh01;
})
);
},
{
closed = 1;
nodes = (
(632,1376,o),
(678,1422,o),
(711,1422,q,{
name = sv02;
}),
(744,1422,o),
(790,1376,o),
(790,1343,q,{
name = sh02;
}),
(790,1310,o),
(744,1264,o),
(711,1264,q,{
name = sv03;
}),
(678,1264,o),
(632,1310,o),
(632,1343,q,{
name = dh02;
})
);
}
);
userData = {
com.fontlab.ttcommands = (
{
code = alignt;
point = at01;
zone = "t: 3";
},
{
align = round;
code = singlev;
point1 = at01;
point2 = sv01;
stem = "158";
},
{
align = round;
code = singlev;
point1 = at01;
point2 = sv02;
},
{
align = round;
code = singlev;
point1 = sv01;
point2 = sv03;
},
{
code = doubleh;
point1 = dh01;
point2 = dh02;
stem = "158";
},
{
align = round;
code = singleh;
point1 = dh01;
point2 = sh01;
stem = "158";
},
{
align = round;
code = singleh;
point1 = dh02;
point2 = sh02;
stem = "158";
}
);
};
width = 1103;
}
);
unicode = 168;
},
{
glyphname = copyright;
layers = (
{
background = {
shapes = (
{
closed = 1;
nodes = (
(0,1103,o),
(226,1422,o),
(553,1422,cs),
(880,1422,o),
(1106,1103,o),
(1106,711,cs),
(1106,319,o),
(880,0,o),
(553,0,cs),
(226,0,o),
(0,319,o),
(0,711,cs)
);
},
{
closed = 1;
nodes = (
(158,406,o),
(313,158,o),
(553,158,cs),
(793,158,o),
(948,406,o),
(948,711,cs),
(948,1016,o),
(793,1264,o),
(553,1264,cs),
(313,1264,o),
(158,1016,o),
(158,711,cs)
);
},
{
closed = 1;
nodes = (
(474,580,o),
(486,474,o),
(553,474,cs),
(590,474,o),
(605,510,o),
(615,568,cs),
(625,632,l),
(784,632,l),
(760,452,o),
(686,316,o),
(553,316,cs),
(400,316,o),
(316,492,o),
(316,711,cs),
(316,930,o),
(400,1106,o),
(553,1106,cs),
(686,1106,o),
(760,970,o),
(784,790,c),
(625,790,l),
(615,853,ls),
(605,910,o),
(590,948,o),
(553,948,cs),
(486,948,o),
(474,842,o),
(474,711,cs)
);
}
);
};
layerId = master01;
shapes = (
{
closed = 1;
nodes = (
(0,858,o),
(81,1117,o),
(227,1310,o),
(430,1422,o),
(553,1422,q,{
name = sv02;
}),
(676,1422,o),
(879,1310,o),
(1025,1117,o),
(1106,858,o),
(1106,711,q,{
name = sh04;
}),
(1106,564,o),
(1025,305,o),
(879,112,o),
(676,0,o),
(553,0,q,{
name = sv04;
}),
(430,0,o),
(227,112,o),
(81,305,o),
(0,564,o),
(0,711,q,{
name = sh02;
})
);
},
{
closed = 1;
nodes = (
(158,597,o),
(214,395,o),
(317,245,o),
(463,158,o),
(553,158,q,{
name = sv03;
}),
(643,158,o),
(789,245,o),
(892,395,o),
(948,597,o),
(948,711,q,{
name = sh03;
}),
(948,825,o),
(892,1027,o),
(789,1177,o),
(643,1264,o),
(553,1264,q,{
name = sv01;
}),
(463,1264,o),
(317,1177,o),
(214,1027,o),
(158,825,o),
(158,711,q,{
name = sh01;
})
);
},
{
closed = 1;
nodes = (
(474,662,o),
(480,576,o),
(497,511,o),
(528,474,o),
(553,474,q,{
name = sh05;
}),
(581,474,o),
(607,524,o),
(615,568,q),
(625,632,l,{
name = dh03;
}),
(784,632,l,{
name = dh04;
}),
(775,564,o),
(738,449,o),
(681,364,o),
(603,316,o),
(553,316,q,{
name = dv02;
}),
(496,316,o),
(407,378,o),
(347,485,o),
(316,629,o),
(316,711,q,{
name = dh02;
}),
(316,793,o),
(347,937,o),
(407,1044,o),
(496,1106,o),
(553,1106,q,{
name = dv01;
}),
(603,1106,o),
(681,1058,o),
(738,973,o),
(775,857,o),
(784,790,q,{
name = sh06;
}),
(625,790,l,{
name = sh07;
}),
(615,853,l),
(607,896,o),
(581,948,o),
(553,948,q,{
name = sh08;
}),
(528,948,o),
(497,911,o),
(480,846,o),
(474,760,o),
(474,711,q,{
name = dh01;
})
);
}
);
userData = {
com.fontlab.ttcommands = (
{
code = doublev;
point1 = dv01;
point2 = sh08;
stem = "158";
},
{
code = doublev;
point1 = dv02;
point2 = sh05;
stem = "158";
},
{
code = doublev;
point1 = sh07;
point2 = dh03;
stem = "158";
},
{
align = round;
code = singlev;
point1 = dv01;
point2 = sv01;
stem = "158";
},
{
align = round;
code = singlev;
point1 = sv01;
point2 = sv02;
stem = "158";
},
{
align = round;
code = singlev;
point1 = dv02;
point2 = sv03;
stem = "158";
},
{
align = round;
code = singlev;
point1 = sv03;
point2 = sv04;
stem = "158";
},
{
code = doubleh;
point1 = dh01;
point2 = dh02;
stem = "158";
},
{
code = doubleh;
point1 = dh03;
point2 = dh04;
stem = "158";
},
{
align = round;
code = singleh;
point1 = dh02;
point2 = sh01;
},
{
align = round;
code = singleh;
point1 = sh01;
point2 = sh02;
stem = "158";
},
{
align = round;
code = singleh;
point1 = dh04;
point2 = sh03;
round = true;
},
{
align = round;
code = singleh;
point1 = sh03;
point2 = sh04;
},
{
align = round;
code = singleh;
point1 = dh01;
point2 = sh05;
stem = "158";
},
{
align = round;
code = singleh;
point1 = dh04;
point2 = sh06;
},
{
align = round;
code = singleh;
point1 = dh03;
point2 = sh07;
},
{
align = round;
code = singleh;
point1 = dh01;
point2 = sh08;
stem = "158";
}
);
};
width = 1103;
}
);
unicode = 169;
},
{
glyphname = ordfeminine;
layers = (
{
background = {
shapes = (
{
closed = 1;
nodes = (
(395,1422,ls),
(553,1422,o),
(632,1343,o),
(632,1185,cs),
(632,632,l),
(395,632,ls),
(237,632,o),
(158,711,o),
(158,869,cs),
(158,1027,o),
(237,1106,o),
(395,1106,cs),
(474,1106,l),
(474,1185,ls),
(474,1224,o),
(438,1264,o),
(395,1264,cs),
(237,1264,l),
(237,1422,l)
);
},
{
closed = 1;
nodes = (
(344,948,o),
(316,915,o),
(316,868,cs),
(316,821,o),
(351,790,o),
(395,790,cs),
(474,790,l),
(474,948,l),
(395,948,ls)
);
}
);
};
layerId = master01;
shapes = (
{
closed = 1;
nodes = (
(395,1422,l),
(632,1422,o),
(632,1185,q),
(632,632,l,{
name = sh01;
}),
(395,632,l,{
name = sv05;
}),
(158,632,o),
(158,869,q,{
name = sh02;
}),
(158,1106,o),
(395,1106,q,{
name = sv02;
}),
(474,1106,l,{
name = sh03;
}),
(474,1185,l),
(474,1200,o),
(461,1228,o),
(440,1250,o),
(411,1264,o),
(395,1264,q),
(237,1264,l,{
name = sv01;
}),
(237,1422,l,{
name = at01;
})
);
},
{
closed = 1;
nodes = (
(357,948,o),
(316,903,o),
(316,868,q,{
name = dh01;
}),
(316,833,o),
(362,790,o),
(395,790,q,{
name = sv04;
}),
(474,790,l),
(474,948,l,{
name = dh02;
}),
(395,948,l,{
name = sv03;
})
);
}
);
userData = {
com.fontlab.ttcommands = (
{
code = alignt;
point = at01;
zone = "t: 3";
},
{
align = round;
code = singlev;
point1 = at01;
point2 = sv01;
stem = "158";
},
{
align = round;
code = singlev;
point1 = sv01;
point2 = sv02;
round = true;
},
{
align = round;
code = singlev;
point1 = sv02;
point2 = sv03;
stem = "158";
},
{
align = round;
code = singlev;
point1 = sv03;
point2 = sv04;
round = true;
},
{
align = round;
code = singlev;
point1 = sv04;
point2 = sv05;
stem = "158";
},
{
code = doubleh;
point1 = dh01;
point2 = dh02;
stem = "158";
},
{
align = double;
code = singleh;
point1 = dh02;
point2 = sh01;
stem = "158";
},
{
align = round;
code = singleh;
point1 = dh01;
point2 = sh02;
stem = "158";
},
{
align = round;
code = singleh;
point1 = dh02;
point2 = sh03;
}
);
};
width = 1103;
}
);
unicode = 170;
},
{
glyphname = guillemotleft;
layers = (
{
background = {
shapes = (
{
closed = 1;
nodes = (
(632,948,l),
(316,553,l),
(632,158,l),
(474,158,l),
(158,553,l),
(474,948,l)
);
},
{
closed = 1;
nodes = (
(948,948,l),
(632,553,l),
(948,158,l),
(790,158,l),
(474,553,l),
(790,948,l)
);
}
);
};
layerId = master01;
shapes = (
{
closed = 1;
nodes = (
(632,948,l),
(316,553,l),
(632,158,l),
(474,158,l),
(158,553,l),
(474,948,l)
);
},
{
closed = 1;
nodes = (
(948,948,l),
(632,553,l),
(948,158,l),
(790,158,l),
(474,553,l),
(790,948,l)
);
}
);
width = 1103;
}
);
unicode = 171;
},
{
glyphname = logicalnot;
layers = (
{
background = {
shapes = (
{
closed = 1;
nodes = (
(158,790,l),
(158,948,l),
(948,948,l),
(948,474,l),
(790,474,l),
(790,790,l)
);
}
);
};
layerId = master01;
shapes = (
{
closed = 1;
nodes = (
(158,790,l,{
name = ah01;
}),
(158,948,l,{
name = sv01;
}),
(948,948,l),
(948,474,l,{
name = dh02;
}),
(790,474,l,{
name = dh01;
}),
(790,790,l)
);
}
);
userData = {
com.fontlab.ttcommands = (
{
code = alignt;
point = ah01;
zone = "t: 1";
},
{
code = alignt;
point = dh01;
zone = "t: 0";
},
{
align = right;
code = singlev;
point1 = ah01;
point2 = sv01;
stem = "158";
},
{
align = round;
code = alignh;
point = ah01;
},
{
code = doubleh;
point1 = dh01;
point2 = dh02;
stem = "158";
}
);
};
width = 1103;
}
);
unicode = 172;
},
{
glyphname = uni00AD;
layers = (
{
background = {
shapes = (
{
closed = 1;
nodes = (
(948,790,l),
(948,632,l),
(158,632,l),
(158,790,l)
);
}
);
};
layerId = master01;
shapes = (
{
closed = 1;
nodes = (
(948,790,l,{
name = ah02;
}),
(948,632,l),
(158,632,l,{
name = sv01;
}),
(158,790,l,{
name = ah01;
})
);
}
);
userData = {
com.fontlab.ttcommands = (
{
code = alignt;
point = ah01;
zone = "t: 1";
},
{
align = center;
code = singlev;
point1 = ah01;
point2 = sv01;
stem = "158";
},
{
align = round;
code = alignh;
point = ah01;
},
{
align = round;
code = alignh;
point = ah02;
}
);
};
width = 1103;
}
);
unicode = 173;
},
{
glyphname = registered;
layers = (
{
background = {
shapes = (
{
closed = 1;
nodes = (
(0,1103,o),
(226,1422,o),
(553,1422,cs),
(880,1422,o),
(1106,1103,o),
(1106,711,cs),
(1106,319,o),
(880,0,o),
(553,0,cs),
(226,0,o),
(0,319,o),
(0,711,cs)
);
},
{
closed = 1;
nodes = (
(158,406,o),
(313,158,o),
(553,158,cs),
(793,158,o),
(948,406,o),
(948,711,cs),
(948,1016,o),
(793,1264,o),
(553,1264,cs),
(313,1264,o),
(158,1016,o),
(158,711,cs)
);
},
{
closed = 1;
nodes = (
(474,316,l),
(316,316,l),
(316,1106,l),
(553,1106,ls),
(684,1106,o),
(790,1000,o),
(790,869,cs),
(790,747,o),
(711,632,o),
(632,632,c),
(790,316,l),
(632,316,l),
(474,632,l)
);
},
{
closed = 1;
nodes = (
(597,790,o),
(632,825,o),
(632,869,cs),
(632,913,o),
(597,948,o),
(553,948,cs),
(474,948,l),
(474,790,l),
(553,790,ls)
);
}
);
};
layerId = master01;
shapes = (
{
closed = 1;
nodes = (
(0,858,o),
(81,1117,o),
(227,1310,o),
(430,1422,o),
(553,1422,q,{
name = sv03;
}),
(676,1422,o),
(879,1310,o),
(1025,1117,o),
(1106,858,o),
(1106,711,q,{
name = sh06;
}),
(1106,564,o),
(1025,305,o),
(879,112,o),
(676,0,o),
(553,0,q,{
name = sv05;
}),
(430,0,o),
(227,112,o),
(81,305,o),
(0,564,o),
(0,711,q,{
name = sh03;
})
);
},
{
closed = 1;
nodes = (
(158,597,o),
(214,395,o),
(317,245,o),
(463,158,o),
(553,158,q,{
name = sv04;
}),
(643,158,o),
(789,245,o),
(892,395,o),
(948,597,o),
(948,711,q,{
name = sh05;
}),
(948,825,o),
(892,1027,o),
(789,1177,o),
(643,1264,o),
(553,1264,q,{
name = sv02;
}),
(463,1264,o),
(317,1177,o),
(214,1027,o),
(158,825,o),
(158,711,q,{
name = sh02;
})
);
},
{
closed = 1;
nodes = (
(474,316,l,{
name = av01;
}),
(316,316,l),
(316,1106,l,{
name = sh01;
}),
(553,1106,l,{
name = sv01;
}),
(602,1106,o),
(688,1069,o),
(753,1004,o),
(790,918,o),
(790,869,q,{
name = sh04;
}),
(790,823,o),
(763,738,o),
(718,672,o),
(662,632,o),
(632,632,q),
(790,316,l),
(632,316,l,{
name = sv06;
}),
(474,632,l,{
name = sh07;
})
);
},
{
closed = 1;
nodes = (
(586,790,o),
(632,836,o),
(632,869,q,{
name = dh02;
}),
(632,902,o),
(586,948,o),
(553,948,q),
(474,948,l,{
name = dv01;
}),
(474,790,l,{
name = dh01;
}),
(553,790,l)
);
}
);
userData = {
com.fontlab.ttcommands = (
{
align = round;
code = alignv;
point = av01;
},
{
code = doublev;
point1 = dh01;
point2 = dv01;
stem = "158";
},
{
align = round;
code = singlev;
point1 = dv01;
point2 = sv01;
stem = "158";
},
{
align = round;
code = singlev;
point1 = sv01;
point2 = sv02;
stem = "158";
},
{
align = round;
code = singlev;
point1 = sv02;
point2 = sv03;
stem = "158";
},
{
align = round;
code = singlev;
point1 = av01;
point2 = sv04;
stem = "158";
},
{
align = round;
code = singlev;
point1 = sv04;
point2 = sv05;
stem = "158";
},
{
align = round;
code = singlev;
point1 = dh01;
point2 = sh07;
stem = "158";
},
{
align = round;
code = singlev;
point1 = av01;
point2 = sv06;
},
{
code = doubleh;
point1 = dh01;
point2 = dh02;
stem = "158";
},
{
align = round;
code = singleh;
point1 = dh01;
point2 = sh01;
stem = "158";
},
{
align = round;
code = singleh;
point1 = sh01;
point2 = sh02;
round = true;
},
{
align = round;
code = singleh;
point1 = sh02;
point2 = sh03;
stem = "158";
},
{
align = round;
code = singleh;
point1 = dh02;
point2 = sh04;
stem = "158";
},
{
align = round;
code = singleh;
point1 = sh04;
point2 = sh05;
round = true;
},
{
align = round;
code = singleh;
point1 = sh05;
point2 = sh06;
stem = "158";
},
{
align = round;
code = singleh;
point1 = dh01;
point2 = sh07;
}
);
};
width = 1103;
}
);
unicode = 174;
},
{
glyphname = macron;
layers = (
{
background = {
shapes = (
{
closed = 1;
nodes = (
(158,1580,l),
(948,1580,l),
(948,1422,l),
(158,1422,l)
);
}
);
};
layerId = master01;
shapes = (
{
closed = 1;
nodes = (
(158,1580,l,{
name = sv01;
}),
(948,1580,l),
(948,1422,l,{
name = ah02;
}),
(158,1422,l,{
name = ah01;
})
);
}
);
userData = {
com.fontlab.ttcommands = (
{
code = alignt;
point = ah01;
zone = "t: 3";
},
{
align = left;
code = singlev;
point1 = ah01;
point2 = sv01;
stem = "158";
},
{
align = round;
code = alignh;
point = ah01;
},
{
align = round;
code = alignh;
point = ah02;
}
);
};
width = 1103;
}
);
unicode = 175;
},
{
glyphname = degree;
layers = (
{
background = {
shapes = (
{
closed = 1;
nodes = (
(158,1279,o),
(301,1422,o),
(474,1422,cs),
(647,1422,o),
(790,1279,o),
(790,1106,cs),
(790,933,o),
(647,790,o),
(474,790,cs),
(301,790,o),
(158,933,o),
(158,1106,cs)
);
},
{
closed = 1;
nodes = (
(316,1019,o),
(387,948,o),
(474,948,cs),
(561,948,o),
(632,1019,o),
(632,1106,cs),
(632,1193,o),
(561,1264,o),
(474,1264,cs),
(387,1264,o),
(316,1193,o),
(316,1106,cs)
);
}
);
};
layerId = master01;
shapes = (
{
closed = 1;
nodes = (
(158,1171,o),
(208,1286,o),
(294,1372,o),
(409,1422,o),
(474,1422,q,{
name = at01;
}),
(539,1422,o),
(654,1372,o),
(740,1286,o),
(790,1171,o),
(790,1106,q,{
name = dh04;
}),
(790,1041,o),
(740,926,o),
(654,840,o),
(539,790,o),
(474,790,q,{
name = at02;
}),
(409,790,o),
(294,840,o),
(208,926,o),
(158,1041,o),
(158,1106,q,{
name = dh01;
})
);
},
{
closed = 1;
nodes = (
(316,1073,o),
(341,1016,o),
(384,973,o),
(441,948,o),
(474,948,q,{
name = sv01;
}),
(507,948,o),
(564,973,o),
(607,1016,o),
(632,1073,o),
(632,1106,q,{
name = dh03;
}),
(632,1139,o),
(607,1196,o),
(564,1239,o),
(507,1264,o),
(474,1264,q,{
name = sv02;
}),
(441,1264,o),
(384,1239,o),
(341,1196,o),
(316,1139,o),
(316,1106,q,{
name = dh02;
})
);
}
);
userData = {
com.fontlab.ttcommands = (
{
code = alignt;
point = at01;
zone = "t: 3";
},
{
code = alignt;
point = at02;
zone = "t: 1";
},
{
align = round;
code = singlev;
point1 = at02;
point2 = sv01;
stem = "158";
},
{
align = round;
code = singlev;
point1 = at01;
point2 = sv02;
stem = "158";
},
{
code = doubleh;
point1 = dh01;
point2 = dh02;
stem = "158";
},
{
code = doubleh;
point1 = dh03;
point2 = dh04;
stem = "158";
}
);
};
width = 1103;
}
);
unicode = 176;
},
{
glyphname = plusminus;
layers = (
{
background = {
shapes = (
{
closed = 1;
nodes = (
(474,474,l),
(474,790,l),
(158,790,l),
(158,948,l),
(474,948,l),
(474,1264,l),
(632,1264,l),
(632,948,l),
(948,948,l),
(948,790,l),
(632,790,l),
(632,474,l),
(948,474,l),
(948,316,l),
(158,316,l),
(158,474,l)
);
}
);
};
layerId = master01;
shapes = (
{
closed = 1;
nodes = (
(474,474,l,{
name = dh01;
}),
(474,790,l),
(158,790,l,{
name = sh02;
}),
(158,948,l,{
name = sv01;
}),
(474,948,l,{
name = sh03;
}),
(474,1264,l,{
name = av01;
}),
(632,1264,l),
(632,948,l,{
name = sh04;
}),
(948,948,l),
(948,790,l,{
name = sh06;
}),
(632,790,l,{
name = sv02;
}),
(632,474,l,{
name = dh02;
}),
(948,474,l,{
name = sh05;
}),
(948,316,l),
(158,316,l,{
name = sv03;
}),
(158,474,l,{
name = sh01;
})
);
}
);
userData = {
com.fontlab.ttcommands = (
{
align = round;
code = alignv;
point = av01;
},
{
code = alignt;
point = sh01;
zone = "t: 0";
},
{
code = alignt;
point = sh02;
zone = "t: 1";
},
{
align = double;
code = singlev;
point1 = sh02;
point2 = sv01;
stem = "158";
},
{
align = round;
code = singlev;
point1 = sv01;
point2 = sh04;
},
{
align = round;
code = singlev;
point1 = sh02;
point2 = sv02;
},
{
align = round;
code = singlev;
point1 = sh01;
point2 = dh02;
},
{
align = round;
code = singlev;
point1 = sh01;
point2 = sv03;
stem = "158";
},
{
code = doubleh;
point1 = dh01;
point2 = dh02;
stem = "158";
},
{
align = round;
code = singleh;
point1 = dh01;
point2 = sh01;
},
{
align = center;
code = singleh;
point1 = sh01;
point2 = sh02;
},
{
align = round;
code = singleh;
point1 = dh01;
point2 = sh03;
},
{
align = round;
code = singleh;
point1 = dh02;
point2 = sh04;
},
{
align = round;
code = singleh;
point1 = dh02;
point2 = sh05;
},
{
align = round;
code = singleh;
point1 = sh05;
point2 = sh06;
}
);
};
width = 1103;
}
);
unicode = 177;
},
{
glyphname = twosuperior;
layers = (
{
background = {
shapes = (
{
closed = 1;
nodes = (
(158,988,o),
(237,1067,o),
(317,1145,c),
(395,1223,o),
(474,1304,o),
(474,1343,cs),
(474,1421,o),
(398,1422,o),
(322,1422,c),
(158,1422,l),
(158,1580,l),
(394,1580,ls),
(553,1580,o),
(632,1501,o),
(632,1343,cs),
(632,1262,o),
(474,1106,o),
(316,948,c),
(632,948,l),
(632,790,l),
(158,790,l),
(158,948,ls)
);
}
);
};
layerId = master01;
shapes = (
{
closed = 1;
nodes = (
(158,963,o),
(185,1006,o),
(230,1058,o),
(287,1116,o),
(317,1145,q),
(346,1174,o),
(403,1232,o),
(447,1285,o),
(474,1328,o),
(474,1343,q),
(474,1372,o),
(448,1404,o),
(405,1419,o),
(350,1422,o),
(322,1422,q),
(158,1422,l,{
name = at01;
}),
(158,1580,l,{
name = sv01;
}),
(394,1580,l),
(632,1580,o),
(632,1343,q),
(632,1313,o),
(578,1226,o),
(489,1123,o),
(375,1007,o),
(316,948,q),
(632,948,l,{
name = sv02;
}),
(632,790,l,{
name = at02;
}),
(158,790,l),
(158,948,l)
);
}
);
userData = {
com.fontlab.ttcommands = (
{
code = alignt;
point = at01;
zone = "t: 3";
},
{
code = alignt;
point = at02;
zone = "t: 1";
},
{
align = round;
code = singlev;
point1 = at01;
point2 = sv01;
stem = "158";
},
{
align = round;
code = singlev;
point1 = at02;
point2 = sv02;
stem = "158";
}
);
};
width = 1103;
}
);
unicode = 178;
},
{
glyphname = threesuperior;
layers = (
{
background = {
shapes = (
{
closed = 1;
nodes = (
(316,948,ls),
(395,948,o),
(474,954,o),
(474,1027,cs),
(474,1100,o),
(395,1106,o),
(316,1106,c),
(316,1264,l),
(396,1264,o),
(475,1270,o),
(475,1343,cs),
(475,1416,o),
(396,1422,o),
(316,1422,cs),
(158,1422,l),
(158,1580,l),
(395,1580,ls),
(553,1580,o),
(632,1501,o),
(632,1343,cs),
(632,1264,o),
(609,1225,o),
(552,1185,c),
(609,1145,o),
(632,1106,o),
(632,1027,cs),
(632,869,o),
(553,790,o),
(395,790,cs),
(158,790,l),
(158,948,l)
);
}
);
};
layerId = master01;
shapes = (
{
closed = 1;
nodes = (
(316,948,l),
(346,948,o),
(402,952,o),
(447,968,o),
(474,1000,o),
(474,1027,q,{
name = sh01;
}),
(474,1054,o),
(447,1086,o),
(402,1102,o),
(346,1106,o),
(316,1106,q,{
name = at02;
}),
(316,1264,l,{
name = sh02;
}),
(346,1264,o),
(403,1268,o),
(448,1284,o),
(475,1316,o),
(475,1343,q,{
name = dh01;
}),
(475,1370,o),
(448,1402,o),
(403,1418,o),
(346,1422,o),
(316,1422,q),
(158,1422,l,{
name = sh03;
}),
(158,1580,l,{
name = sv01;
}),
(395,1580,l),
(632,1580,o),
(632,1343,q,{
name = dh02;
}),
(632,1313,o),
(623,1268,o),
(604,1231,o),
(573,1200,o),
(552,1185,q),
(573,1170,o),
(604,1139,o),
(623,1102,o),
(632,1057,o),
(632,1027,q,{
name = sh04;
}),
(632,790,o),
(395,790,q),
(158,790,l,{
name = at01;
}),
(158,948,l,{
name = ah01;
})
);
}
);
userData = {
com.fontlab.ttcommands = (
{
code = alignt;
point = sh03;
zone = "t: 3";
},
{
code = alignt;
point = at01;
zone = "t: 1";
},
{
code = alignt;
point = at02;
zone = "t: 2";
},
{
align = round;
code = singlev;
point1 = at01;
point2 = ah01;
stem = "158";
},
{
align = round;
code = singlev;
point1 = at02;
point2 = sh02;
stem = "158";
},
{
align = round;
code = singlev;
point1 = sh03;
point2 = sv01;
stem = "158";
},
{
align = round;
code = alignh;
point = ah01;
},
{
code = doubleh;
point1 = dh01;
point2 = dh02;
stem = "158";
},
{
align = round;
code = singleh;
point1 = dh01;
point2 = sh01;
},
{
align = round;
code = singleh;
point1 = dh01;
point2 = sh02;
stem = "158";
},
{
align = round;
code = singleh;
point1 = ah01;
point2 = sh03;
},
{
align = round;
code = singleh;
point1 = dh02;
point2 = sh04;
}
);
};
width = 1103;
}
);
unicode = 179;
},
{
glyphname = acute;
layers = (
{
background = {
shapes = (
{
closed = 1;
nodes = (
(316,1422,l),
(790,1580,l),
(790,1422,l),
(316,1264,l)
);
}
);
};
layerId = master01;
shapes = (
{
closed = 1;
nodes = (
(316,1422,l),
(790,1580,l),
(790,1422,l),
(316,1264,l)
);
}
);
width = 1103;
}
);
unicode = 180;
},
{
glyphname = mu;
layers = (
{
background = {
shapes = (
{
closed = 1;
nodes = (
(828,170,o),
(856,158,o),
(948,158,c),
(948,0,l),
(842,2,o),
(735,34,o),
(676,117,c),
(604,44,o),
(506,0,o),
(395,0,cs),
(306,0,o),
(226,29,o),
(158,80,c),
(158,-316,l),
(0,-316,l),
(0,1106,l),
(158,1106,l),
(158,395,ls),
(158,238,o),
(267,158,o),
(395,158,cs),
(526,158,o),
(632,264,o),
(632,395,cs),
(632,1106,l),
(790,1106,l),
(790,257,l)
);
}
);
};
layerId = master01;
shapes = (
{
closed = 1;
nodes = (
(804,224,o),
(831,185,o),
(866,164,o),
(913,158,o),
(948,158,q),
(948,0,l,{
name = sh01;
}),
(908,1,o),
(830,14,o),
(759,42,o),
(698,86,o),
(676,117,q),
(622,62,o),
(479,0,o),
(395,0,q,{
name = ab01;
}),
(328,0,o),
(209,42,o),
(158,80,q),
(158,-316,l,{
name = sh02;
}),
(0,-316,l),
(0,1106,l,{
name = dh01;
}),
(158,1106,l,{
name = dh02;
}),
(158,395,l),
(158,336,o),
(196,247,o),
(261,188,o),
(347,158,o),
(395,158,q,{
name = sv01;
}),
(444,158,o),
(530,195,o),
(595,260,o),
(632,346,o),
(632,395,q),
(632,1106,l,{
name = dh03;
}),
(790,1106,l,{
name = dh04;
}),
(790,257,l)
);
}
);
userData = {
com.fontlab.ttcommands = (
{
code = alignt;
point = dh02;
zone = "t: 2";
},
{
code = alignb;
point = ab01;
zone = "b: 0";
},
{
align = round;
code = singlev;
point1 = ab01;
point2 = sv01;
stem = "158";
},
{
align = round;
code = singlev;
point1 = dh02;
point2 = dh03;
},
{
code = doubleh;
point1 = dh01;
point2 = dh02;
stem = "158";
},
{
code = doubleh;
point1 = dh03;
point2 = dh04;
stem = "158";
},
{
align = round;
code = singleh;
point1 = dh04;
point2 = sh01;
stem = "158";
},
{
align = round;
code = singleh;
point1 = dh02;
point2 = sh02;
}
);
};
width = 1103;
}
);
unicode = (181,956);
},
{
glyphname = paragraph;
layers = (
{
background = {
shapes = (
{
closed = 1;
nodes = (
(316,632,o),
(158,790,o),
(158,948,cs),
(158,1106,ls),
(158,1264,o),
(316,1422,o),
(474,1422,cs),
(948,1422,l),
(948,-315,l),
(790,-315,l),
(790,1264,l),
(632,1264,l),
(632,-316,l),
(474,-316,l),
(474,632,l)
);
}
);
};
layerId = master01;
shapes = (
{
closed = 1;
nodes = (
(415,632,o),
(301,686,o),
(212,775,o),
(158,889,o),
(158,948,q),
(158,1106,l,{
name = ah01;
}),
(158,1165,o),
(212,1279,o),
(301,1368,o),
(415,1422,o),
(474,1422,q),
(948,1422,l,{
name = at01;
}),
(948,-315,l,{
name = sh01;
}),
(790,-315,l,{
name = dh02;
}),
(790,1264,l,{
name = sv01;
}),
(632,1264,l),
(632,-316,l,{
name = dh01;
}),
(474,-316,l,{
name = sh02;
}),
(474,632,l)
);
}
);
userData = {
com.fontlab.ttcommands = (
{
align = round;
code = alignv;
point = sh01;
},
{
code = alignt;
point = at01;
zone = "t: 3";
},
{
align = round;
code = singlev;
point1 = at01;
point2 = sv01;
stem = "158";
},
{
align = round;
code = singlev;
point1 = sh01;
point2 = dh01;
},
{
align = round;
code = alignh;
point = ah01;
},
{
code = doubleh;
point1 = dh01;
point2 = dh02;
stem = "158";
},
{
align = round;
code = singleh;
point1 = dh02;
point2 = sh01;
stem = "158";
},
{
align = round;
code = singleh;
point1 = dh01;
point2 = sh02;
stem = "158";
}
);
};
width = 1103;
}
);
unicode = 182;
},
{
glyphname = periodcentered;
layers = (
{
background = {
shapes = (
{
closed = 1;
nodes = (
(316,877,o),
(387,948,o),
(474,948,cs),
(561,948,o),
(632,877,o),
(632,790,cs),
(632,703,o),
(561,632,o),
(474,632,cs),
(387,632,o),
(316,703,o),
(316,790,cs)
);
}
);
};
layerId = master01;
shapes = (
{
closed = 1;
nodes = (
(316,823,o),
(341,880,o),
(384,923,o),
(441,948,o),
(474,948,q,{
name = dv01;
}),
(507,948,o),
(564,923,o),
(607,880,o),
(632,823,o),
(632,790,q,{
name = dh02;
}),
(632,757,o),
(607,700,o),
(564,657,o),
(507,632,o),
(474,632,q,{
name = dv02;
}),
(441,632,o),
(384,657,o),
(341,700,o),
(316,757,o),
(316,790,q,{
name = dh01;
})
);
}
);
userData = {
com.fontlab.ttcommands = (
{
code = doublev;
point1 = dv01;
point2 = dv02;
},
{
code = doubleh;
point1 = dh01;
point2 = dh02;
}
);
};
width = 1103;
}
);
unicode = 183;
},
{
glyphname = cedilla;
layers = (
{
background = {
shapes = (
{
closed = 1;
nodes = (
(627,-206,o),
(510,-337,o),
(310,-337,cs),
(264,-337,o),
(213,-330,o),
(158,-316,c),
(158,-158,l),
(222,-179,o),
(274,-189,o),
(316,-189,cs),
(431,-189,o),
(474,-116,o),
(474,0,c),
(632,0,l)
);
}
);
};
layerId = master01;
shapes = (
{
closed = 1;
nodes = (
(630,-77,o),
(585,-202,o),
(503,-290,o),
(385,-337,o),
(310,-337,q),
(240,-337,o),
(158,-316,q),
(158,-158,l),
(252,-189,o),
(316,-189,q),
(402,-189,o),
(474,-87,o),
(474,0,q),
(632,0,l)
);
}
);
width = 1103;
}
);
unicode = 184;
},
{
glyphname = onesuperior;
layers = (
{
background = {
shapes = (
{
closed = 1;
nodes = (
(316,1264,l),
(158,1264,l),
(158,1422,l),
(245,1422,o),
(316,1493,o),
(316,1580,c),
(474,1580,l),
(474,948,l),
(632,948,l),
(632,790,l),
(158,790,l),
(158,948,l),
(316,948,l)
);
}
);
};
layerId = master01;
shapes = (
{
closed = 1;
nodes = (
(316,1264,l),
(158,1264,l),
(158,1422,l),
(191,1422,o),
(248,1447,o),
(291,1490,o),
(316,1547,o),
(316,1580,q),
(474,1580,l),
(474,948,l),
(632,948,l),
(632,790,l),
(158,790,l),
(158,948,l),
(316,948,l)
);
}
);
width = 1103;
}
);
unicode = 185;
},
